STARTFONT 2.1
COMMENT
COMMENT Converted from OpenType font "Q:\font stuff\winfont\EUROCAPS.TTF" by "otf2bdf 3.0".
COMMENT
FONT -FreeType-Euro Caps-Medium-R-Normal--96-960-72-72-P-415-ISO10646-1
SIZE 96 72 72
FONTBOUNDINGBOX 131 103 -11 -24
STARTPROPERTIES 19
FOUNDRY "FreeType"
FAMILY_NAME "Euro Caps"
WEIGHT_NAME "Medium"
SLANT "R"
SETWIDTH_NAME "Normal"
ADD_STYLE_NAME ""
PIXEL_SIZE 96
POINT_SIZE 960
RESOLUTION_X 72
RESOLUTION_Y 72
SPACING "P"
AVERAGE_WIDTH 415
CHARSET_REGISTRY "ISO10646"
CHARSET_ENCODING "1"
FONT_ASCENT 85
FONT_DESCENT 29
COPYRIGHT "©2010"
_OTF_FONTFILE "Q:\font stuff\winfont\EUROCAPS.TTF"
_OTF_PSNAME "EuroCaps"
ENDPROPERTIES
CHARS 259
STARTCHAR 0020
ENCODING 32
SWIDTH 302 0
DWIDTH 29 0
BBX 0 0 0 0
BITMAP
ENDCHAR
STARTCHAR 0021
ENCODING 33
SWIDTH 260 0
DWIDTH 25 0
BBX 9 64 8 0
BITMAP
FF80
FF80
FF80
FF80
FF80
FF80
FF80
FF80
FF80
FF80
FF80
FF80
FF80
FF80
FF80
FF80
FF80
FF80
FF80
FF80
FF80
FF80
FF80
FF80
FF80
FF80
FF00
FF00
FF00
FF00
FF00
7F00
7F00
7F00
7F00
7F00
7F00
7F00
7F00
7F00
7F00
7F00
7F00
7F00
7F00
0000
0000
0000
0000
0000
0000
0000
0000
0000
FF80
FF80
FF80
FF80
FF80
FF80
FF80
FF80
FF80
FF80
ENDCHAR
STARTCHAR 0022
ENCODING 34
SWIDTH 322 0
DWIDTH 31 0
BBX 21 26 5 38
BITMAP
FC01F8
FC01F8
FC01F8
FC01F8
FC01F8
FC01F8
FC01F8
FC01F8
FC01F8
FC01F8
FC01F8
FC01F8
FC01F8
FC01F8
FC01F8
FC01F8
FC01F8
FC01F8
7C01F0
7C01F0
7C01F0
7C01F0
7C01F0
7C01F0
7800F0
7800F0
ENDCHAR
STARTCHAR 0023
ENCODING 35
SWIDTH 510 0
DWIDTH 49 0
BBX 43 54 3 0
BITMAP
0001F001F800
0001F001F800
0003F001F800
0003F001F000
0003F001F000
0003F003F000
0003E003F000
0003E003F000
0003E003F000
0007E003E000
0007E003E000
0007E007E000
0007C007E000
0007C007E000
0007C007E000
000FC007C000
1FFFFFFFFFE0
1FFFFFFFFFE0
1FFFFFFFFFE0
1FFFFFFFFFC0
1FFFFFFFFFC0
001F800F8000
001F800F8000
001F801F8000
001F801F8000
001F001F8000
001F001F8000
003F001F0000
003F001F0000
003F001F0000
003F003F0000
003E003F0000
7FFFFFFFFF00
7FFFFFFFFF00
7FFFFFFFFF00
FFFFFFFFFF00
FFFFFFFFFF00
007C007E0000
007C007E0000
007C007E0000
00FC007C0000
00FC007C0000
00FC00FC0000
00FC00FC0000
00F800FC0000
00F800FC0000
01F800F80000
01F800F80000
01F800F80000
01F801F80000
01F001F80000
01F001F80000
01F001F80000
03F001F00000
ENDCHAR
STARTCHAR 0024
ENCODING 36
SWIDTH 583 0
DWIDTH 56 0
BBX 47 67 4 -6
BITMAP
000007E00000
000007E00000
000007E00000
000007E00000
000007E00000
0003FFFFE000
007FFFFFFE00
01FFFFFFFF80
07FFFFFFFFC0
0FFFFFFFFFE0
1FFFFFFFFFF0
1FFFFFFFFFF8
3FF007E01FF8
3FC007E007F8
3F8007E003FC
7F8007E001FC
7F0007E001FC
7F0007E001FC
7F0007E001FC
7F0007E001FC
7F0007E001FC
7F0007E001FC
7F0007E00000
7F0007E00000
7F0007E00000
7F8007E00000
7F8007E00000
3FC007E00000
3FE007E00000
3FFF87E00000
1FFFFFFFF800
0FFFFFFFFF00
0FFFFFFFFFC0
03FFFFFFFFE0
00FFFFFFFFF0
001FFFFFFFF8
000007E0FFF8
000007E007FC
000007E003FC
000007E001FC
000007E001FE
000007E000FE
000007E000FE
FF0007E000FE
FF0007E000FE
FF0007E000FE
FF0007E000FE
FF0007E000FE
7F0007E000FE
7F0007E000FE
7F0007E001FE
7F8007E001FC
7F8007E003FC
3FC007E007FC
3FFC07E03FF8
3FFFFFFFFFF8
1FFFFFFFFFF0
0FFFFFFFFFE0
07FFFFFFFFC0
01FFFFFFFF00
003FFFFFE000
000007E00000
000007E00000
000007E00000
000007E00000
000007E00000
000007E00000
ENDCHAR
STARTCHAR 0025
ENCODING 37
SWIDTH 885 0
DWIDTH 85 0
BBX 79 56 3 0
BITMAP
00FFFFC000001FC00000
07FFFFF800001F800000
1FFFFFFE00003F800000
3FFFFFFF00003F000000
7FFFFFFF80007E000000
7FFFFFFF80007E000000
7F80007F8000FC000000
FE00001FC001FC000000
FE00001FC001F8000000
FC00000FC003F8000000
FC00000FC003F0000000
FC00000FC007F0000000
FC00000FC007E0000000
FC00000FC00FE0000000
FC00000FC00FC0000000
FC00000FC01F80000000
FC00000FC01F80000000
FC00000FC03F00000000
FC00000FC07F00000000
FC00000FC07E00000000
FC00000FC0FE00000000
FC00000FC0FC00000000
FC00000FC1FC07FFFE00
FC00000FC1F83FFFFFC0
FC00000FC3F0FFFFFFF0
FE00001FC3F1FFFFFFF8
FE00001FC7E3FFFFFFFC
7F80007F87E3FFFFFFFC
7FFFFFFF8FC3FC0003FC
7FFFFFFF9FC7F00000FE
3FFFFFFF1F87F00000FE
1FFFFFFE3F87E000007E
07FFFFF83F07E000007E
00FFFFC07F07E000007E
000000007E07E000007E
00000000FC07E000007E
00000000FC07E000007E
00000001F807E000007E
00000001F807E000007E
00000003F007E000007E
00000007F007E000007E
00000007E007E000007E
0000000FE007E000007E
0000000FC007E000007E
0000001FC007E000007E
0000001F8007E000007E
0000003F0007E000007E
0000003F0007F00000FE
0000007E0007F00000FE
0000007E0003FC0003FC
000000FC0003FFFFFFFC
000000FC0003FFFFFFFC
000001F80001FFFFFFF8
000003F80000FFFFFFF0
000003F000003FFFFFC0
000007F0000007FFFE00
ENDCHAR
STARTCHAR 0026
ENCODING 38
SWIDTH 635 0
DWIDTH 61 0
BBX 54 55 5 -1
BITMAP
00007FFE000000
0007FFFFC00000
001FFFFFF00000
003FFFFFF80000
007FFFFFFC0000
007FFFFFFC0000
00FFFFFFFE0000
00FFC007FE0000
00FE0000FE0000
01FE0000FF0000
01FC0000FF0000
01FC0000FF0000
01FC00007F0000
01FC00007F0000
01FC00007F0000
01FC00007F0000
01FE00007F0000
01FE00007F0000
00FF0000000000
00FF8000000000
007FC000000000
007FF000000000
003FF800000000
003FFC00000000
03FFFE00000000
0FFFFF00000000
1FFFFFC0000000
3FFFFFE0000000
7FF07FF0000000
7F801FF8000000
7F000FFE03F800
7F0007FF03F800
FE0003FF83F800
FE0000FFC3F800
FE00007FF3F800
FE00003FFBF800
FE00001FFFF800
FE00000FFFF800
FE000003FFF800
FE000001FFF800
FE000000FFF800
FE0000007FF800
FE0000003FF800
FF0000000FFC00
7F00000007FF00
7F0000000FFF80
7F8000001FFFC0
7FE00000FFFFE0
3FFFFFFFFFFFF8
3FFFFFFFFFDFFC
1FFFFFFFFF8FFC
0FFFFFFFFF03F8
03FFFFFFFE01F0
00FFFFFFF800F0
000FFFFF800060
ENDCHAR
STARTCHAR 0027
ENCODING 39
SWIDTH 166 0
DWIDTH 16 0
BBX 6 26 5 38
BITMAP
FC
FC
FC
FC
FC
FC
FC
FC
FC
FC
FC
FC
FC
FC
FC
FC
FC
FC
7C
7C
7C
7C
7C
7C
78
78
ENDCHAR
STARTCHAR 0028
ENCODING 40
SWIDTH 333 0
DWIDTH 32 0
BBX 19 88 7 -18
BITMAP
000FE0
00FFE0
01FFE0
07FFE0
0FFFE0
0FFFE0
1FFFE0
3FFE00
3FF000
3FE000
7FE000
7FC000
7FC000
7FC000
7FC000
FF8000
FF8000
FF8000
FF8000
FF8000
FF8000
FF8000
FF8000
FF8000
FF8000
FF8000
FF8000
FF8000
FF8000
FF8000
FF8000
FF8000
FF8000
FF8000
FF8000
FF8000
FF8000
FF8000
FF8000
FF8000
FF8000
FF8000
FF8000
FF8000
FF8000
FF8000
FF8000
FF8000
FF8000
FF8000
FF8000
FF8000
FF8000
FF8000
FF8000
FF8000
FF8000
FF8000
FF8000
FF8000
FF8000
FF8000
FF8000
FF8000
FF8000
FF8000
FF8000
FF8000
FF8000
FF8000
FF8000
FF8000
FF8000
7FC000
7FC000
7FC000
7FC000
7FC000
3FE000
3FF000
3FFC00
1FFFE0
0FFFE0
0FFFE0
07FFE0
01FFE0
00FFE0
001FE0
ENDCHAR
STARTCHAR 0029
ENCODING 41
SWIDTH 333 0
DWIDTH 32 0
BBX 19 88 5 -18
BITMAP
FE0000
FFE000
FFF000
FFFC00
FFFE00
FFFE00
FFFF00
07FF80
01FF80
00FF80
00FFC0
007FC0
007FC0
007FC0
007FC0
003FE0
003FE0
003FE0
003FE0
003FE0
003FE0
003FE0
003FE0
003FE0
003FE0
003FE0
003FE0
003FE0
003FE0
003FE0
003FE0
003FE0
003FE0
003FE0
003FE0
003FE0
003FE0
003FE0
003FE0
003FE0
003FE0
003FE0
003FE0
003FE0
003FE0
003FE0
003FE0
003FE0
003FE0
003FE0
003FE0
003FE0
003FE0
003FE0
003FE0
003FE0
003FE0
003FE0
003FE0
003FE0
003FE0
003FE0
003FE0
003FE0
003FE0
003FE0
003FE0
003FE0
003FE0
003FE0
003FE0
003FE0
003FE0
007FC0
007FC0
007FC0
007FC0
00FFC0
00FF80
01FF80
07FF80
FFFF00
FFFE00
FFFE00
FFFC00
FFF000
FFE000
FF0000
ENDCHAR
STARTCHAR 002A
ENCODING 42
SWIDTH 489 0
DWIDTH 47 0
BBX 40 37 4 26
BITMAP
00007E0000
00007E0000
00007E0000
00007E0000
00007E0000
00007E0000
00007E0000
00007E0000
00007E0000
00007E0000
20007E0004
7C007E003C
7F807E01FE
7FE07E0FFE
FFFC7E3FFE
FFFFFFFFFF
1FFFFFFFF8
03FFFFFFC0
00FFFFFF00
001FFFF800
0003FFC000
0001FF8000
0003FFC000
0007FFC000
0007F7E000
000FE7F000
001FC3F800
003F81F800
003F81FC00
007F00FE00
00FE007E00
01FC007F00
01FC003F80
03F8001F80
03F0000F80
00E0000F00
0040000400
ENDCHAR
STARTCHAR 002B
ENCODING 43
SWIDTH 531 0
DWIDTH 51 0
BBX 44 44 3 5
BITMAP
00001FC00000
00001FC00000
00001FC00000
00001FC00000
00001FC00000
00001FC00000
00001FC00000
00001FC00000
00001FC00000
00001FC00000
00001FC00000
00001FC00000
00001FC00000
00001FC00000
00001FC00000
00001FC00000
00001FC00000
00001FC00000
00001FC00000
FFFFFFFFFFF0
FFFFFFFFFFF0
FFFFFFFFFFF0
FFFFFFFFFFF0
FFFFFFFFFFF0
FFFFFFFFFFF0
00001FC00000
00001FC00000
00001FC00000
00001FC00000
00001FC00000
00001FC00000
00001FC00000
00001FC00000
00001FC00000
00001FC00000
00001FC00000
00001FC00000
00001FC00000
00001FC00000
00001FC00000
00001FC00000
00001FC00000
00001FC00000
00001FC00000
ENDCHAR
STARTCHAR 002C
ENCODING 44
SWIDTH 218 0
DWIDTH 21 0
BBX 10 21 6 -11
BITMAP
7FC0
7FC0
7FC0
7FC0
7FC0
7FC0
7FC0
7FC0
7FC0
7FC0
07C0
07C0
07C0
07C0
07C0
0FC0
FF80
FF80
FF00
FE00
FC00
ENDCHAR
STARTCHAR 002D
ENCODING 45
SWIDTH 250 0
DWIDTH 24 0
BBX 22 7 1 23
BITMAP
FFFFFC
FFFFFC
FFFFFC
FFFFFC
FFFFFC
FFFFFC
FFFFFC
ENDCHAR
STARTCHAR 002E
ENCODING 46
SWIDTH 208 0
DWIDTH 20 0
BBX 9 10 6 0
BITMAP
FF80
FF80
FF80
FF80
FF80
FF80
FF80
FF80
FF80
FF80
ENDCHAR
STARTCHAR 002F
ENCODING 47
SWIDTH 593 0
DWIDTH 57 0
BBX 55 73 1 -9
BITMAP
0000000000007E
000000000000FC
000000000001FC
000000000001F8
000000000003F0
000000000007E0
000000000007E0
00000000000FC0
00000000001F80
00000000001F80
00000000003F00
00000000007E00
00000000007E00
0000000000FC00
0000000001F800
0000000001F800
0000000003F000
0000000007E000
0000000007E000
000000000FC000
000000001F8000
000000001F8000
000000003F0000
000000007E0000
00000000FE0000
00000000FC0000
00000001F80000
00000003F80000
00000003F00000
00000007E00000
0000000FE00000
0000000FC00000
0000001F800000
0000003F800000
0000003F000000
0000007E000000
000000FE000000
000000FC000000
000001F8000000
000003F0000000
000003F0000000
000007E0000000
00000FC0000000
00000FC0000000
00001F80000000
00003F00000000
00003F00000000
00007E00000000
0000FC00000000
0000FC00000000
0001F800000000
0003F000000000
0003F000000000
0007E000000000
000FC000000000
001FC000000000
001F8000000000
003F0000000000
007F0000000000
007E0000000000
00FC0000000000
01FC0000000000
01F80000000000
03F00000000000
07F00000000000
07E00000000000
0FC00000000000
1FC00000000000
1F800000000000
3F000000000000
7E000000000000
7E000000000000
FC000000000000
ENDCHAR
STARTCHAR 0030
ENCODING 48
SWIDTH 562 0
DWIDTH 54 0
BBX 44 56 5 0
BITMAP
000FFFFF0000
00FFFFFFF000
03FFFFFFFC00
07FFFFFFFE00
0FFFFFFFFF00
1FFFFFFFFF80
3FFFFFFFFFC0
3FF80001FFC0
7FC000003FE0
7F8000001FE0
7F0000000FE0
7F0000000FE0
FF0000000FF0
FF0000000FF0
FE00000007F0
FE00000007F0
FE00000007F0
FE00000007F0
FE00000007F0
FE00000007F0
FE00000007F0
FE00000007F0
FE00000007F0
FE00000007F0
FE00000007F0
FE00000007F0
FE00000007F0
FE00000007F0
FE00000007F0
FE00000007F0
FE00000007F0
FE00000007F0
FE00000007F0
FE00000007F0
FE00000007F0
FE00000007F0
FE00000007F0
FE00000007F0
FE00000007F0
FE00000007F0
FE00000007F0
FE00000007F0
FF0000000FF0
FF0000000FF0
7F0000000FE0
7F0000001FE0
7F8000001FE0
7FC000003FE0
3FF80001FFC0
3FFFFFFFFFC0
1FFFFFFFFF80
0FFFFFFFFF00
07FFFFFFFE00
03FFFFFFFC00
00FFFFFFF000
000FFFFF0000
ENDCHAR
STARTCHAR 0031
ENCODING 49
SWIDTH 562 0
DWIDTH 54 0
BBX 26 56 14 0
BITMAP
0000FFC0
0001FFC0
0003FFC0
0007FFC0
000FFFC0
001FFFC0
003FFFC0
007FFFC0
00FFFFC0
01FFDFC0
03FF9FC0
07FF1FC0
0FFE1FC0
1FFC1FC0
3FF81FC0
7FF01FC0
FFE01FC0
7FC01FC0
3F801FC0
1F001FC0
0E001FC0
04001FC0
00001FC0
00001FC0
00001FC0
00001FC0
00001FC0
00001FC0
00001FC0
00001FC0
00001FC0
00001FC0
00001FC0
00001FC0
00001FC0
00001FC0
00001FC0
00001FC0
00001FC0
00001FC0
00001FC0
00001FC0
00001FC0
00001FC0
00001FC0
00001FC0
00001FC0
00001FC0
00001FC0
00001FC0
00001FC0
00001FC0
00001FC0
00001FC0
00001FC0
00001FC0
ENDCHAR
STARTCHAR 0032
ENCODING 50
SWIDTH 520 0
DWIDTH 50 0
BBX 40 56 5 0
BITMAP
0007FFF000
00FFFFFF00
07FFFFFFC0
0FFFFFFFF0
1FFFFFFFF8
3FFFFFFFFC
3FFFFFFFFC
7FF8001FFE
7F800003FE
7F000001FE
7F000000FE
FE000000FF
FE0000007F
FE0000007F
FE0000007F
FE0000007F
FE0000007F
FE0000007F
FE0000007F
FE0000007F
000000007F
000000007F
000000007F
000000007F
00000000FF
00000000FE
00000001FE
00000003FE
0000000FFC
00000FFFFC
0007FFFFF8
00FFFFFFF0
03FFFFFFE0
0FFFFFFF80
1FFFFFFC00
3FFFFF8000
3FFF800000
7FF0000000
7F80000000
7F00000000
FF00000000
FF00000000
FE00000000
FE00000000
FE00000000
FE00000000
FE00000000
FE00000000
FE00000000
FE00000000
FFFFFFFFFF
FFFFFFFFFF
FFFFFFFFFF
FFFFFFFFFF
FFFFFFFFFF
FFFFFFFFFF
ENDCHAR
STARTCHAR 0033
ENCODING 51
SWIDTH 541 0
DWIDTH 52 0
BBX 41 56 5 0
BITMAP
003FFFF80000
01FFFFFF8000
07FFFFFFE000
1FFFFFFFF800
1FFFFFFFF800
3FFFFFFFFC00
7FFFFFFFFE00
7FE00007FE00
7F800001FE00
FF000000FF00
FE000000FF00
FE0000007F00
FE0000007F00
FE0000007F00
FE0000007F00
FE0000007F00
FE0000007F00
FE0000007F00
000000007F00
000000007F00
00000000FE00
00000000FE00
00000001FE00
00000007FC00
0001FFFFFC00
0001FFFFF800
0001FFFFE000
0001FFFFC000
0001FFFFF000
0001FFFFFC00
0001FFFFFE00
00000003FE00
00000000FF00
000000007F00
000000007F00
000000003F80
000000003F80
FE0000003F80
FE0000003F80
FE0000003F80
FE0000003F80
FE0000003F80
FE0000003F80
FE0000003F80
FE0000003F80
FF0000007F80
FF0000007F00
7F800000FF00
7FE00007FF00
7FFFFFFFFE00
3FFFFFFFFE00
1FFFFFFFFC00
0FFFFFFFF800
07FFFFFFF000
01FFFFFFC000
001FFFFC0000
ENDCHAR
STARTCHAR 0034
ENCODING 52
SWIDTH 541 0
DWIDTH 52 0
BBX 46 56 3 0
BITMAP
0000000FFC00
0000001FFC00
0000003FFC00
0000007FFC00
000000FFFC00
000000FFFC00
000001FFFC00
000003FDFC00
000007F9FC00
00000FF9FC00
00000FF1FC00
00001FE1FC00
00003FC1FC00
00007F81FC00
0000FF81FC00
0000FF01FC00
0001FE01FC00
0003FC01FC00
0007FC01FC00
0007F801FC00
000FF001FC00
001FE001FC00
003FC001FC00
007FC001FC00
007F8001FC00
00FF0001FC00
01FE0001FC00
03FE0001FC00
07FC0001FC00
07F80001FC00
0FF00001FC00
1FE00001FC00
3FE00001FC00
7FC00001FC00
7F800001FC00
FF000001FC00
FF000001FC00
FFFFFFFFFFFC
FFFFFFFFFFFC
FFFFFFFFFFFC
FFFFFFFFFFFC
FFFFFFFFFFFC
FFFFFFFFFFFC
00000001FC00
00000001FC00
00000001FC00
00000001FC00
00000001FC00
00000001FC00
00000001FC00
00000001FC00
00000001FC00
00000001FC00
00000001FC00
00000001FC00
00000001FC00
ENDCHAR
STARTCHAR 0035
ENCODING 53
SWIDTH 541 0
DWIDTH 52 0
BBX 41 56 6 0
BITMAP
7FFFFFFFFE00
7FFFFFFFFE00
7FFFFFFFFE00
7FFFFFFFFE00
7FFFFFFFFE00
7FFFFFFFFE00
7F0000000000
7F0000000000
7F0000000000
7F0000000000
7F0000000000
7F0000000000
7F0000000000
7F0000000000
7F0000000000
7F0000000000
7F0000000000
7F01FFF00000
7F1FFFFF8000
7F7FFFFFE000
7FFFFFFFF000
7FFFFFFFF800
7FFFFFFFFC00
7FFFFFFFFE00
7FF8000FFE00
7FC00001FF00
7F800000FF00
7F0000007F00
7F0000007F80
000000007F80
000000003F80
000000003F80
000000003F80
000000003F80
000000003F80
000000003F80
000000003F80
000000003F80
000000003F80
FE0000003F80
FE0000003F80
FE0000003F80
FE0000003F80
FE0000003F80
FE0000007F00
FF0000007F00
FF0000007F00
7F800001FF00
7FF0000FFE00
7FFFFFFFFE00
3FFFFFFFFC00
1FFFFFFFFC00
0FFFFFFFF800
07FFFFFFE000
01FFFFFF8000
000FFFF80000
ENDCHAR
STARTCHAR 0036
ENCODING 54
SWIDTH 552 0
DWIDTH 53 0
BBX 42 56 5 0
BITMAP
0007FFFC0000
00FFFFFFC000
03FFFFFFF000
07FFFFFFFC00
1FFFFFFFFE00
1FFFFFFFFE00
3FFFFFFFFF00
7FFC0003FF00
7FC000007F80
7F8000007F80
7F8000003F80
FF0000003F80
FF0000003F80
FF0000003F80
FF0000003F80
FF0000000000
FF0000000000
FF0000000000
FF0000000000
FF0000000000
FF0000000000
FF01FFFE0000
FF1FFFFFE000
FF7FFFFFF800
FFFFFFFFFC00
FFFFFFFFFE00
FFFFFFFFFF00
FFFFFFFFFF00
FFF80007FF80
FFC000007F80
FF0000003F80
FF0000003F80
FE0000003FC0
FE0000001FC0
FE0000001FC0
FE0000001FC0
FE0000001FC0
FE0000001FC0
FE0000001FC0
FE0000001FC0
FE0000001FC0
FE0000001FC0
FE0000001FC0
FF0000001FC0
7F0000003F80
7F0000003F80
7F8000003F80
7FC000007F80
3FF80003FF00
3FFFFFFFFF00
1FFFFFFFFE00
0FFFFFFFFE00
07FFFFFFFC00
01FFFFFFF800
007FFFFFE000
000FFFFE0000
ENDCHAR
STARTCHAR 0037
ENCODING 55
SWIDTH 520 0
DWIDTH 50 0
BBX 41 56 4 0
BITMAP
FFFFFFFFFF80
FFFFFFFFFF80
FFFFFFFFFF80
FFFFFFFFFF80
FFFFFFFFFF80
FFFFFFFFFF80
000000003F80
000000007F80
000000007F80
00000000FF00
00000000FF00
00000001FE00
00000003FE00
00000003FC00
00000007FC00
00000007F800
0000000FF000
0000000FF000
0000001FE000
0000003FE000
0000003FC000
0000007FC000
0000007F8000
000000FF0000
000000FF0000
000001FE0000
000003FE0000
000003FC0000
000007FC0000
000007F80000
00000FF80000
00000FF00000
00001FE00000
00003FE00000
00003FC00000
00007FC00000
00007F800000
0000FF800000
0000FF000000
0001FF000000
0003FE000000
0003FC000000
0007FC000000
0007F8000000
000FF8000000
000FF0000000
001FF0000000
003FE0000000
003FE0000000
007FC0000000
007F80000000
00FF80000000
00FF00000000
01FF00000000
03FE00000000
03FE00000000
ENDCHAR
STARTCHAR 0038
ENCODING 56
SWIDTH 541 0
DWIDTH 52 0
BBX 42 56 5 0
BITMAP
001FFFFE0000
01FFFFFFE000
07FFFFFFF800
0FFFFFFFFC00
1FFFFFFFFE00
1FFFFFFFFE00
3FFFFFFFFF00
3FF00007FF00
3F800000FF00
7F8000007F80
7F0000007F80
7F0000003F80
7F0000003F80
7F0000003F80
7F0000003F80
7F0000003F80
7F0000003F80
7F0000003F80
7F0000003F80
7F0000003F80
3F0000007F00
3F8000007F00
3FC00000FF00
1FF80007FE00
1FFFFFFFFE00
0FFFFFFFFC00
03FFFFFFF000
03FFFFFFF000
0FFFFFFFFC00
1FFFFFFFFE00
3FF00003FF00
7F8000007F80
7F0000003F80
7F0000003F80
FE0000001FC0
FE0000001FC0
FE0000001FC0
FE0000001FC0
FE0000001FC0
FE0000001FC0
FE0000001FC0
FE0000001FC0
FE0000001FC0
FE0000001FC0
FE0000003FC0
FF0000003FC0
FF0000003F80
7F800000FF80
7FF00007FF80
7FFFFFFFFF80
3FFFFFFFFF00
1FFFFFFFFE00
0FFFFFFFFC00
07FFFFFFF800
01FFFFFFE000
000FFFFC0000
ENDCHAR
STARTCHAR 0039
ENCODING 57
SWIDTH 541 0
DWIDTH 52 0
BBX 42 56 5 0
BITMAP
000FFFF80000
00FFFFFFC000
03FFFFFFF000
0FFFFFFFF800
1FFFFFFFFC00
3FFFFFFFFE00
3FFFFFFFFF00
7FF0000FFF00
7F800001FF80
7F000000FF80
7F0000007F80
FF0000007F80
FE0000003F80
FE0000003FC0
FE0000003FC0
FE0000003FC0
FE0000003FC0
FE0000003FC0
FE0000003FC0
FE0000003FC0
FE0000003FC0
FE0000003FC0
FE0000003FC0
FF0000003FC0
FF0000007FC0
7F0000007FC0
7F800000FFC0
7FF0000FFFC0
3FFFFFFFFFC0
3FFFFFFFFFC0
1FFFFFFFFFC0
0FFFFFFFFFC0
07FFFFFFBFC0
01FFFFFE3FC0
001FFFE03FC0
000000003FC0
000000003FC0
000000003FC0
000000003FC0
000000003FC0
000000003FC0
FE0000003FC0
FE0000003FC0
FE0000003FC0
FE0000007F80
FE0000007F80
FF0000007F80
FF000000FF80
FFC00007FF00
7FFFFFFFFF00
7FFFFFFFFE00
3FFFFFFFFE00
1FFFFFFFFC00
0FFFFFFFF000
03FFFFFFC000
003FFFFC0000
ENDCHAR
STARTCHAR 003A
ENCODING 58
SWIDTH 208 0
DWIDTH 20 0
BBX 9 51 6 0
BITMAP
FF80
FF80
FF80
FF80
FF80
FF80
FF80
FF80
FF80
FF80
0000
0000
0000
0000
0000
0000
0000
0000
0000
0000
0000
0000
0000
0000
0000
0000
0000
0000
0000
0000
0000
0000
0000
0000
0000
0000
0000
0000
0000
0000
0000
FF80
FF80
FF80
FF80
FF80
FF80
FF80
FF80
FF80
FF80
ENDCHAR
STARTCHAR 003B
ENCODING 59
SWIDTH 218 0
DWIDTH 21 0
BBX 10 62 6 -11
BITMAP
FF80
FF80
FF80
FF80
FF80
FF80
FF80
FF80
FF80
FF80
0000
0000
0000
0000
0000
0000
0000
0000
0000
0000
0000
0000
0000
0000
0000
0000
0000
0000
0000
0000
0000
0000
0000
0000
0000
0000
0000
0000
0000
0000
0000
7FC0
7FC0
7FC0
7FC0
7FC0
7FC0
7FC0
7FC0
7FC0
7FC0
07C0
07C0
07C0
07C0
07C0
0FC0
FF80
FF80
FF00
FE00
FC00
ENDCHAR
STARTCHAR 003C
ENCODING 60
SWIDTH 500 0
DWIDTH 48 0
BBX 42 46 3 3
BITMAP
000000000040
0000000001C0
0000000007C0
000000001FC0
000000007FC0
00000001FFC0
0000000FFFC0
0000003FFFC0
000000FFFF00
000003FFFC00
00000FFFF000
00003FFFC000
0000FFFF0000
0007FFF80000
001FFFE00000
007FFF800000
01FFFE000000
07FFF8000000
1FFFC0000000
7FFF00000000
FFFC00000000
FFF000000000
FFC000000000
FF8000000000
FFE000000000
FFF800000000
FFFF00000000
3FFFC0000000
07FFF0000000
01FFFC000000
007FFF000000
001FFFE00000
0007FFF80000
0001FFFE0000
00007FFF8000
00001FFFE000
000003FFFC00
000000FFFF00
0000003FFFC0
0000000FFFC0
00000003FFC0
00000000FFC0
000000003FC0
000000000FC0
0000000001C0
000000000040
ENDCHAR
STARTCHAR 003D
ENCODING 61
SWIDTH 531 0
DWIDTH 51 0
BBX 44 22 3 16
BITMAP
FFFFFFFFFFF0
FFFFFFFFFFF0
FFFFFFFFFFF0
FFFFFFFFFFF0
FFFFFFFFFFF0
FFFFFFFFFFF0
000000000000
000000000000
000000000000
000000000000
000000000000
000000000000
000000000000
000000000000
000000000000
000000000000
FFFFFFFFFFF0
FFFFFFFFFFF0
FFFFFFFFFFF0
FFFFFFFFFFF0
FFFFFFFFFFF0
FFFFFFFFFFF0
ENDCHAR
STARTCHAR 003E
ENCODING 62
SWIDTH 500 0
DWIDTH 48 0
BBX 42 46 3 3
BITMAP
800000000000
E00000000000
F80000000000
FE0000000000
FF8000000000
FFE000000000
FFFC00000000
FFFF00000000
3FFFC0000000
0FFFF0000000
03FFFC000000
00FFFF000000
003FFFC00000
0007FFF80000
0001FFFE0000
00007FFF8000
00001FFFE000
000007FFF800
000000FFFE00
0000003FFF80
0000000FFFC0
00000003FFC0
00000000FFC0
000000007FC0
00000001FFC0
00000007FFC0
0000003FFFC0
000000FFFF00
000003FFF800
00000FFFE000
00003FFF8000
0001FFFE0000
0007FFF80000
001FFFE00000
007FFF800000
01FFFE000000
0FFFF0000000
3FFFC0000000
FFFF00000000
FFFC00000000
FFF000000000
FFC000000000
FF0000000000
FC0000000000
E00000000000
800000000000
ENDCHAR
STARTCHAR 003F
ENCODING 63
SWIDTH 479 0
DWIDTH 46 0
BBX 34 65 6 0
BITMAP
003FFF0000
03FFFFF000
0FFFFFFC00
1FFFFFFE00
3FFFFFFF00
3FFFFFFF80
7FFFFFFF80
7FE001FF80
FF80007FC0
FF00003FC0
FE00001FC0
FE00001FC0
FE00001FC0
FE00001FC0
FE00001FC0
FE00001FC0
FE00001FC0
0000001FC0
0000001FC0
0000001FC0
0000001FC0
0000001FC0
0000001FC0
0000003FC0
0000007F80
000001FF80
000007FF80
00003FFF00
0001FFFE00
0003FFFC00
0007FFF000
000FFF8000
000FFE0000
001FF00000
001FE00000
001FC00000
001FC00000
001FC00000
001FC00000
001FC00000
001FC00000
001FC00000
001FC00000
001FC00000
001FC00000
001FC00000
0000000000
0000000000
0000000000
0000000000
0000000000
0000000000
0000000000
0000000000
0000000000
003FE00000
003FE00000
003FE00000
003FE00000
003FE00000
003FE00000
003FE00000
003FE00000
003FE00000
003FE00000
ENDCHAR
STARTCHAR 0040
ENCODING 64
SWIDTH 729 0
DWIDTH 70 0
BBX 62 64 4 0
BITMAP
000007FFFFF80000
0003FFFFFFFFE000
003FFFFFFFFFF800
00FFFFFFFFFFFE00
03FFFFFFFFFFFF80
07FFE0000007FFC0
07F8000000003FC0
0FE0000000000FE0
1F800000000007F0
1F000000000003F0
3F000000000001F0
3E000000000001F8
3E000000000000F8
3E0000FFC07E00F8
7C0007FFFC7E00F8
7C001FFFFE7E00F8
7C003FFFFF7E00FC
7C003FFFFFFE007C
7C007FC01FFE007C
7C00FF0003FE007C
F800FE0001FE007C
F800FC0000FE007C
F800FC0000FE007C
F801FC0000FE007C
F801F800007E007C
F801F800007E007C
F801F800007E007C
F801F800007E007C
F801F800007E007C
F801F800007E007C
F801F800007E007C
F801F800007E007C
F801F800007E007C
F801F800007E007C
F801F800007E007C
F801F800007E007C
F801F800007E0078
F801F800007E00F8
F801F800007E00F8
F801FC00007E00F8
F800FC0000FE00F8
F800FC0000FE00F8
F800FC0000FE00F0
7C00FE0001FE01F0
7C007F0003FF01F0
7C007FC01FFF83F0
7C003FFFFF9FFFE0
7C003FFFFF0FFFC0
7C000FFFFE07FF80
7E0007FFFC01FE00
3E0000FFC0000000
3E00000000000000
3F00000000000000
1F00000000000000
1F80000000000000
0FC0000000000000
0FF0000000003000
07FE000000007800
03FFF0000007FE00
01FFFFFFFFFFFC00
007FFFFFFFFFF800
001FFFFFFFFFF000
0001FFFFFFFFC000
000007FFFFF80000
ENDCHAR
STARTCHAR 0041
ENCODING 65
SWIDTH 552 0
DWIDTH 53 0
BBX 51 55 1 0
BITMAP
000007FC000000
00000FFE000000
00000FFE000000
00001FFF000000
00001FFF000000
00001FFF000000
00003FFF800000
00003FFF800000
00003FFF800000
00007FBFC00000
00007FBFC00000
0000FF9FE00000
0000FF1FE00000
0000FF1FE00000
0001FE0FF00000
0001FE0FF00000
0003FE07F80000
0003FC07F80000
0003FC07F80000
0007FC03FC0000
0007F803FC0000
0007F803FE0000
000FF001FE0000
000FF001FE0000
001FF000FF0000
001FE000FF0000
001FE000FF0000
003FE0007F8000
003FC0007F8000
003FC0003FC000
007F80003FC000
007F80003FC000
00FF80001FE000
00FF00001FE000
00FF00001FF000
01FF00000FF000
01FE00000FF000
01FE000007F800
03FFFFFFFFF800
03FFFFFFFFF800
07FFFFFFFFFC00
07FFFFFFFFFC00
07FFFFFFFFFE00
0FFFFFFFFFFE00
0FF0000001FE00
0FF0000000FF00
1FE0000000FF00
1FE00000007F80
3FC00000007F80
3FC00000007F80
3FC00000003FC0
7F800000003FC0
7F800000001FC0
FF000000001FE0
FF000000001FE0
ENDCHAR
STARTCHAR 0042
ENCODING 66
SWIDTH 572 0
DWIDTH 55 0
BBX 44 55 7 0
BITMAP
FFFFFFFFC000
FFFFFFFFF800
FFFFFFFFFC00
FFFFFFFFFE00
FFFFFFFFFF00
FFFFFFFFFF00
FFFFFFFFFF80
FE000000FF80
FE0000007F80
FE0000003FC0
FE0000001FC0
FE0000001FC0
FE0000001FC0
FE0000001FC0
FE0000001FC0
FE0000001FC0
FE0000001FC0
FE0000001FC0
FE0000001FC0
FE0000003FC0
FE0000003F80
FE0000007F80
FE000003FF00
FFFFFFFFFF00
FFFFFFFFFE00
FFFFFFFFF000
FFFFFFFFFE00
FFFFFFFFFF00
FFFFFFFFFF80
FFFFFFFFFFC0
FE0000007FE0
FE0000001FE0
FE0000000FE0
FE0000000FE0
FE00000007F0
FE00000007F0
FE00000007F0
FE00000007F0
FE00000007F0
FE00000007F0
FE00000007F0
FE00000007F0
FE00000007F0
FE00000007F0
FE0000000FF0
FE0000000FE0
FE0000001FE0
FE0000007FE0
FFFFFFFFFFC0
FFFFFFFFFFC0
FFFFFFFFFF80
FFFFFFFFFF00
FFFFFFFFFE00
FFFFFFFFF800
FFFFFFFFC000
ENDCHAR
STARTCHAR 0043
ENCODING 67
SWIDTH 562 0
DWIDTH 54 0
BBX 46 57 4 -1
BITMAP
0007FFFFE000
007FFFFFFE00
01FFFFFFFF80
03FFFFFFFFC0
0FFFFFFFFFE0
0FFFFFFFFFF0
1FFFFFFFFFF0
3FFFC0003FF8
3FF8000007F8
3FE0000003F8
7FC0000003F8
7F80000003FC
7F80000001FC
7F80000001FC
7F00000001FC
FF00000001FC
FF00000001FC
FF00000001FC
FF00000001FC
FF0000000000
FF0000000000
FF0000000000
FF0000000000
FF0000000000
FF0000000000
FF0000000000
FF0000000000
FF0000000000
FF0000000000
FF0000000000
FF0000000000
FF0000000000
FF0000000000
FF0000000000
FF0000000000
FF0000000000
FF0000000000
FF00000001FC
FF00000001FC
FF00000001FC
FF80000001FC
FF80000001FC
FF80000001FC
FF80000001FC
7F80000001FC
7F80000001FC
7FC0000003FC
7FC0000003F8
3FE0000007F8
3FFC00007FF8
1FFFFFFFFFF0
1FFFFFFFFFF0
0FFFFFFFFFE0
07FFFFFFFFC0
01FFFFFFFF80
007FFFFFFE00
000FFFFFE000
ENDCHAR
STARTCHAR 0044
ENCODING 68
SWIDTH 593 0
DWIDTH 57 0
BBX 46 55 7 0
BITMAP
FFFFFFFF8000
FFFFFFFFF800
FFFFFFFFFC00
FFFFFFFFFF00
FFFFFFFFFF80
FFFFFFFFFFC0
FFFFFFFFFFC0
FE000000FFE0
FE0000001FF0
FE0000000FF0
FE00000007F0
FE00000003F8
FE00000003F8
FE00000001F8
FE00000001F8
FE00000001F8
FE00000001FC
FE00000001FC
FE00000001FC
FE00000001FC
FE00000001FC
FE00000001FC
FE00000001FC
FE00000001FC
FE00000001FC
FE00000001FC
FE00000001FC
FE00000001FC
FE00000001FC
FE00000001FC
FE00000001FC
FE00000001FC
FE00000001FC
FE00000001FC
FE00000001FC
FE00000001FC
FE00000001FC
FE00000001FC
FE00000001FC
FE00000001FC
FE00000003FC
FE00000003FC
FE00000003F8
FE00000007F8
FE00000007F8
FE0000000FF0
FE0000003FF0
FE000001FFF0
FFFFFFFFFFE0
FFFFFFFFFFC0
FFFFFFFFFF80
FFFFFFFFFF00
FFFFFFFFFE00
FFFFFFFFF800
FFFFFFFF8000
ENDCHAR
STARTCHAR 0045
ENCODING 69
SWIDTH 510 0
DWIDTH 49 0
BBX 37 55 7 0
BITMAP
FFFFFFFFF8
FFFFFFFFF8
FFFFFFFFF8
FFFFFFFFF8
FFFFFFFFF8
FFFFFFFFF8
FFFFFFFFF8
FE00000000
FE00000000
FE00000000
FE00000000
FE00000000
FE00000000
FE00000000
FE00000000
FE00000000
FE00000000
FE00000000
FE00000000
FE00000000
FE00000000
FE00000000
FE00000000
FFFFFFFFF0
FFFFFFFFF0
FFFFFFFFF0
FFFFFFFFF0
FFFFFFFFF0
FFFFFFFFF0
FFFFFFFFF0
FE00000000
FE00000000
FE00000000
FE00000000
FE00000000
FE00000000
FE00000000
FE00000000
FE00000000
FE00000000
FE00000000
FE00000000
FE00000000
FE00000000
FE00000000
FE00000000
FE00000000
FE00000000
FFFFFFFFF8
FFFFFFFFF8
FFFFFFFFF8
FFFFFFFFF8
FFFFFFFFF8
FFFFFFFFF8
FFFFFFFFF8
ENDCHAR
STARTCHAR 0046
ENCODING 70
SWIDTH 468 0
DWIDTH 45 0
BBX 35 55 7 0
BITMAP
FFFFFFFFE0
FFFFFFFFE0
FFFFFFFFE0
FFFFFFFFE0
FFFFFFFFE0
FFFFFFFFE0
FFFFFFFFE0
FE00000000
FE00000000
FE00000000
FE00000000
FE00000000
FE00000000
FE00000000
FE00000000
FE00000000
FE00000000
FE00000000
FE00000000
FE00000000
FE00000000
FE00000000
FE00000000
FE00000000
FFFFFFFFE0
FFFFFFFFE0
FFFFFFFFE0
FFFFFFFFE0
FFFFFFFFE0
FFFFFFFFE0
FFFFFFFFE0
FE00000000
FE00000000
FE00000000
FE00000000
FE00000000
FE00000000
FE00000000
FE00000000
FE00000000
FE00000000
FE00000000
FE00000000
FE00000000
FE00000000
FE00000000
FE00000000
FE00000000
FE00000000
FE00000000
FE00000000
FE00000000
FE00000000
FE00000000
FE00000000
ENDCHAR
STARTCHAR 0047
ENCODING 71
SWIDTH 583 0
DWIDTH 56 0
BBX 47 57 4 -1
BITMAP
000FFFFFF000
007FFFFFFF00
01FFFFFFFFC0
03FFFFFFFFE0
07FFFFFFFFF0
0FFFFFFFFFF8
1FFFFFFFFFFC
1FFE00000FFC
3FF0000003FC
3FE0000001FE
7FC0000001FE
7FC0000000FE
7F80000000FE
7F80000000FE
FF80000000FE
FF80000000FE
FF80000000FE
FF00000000FE
FF0000000000
FF0000000000
FF0000000000
FF0000000000
FF0000000000
FF0000000000
FF0000000000
FF0000000000
FF0000000000
FF0000000000
FF0001FFFFFE
FF0001FFFFFE
FF0001FFFFFE
FF0001FFFFFE
FF0001FFFFFE
FF0001FFFFFE
FF0001FFFFFE
FF00000000FE
FF00000000FE
FF00000000FE
FF00000000FE
FF00000000FE
FF00000000FE
FF00000000FE
FF00000000FE
FF00000000FE
FF80000000FE
7F80000001FE
7F80000001FE
7FC0000001FC
3FE0000007FC
3FFE00001FFC
1FFFFFFFFFF8
1FFFFFFFFFF8
0FFFFFFFFFF0
07FFFFFFFFE0
01FFFFFFFFC0
007FFFFFFF00
0003FFFFE000
ENDCHAR
STARTCHAR 0048
ENCODING 72
SWIDTH 614 0
DWIDTH 59 0
BBX 45 55 7 0
BITMAP
FE00000003F8
FE00000003F8
FE00000003F8
FE00000003F8
FE00000003F8
FE00000003F8
FE00000003F8
FE00000003F8
FE00000003F8
FE00000003F8
FE00000003F8
FE00000003F8
FE00000003F8
FE00000003F8
FE00000003F8
FE00000003F8
FE00000003F8
FE00000003F8
FE00000003F8
FE00000003F8
FE00000003F8
FE00000003F8
FE00000003F8
FFFFFFFFFFF8
FFFFFFFFFFF8
FFFFFFFFFFF8
FFFFFFFFFFF8
FFFFFFFFFFF8
FFFFFFFFFFF8
FFFFFFFFFFF8
FE00000003F8
FE00000003F8
FE00000003F8
FE00000003F8
FE00000003F8
FE00000003F8
FE00000003F8
FE00000003F8
FE00000003F8
FE00000003F8
FE00000003F8
FE00000003F8
FE00000003F8
FE00000003F8
FE00000003F8
FE00000003F8
FE00000003F8
FE00000003F8
FE00000003F8
FE00000003F8
FE00000003F8
FE00000003F8
FE00000003F8
FE00000003F8
FE00000003F8
ENDCHAR
STARTCHAR 0049
ENCODING 73
SWIDTH 218 0
DWIDTH 21 0
BBX 7 55 7 0
BITMAP
FE
FE
FE
FE
FE
FE
FE
FE
FE
FE
FE
FE
FE
FE
FE
FE
FE
FE
FE
FE
FE
FE
FE
FE
FE
FE
FE
FE
FE
FE
FE
FE
FE
FE
FE
FE
FE
FE
FE
FE
FE
FE
FE
FE
FE
FE
FE
FE
FE
FE
FE
FE
FE
FE
FE
ENDCHAR
STARTCHAR 004A
ENCODING 74
SWIDTH 468 0
DWIDTH 45 0
BBX 35 56 3 -1
BITMAP
0000000FE0
0000000FE0
0000000FE0
0000000FE0
0000000FE0
0000000FE0
0000000FE0
0000000FE0
0000000FE0
0000000FE0
0000000FE0
0000000FE0
0000000FE0
0000000FE0
0000000FE0
0000000FE0
0000000FE0
0000000FE0
0000000FE0
0000000FE0
0000000FE0
0000000FE0
0000000FE0
0000000FE0
0000000FE0
0000000FE0
0000000FE0
0000000FE0
0000000FE0
0000000FE0
0000000FE0
0000000FE0
0000000FE0
0000000FE0
FE00000FE0
FE00000FE0
FE00000FE0
FE00000FE0
FE00000FE0
FE00000FE0
FE00000FE0
FE00000FE0
FE00000FE0
FE00000FE0
FF00000FE0
FF00001FE0
7F00001FC0
7F80003FC0
7FE000FFC0
3FFFFFFF80
3FFFFFFF80
1FFFFFFF00
0FFFFFFE00
07FFFFFC00
01FFFFF000
001FFF8000
ENDCHAR
STARTCHAR 004B
ENCODING 75
SWIDTH 562 0
DWIDTH 54 0
BBX 47 55 7 0
BITMAP
FE0000003FF0
FE0000007FE0
FE000000FFC0
FE000001FF80
FE000003FF00
FE000007FE00
FE00000FFC00
FE00001FF800
FE00003FF000
FE00007FE000
FE0000FFC000
FE0001FF8000
FE0003FF0000
FE0007FE0000
FE0007FC0000
FE000FF80000
FE001FF00000
FE003FE00000
FE007FC00000
FE00FFC00000
FE01FF800000
FE03FF000000
FE07FE000000
FFFFFC000000
FFFFF8000000
FFFFF0000000
FFFFE0000000
FFFFE0000000
FFFFF0000000
FFFFF8000000
FE0FFC000000
FE07FE000000
FE03FF800000
FE01FFC00000
FE00FFE00000
FE007FF00000
FE003FF80000
FE001FFC0000
FE000FFE0000
FE0007FF0000
FE0003FF8000
FE0001FFC000
FE0000FFE000
FE00007FF000
FE00003FF800
FE00001FFC00
FE00000FFE00
FE000007FF00
FE000003FF80
FE000001FFC0
FE0000007FE0
FE0000003FF0
FE0000001FF8
FE0000000FFC
FE00000007FE
ENDCHAR
STARTCHAR 004C
ENCODING 76
SWIDTH 468 0
DWIDTH 45 0
BBX 36 55 7 0
BITMAP
FE00000000
FE00000000
FE00000000
FE00000000
FE00000000
FE00000000
FE00000000
FE00000000
FE00000000
FE00000000
FE00000000
FE00000000
FE00000000
FE00000000
FE00000000
FE00000000
FE00000000
FE00000000
FE00000000
FE00000000
FE00000000
FE00000000
FE00000000
FE00000000
FE00000000
FE00000000
FE00000000
FE00000000
FE00000000
FE00000000
FE00000000
FE00000000
FE00000000
FE00000000
FE00000000
FE00000000
FE00000000
FE00000000
FE00000000
FE00000000
FE00000000
FE00000000
FE00000000
FE00000000
FE00000000
FE00000000
FE00000000
FE00000000
FFFFFFFFF0
FFFFFFFFF0
FFFFFFFFF0
FFFFFFFFF0
FFFFFFFFF0
FFFFFFFFF0
FFFFFFFFF0
ENDCHAR
STARTCHAR 004D
ENCODING 77
SWIDTH 781 0
DWIDTH 75 0
BBX 61 55 7 0
BITMAP
FFF0000000007FF8
FFF0000000007FF8
FFF800000000FFF8
FFF800000000FFF8
FFF800000000FFF8
FFFC00000001FFF8
FFFC00000001FFF8
FFFE00000003FFF8
FEFE00000003FBF8
FEFE00000007FBF8
FEFF00000007FBF8
FE7F00000007F3F8
FE7F8000000FF3F8
FE3F8000000FE3F8
FE3F8000001FE3F8
FE1FC000001FC3F8
FE1FC000001FC3F8
FE1FE000003FC3F8
FE0FE000003F83F8
FE0FE000007F83F8
FE07F000007F03F8
FE07F000007F03F8
FE07F80000FF03F8
FE03F80000FE03F8
FE03F80001FE03F8
FE01FC0001FC03F8
FE01FC0001FC03F8
FE00FE0003FC03F8
FE00FE0003F803F8
FE00FE0007F803F8
FE007F0007F003F8
FE007F0007F003F8
FE003F800FE003F8
FE003F800FE003F8
FE003F801FE003F8
FE001FC01FC003F8
FE001FC01FC003F8
FE000FE03F8003F8
FE000FE03F8003F8
FE0007E07F8003F8
FE0007F07F0003F8
FE0007F07F0003F8
FE0003F8FE0003F8
FE0003F8FE0003F8
FE0001F9FC0003F8
FE0001FDFC0003F8
FE0001FDFC0003F8
FE0000FFF80003F8
FE0000FFF80003F8
FE00007FF00003F8
FE00007FF00003F8
FE00003FF00003F8
FE00003FE00003F8
FE00003FE00003F8
FE00001FC00003F8
ENDCHAR
STARTCHAR 004E
ENCODING 78
SWIDTH 645 0
DWIDTH 62 0
BBX 48 55 7 0
BITMAP
FFE00000007F
FFF00000007F
FFF80000007F
FFF80000007F
FFFC0000007F
FFFC0000007F
FFFE0000007F
FFFF0000007F
FEFF0000007F
FE7F8000007F
FE7FC000007F
FE3FC000007F
FE3FE000007F
FE1FE000007F
FE0FF000007F
FE0FF800007F
FE07F800007F
FE03FC00007F
FE03FE00007F
FE01FE00007F
FE01FF00007F
FE00FF00007F
FE007F80007F
FE007FC0007F
FE003FC0007F
FE001FE0007F
FE001FF0007F
FE000FF0007F
FE000FF8007F
FE0007F8007F
FE0003FC007F
FE0003FE007F
FE0001FE007F
FE0000FF007F
FE0000FF807F
FE00007F807F
FE00007FC07F
FE00003FC07F
FE00001FE07F
FE00001FF07F
FE00000FF07F
FE000007F87F
FE000007FC7F
FE000003FC7F
FE000003FE7F
FE000001FE7F
FE000000FF7F
FE000000FFFF
FE0000007FFF
FE0000003FFF
FE0000003FFF
FE0000001FFF
FE0000001FFF
FE0000000FFF
FE00000007FF
ENDCHAR
STARTCHAR 004F
ENCODING 79
SWIDTH 583 0
DWIDTH 56 0
BBX 48 57 4 -1
BITMAP
000FFFFFE000
007FFFFFFE00
01FFFFFFFF80
07FFFFFFFFC0
0FFFFFFFFFE0
1FFFFFFFFFF0
1FFFFFFFFFF8
3FFC00001FFC
3FE0000003FC
7FC0000001FE
7F80000000FE
7F80000000FE
FF00000000FE
FF000000007F
FF000000007F
FE000000007F
FE000000007F
FE000000007F
FE000000007F
FE000000007F
FE000000007F
FE000000007F
FE000000007F
FE000000007F
FE000000007F
FE000000007F
FE000000007F
FE000000007F
FE000000007F
FE000000007F
FE000000007F
FE000000007F
FE000000007F
FE000000007F
FE000000007F
FE000000007F
FE000000007F
FE000000007F
FE000000007F
FE000000007F
FE000000007F
FE000000007F
FE00000000FF
7E00000000FF
7F00000000FF
7F00000001FE
7F00000001FE
3F80000003FE
3FC0000007FC
3FF800003FFC
1FFFFFFFFFF8
0FFFFFFFFFF8
07FFFFFFFFF0
03FFFFFFFFE0
01FFFFFFFF80
007FFFFFFE00
0007FFFFE000
ENDCHAR
STARTCHAR 0050
ENCODING 80
SWIDTH 541 0
DWIDTH 52 0
BBX 42 55 7 0
BITMAP
FFFFFFFF8000
FFFFFFFFF000
FFFFFFFFFC00
FFFFFFFFFE00
FFFFFFFFFE00
FFFFFFFFFF00
FFFFFFFFFF00
FE000001FF80
FE0000007F80
FE0000003F80
FE0000003F80
FE0000001FC0
FE0000001FC0
FE0000001FC0
FE0000001FC0
FE0000001FC0
FE0000001FC0
FE0000001FC0
FE0000001FC0
FE0000001FC0
FE0000001FC0
FE0000001FC0
FE0000001FC0
FE0000001FC0
FE0000003F80
FE0000007F80
FE000003FF80
FFFFFFFFFF00
FFFFFFFFFF00
FFFFFFFFFE00
FFFFFFFFFC00
FFFFFFFFF800
FFFFFFFFE000
FFFFFFFF8000
FE0000000000
FE0000000000
FE0000000000
FE0000000000
FE0000000000
FE0000000000
FE0000000000
FE0000000000
FE0000000000
FE0000000000
FE0000000000
FE0000000000
FE0000000000
FE0000000000
FE0000000000
FE0000000000
FE0000000000
FE0000000000
FE0000000000
FE0000000000
FE0000000000
ENDCHAR
STARTCHAR 0051
ENCODING 81
SWIDTH 583 0
DWIDTH 56 0
BBX 53 57 4 -1
BITMAP
000FFFFFE00000
007FFFFFFE0000
01FFFFFFFF8000
07FFFFFFFFC000
0FFFFFFFFFE000
1FFFFFFFFFF000
1FFFFFFFFFF800
3FFC00001FFC00
3FE0000003FC00
7FC0000001FE00
7F80000001FE00
7F80000000FE00
FF00000000FE00
FF000000007F00
FF000000007F00
FE000000007F00
FE000000007F00
FE000000007F00
FE000000007F00
FE000000007F00
FE000000007F00
FE000000007F00
FE000000007F00
FE000000007F00
FE000000007F00
FE000000007F00
FE000000007F00
FE000000007F00
FE000000007F00
FE000000007F00
FE000000007F00
FE000020007F00
FE000078007F00
FE00007C007F00
FE0000FF007F00
FE0001FF807F00
FE0001FFE07F00
FE0000FFF07F00
FE00003FFC7F00
FE00000FFE7F00
FE000007FFFF00
FE000001FFFF00
FE000000FFFF00
7E0000003FFF00
7F0000001FFF00
7F00000007FF00
7F00000001FFC0
3F80000001FFE0
3FC0000003FFF8
3FF800000FFFF8
1FFFFFFFFFFFF0
0FFFFFFFFFFBE0
07FFFFFFFFF1E0
03FFFFFFFFE040
01FFFFFFFF8000
007FFFFFFE0000
0007FFFFE00000
ENDCHAR
STARTCHAR 0052
ENCODING 82
SWIDTH 583 0
DWIDTH 56 0
BBX 44 55 7 0
BITMAP
FFFFFFFF8000
FFFFFFFFF800
FFFFFFFFFC00
FFFFFFFFFF00
FFFFFFFFFF80
FFFFFFFFFF80
FFFFFFFFFFC0
FE000000FFC0
FE0000003FE0
FE0000001FE0
FE0000001FE0
FE0000001FE0
FE0000000FF0
FE0000000FF0
FE0000000FF0
FE0000000FF0
FE0000000FF0
FE0000000FF0
FE0000000FF0
FE0000000FF0
FE0000000FE0
FE0000000FE0
FE0000001FE0
FE0000001FE0
FE0000003FE0
FE0000007FC0
FE000003FFC0
FFFFFFFFFF80
FFFFFFFFFF00
FFFFFFFFFE00
FFFFFFFFE000
FFFFFFFFFE00
FFFFFFFFFF00
FFFFFFFFFF80
FE000001FFC0
FE0000007FC0
FE0000003FC0
FE0000001FE0
FE0000001FE0
FE0000001FE0
FE0000001FE0
FE0000001FE0
FE0000000FE0
FE0000000FE0
FE0000000FE0
FE0000000FE0
FE0000000FE0
FE0000000FE0
FE0000000FE0
FE0000000FE0
FE0000000FE0
FE0000000FE0
FE0000000FE0
FE0000000FE0
FE0000000FE0
ENDCHAR
STARTCHAR 0053
ENCODING 83
SWIDTH 531 0
DWIDTH 51 0
BBX 43 57 4 -1
BITMAP
003FFFFE0000
01FFFFFFE000
07FFFFFFF800
0FFFFFFFFC00
1FFFFFFFFE00
3FFFFFFFFF00
3FFFFFFFFF00
7FF80003FF80
7FC00000FF80
7F8000007F80
FF0000003F80
FF0000003FC0
FE0000003FC0
FE0000003FC0
FE0000003FC0
FE0000003FC0
FE0000003FC0
FE0000000000
FE0000000000
FE0000000000
FE0000000000
FF0000000000
7F0000000000
7F8000000000
7FE000000000
3FFFFFFC0000
1FFFFFFFF000
0FFFFFFFFC00
07FFFFFFFE00
01FFFFFFFF00
007FFFFFFF80
0001FFFFFF80
0000001FFFC0
000000007FC0
000000001FC0
000000001FE0
000000000FE0
000000000FE0
FE0000000FE0
FE0000000FE0
FE0000000FE0
FE0000000FE0
FE0000000FE0
FE0000000FE0
FE0000000FE0
FE0000000FE0
FF0000001FE0
FF0000001FC0
7F8000003FC0
7FE00001FFC0
7FFFFFFFFFC0
3FFFFFFFFF80
1FFFFFFFFF80
0FFFFFFFFF00
07FFFFFFFC00
01FFFFFFF800
003FFFFFC000
ENDCHAR
STARTCHAR 0054
ENCODING 84
SWIDTH 489 0
DWIDTH 47 0
BBX 43 55 2 0
BITMAP
FFFFFFFFFFE0
FFFFFFFFFFE0
FFFFFFFFFFE0
FFFFFFFFFFE0
FFFFFFFFFFE0
FFFFFFFFFFE0
FFFFFFFFFFE0
00003F800000
00003F800000
00003F800000
00003F800000
00003F800000
00003F800000
00003F800000
00003F800000
00003F800000
00003F800000
00003F800000
00003F800000
00003F800000
00003F800000
00003F800000
00003F800000
00003F800000
00003F800000
00003F800000
00003F800000
00003F800000
00003F800000
00003F800000
00003F800000
00003F800000
00003F800000
00003F800000
00003F800000
00003F800000
00003F800000
00003F800000
00003F800000
00003F800000
00003F800000
00003F800000
00003F800000
00003F800000
00003F800000
00003F800000
00003F800000
00003F800000
00003F800000
00003F800000
00003F800000
00003F800000
00003F800000
00003F800000
00003F800000
ENDCHAR
STARTCHAR 0055
ENCODING 85
SWIDTH 604 0
DWIDTH 58 0
BBX 44 56 7 -1
BITMAP
FE00000007F0
FE00000007F0
FE00000007F0
FE00000007F0
FE00000007F0
FE00000007F0
FE00000007F0
FE00000007F0
FE00000007F0
FE00000007F0
FE00000007F0
FE00000007F0
FE00000007F0
FE00000007F0
FE00000007F0
FE00000007F0
FE00000007F0
FE00000007F0
FE00000007F0
FE00000007F0
FE00000007F0
FE00000007F0
FE00000007F0
FE00000007F0
FE00000007F0
FE00000007F0
FE00000007F0
FE00000007F0
FE00000007F0
FE00000007F0
FE00000007F0
FE00000007F0
FE00000007F0
FE00000007F0
FE00000007F0
FE00000007F0
FE00000007F0
FE00000007F0
FE00000007F0
FE00000007F0
FE00000007F0
FE00000007F0
FE00000007F0
FE00000007F0
FF00000007F0
7F0000000FE0
7F8000000FE0
7FC000001FE0
7FF80000FFE0
3FFFFFFFFFC0
1FFFFFFFFF80
1FFFFFFFFF80
0FFFFFFFFF00
03FFFFFFFC00
00FFFFFFF000
000FFFFF8000
ENDCHAR
STARTCHAR 0056
ENCODING 86
SWIDTH 531 0
DWIDTH 51 0
BBX 50 55 1 0
BITMAP
FF000000003FC0
FF000000007F80
7F800000007F80
7F80000000FF00
7F80000000FF00
3FC0000000FF00
3FC0000001FE00
3FC0000001FE00
1FE0000001FE00
1FE0000003FC00
0FE0000003FC00
0FF0000003FC00
0FF0000007F800
07F8000007F800
07F8000007F000
07F800000FF000
03FC00000FF000
03FC00001FE000
03FC00001FE000
01FE00001FE000
01FE00003FC000
00FE00003FC000
00FF00003FC000
00FF00007F8000
007F80007F8000
007F80007F0000
007F8000FF0000
003FC000FF0000
003FC001FE0000
001FC001FE0000
001FE001FE0000
001FE003FC0000
000FF003FC0000
000FF003FC0000
000FF007F80000
0007F807F80000
0007F807F00000
0007F80FF00000
0003FC0FF00000
0003FC0FE00000
0001FC1FE00000
0001FE1FE00000
0001FE3FC00000
0000FF3FC00000
0000FF3FC00000
0000FF7F800000
00007FFF800000
00007FFF000000
00003FFF000000
00003FFF000000
00003FFE000000
00001FFE000000
00001FFE000000
00001FFC000000
00000FFC000000
ENDCHAR
STARTCHAR 0057
ENCODING 87
SWIDTH 875 0
DWIDTH 84 0
BBX 83 55 1 0
BITMAP
FF0000000FFC0000001FE0
FF0000000FFE0000003FC0
FF0000001FFE0000003FC0
7F0000001FFE0000003FC0
7F8000001FFE0000003F80
7F8000003FFF0000007F80
3F8000003FFF0000007F80
3FC000003FFF0000007F00
3FC000003FFF800000FF00
1FC000007F3F800000FF00
1FE000007F3F800000FE00
1FE000007F3F800001FE00
0FE00000FF1FC00001FE00
0FE00000FE1FC00001FC00
0FF00000FE1FC00003FC00
07F00001FE1FE00003FC00
07F00001FC0FE00003FC00
07F80001FC0FE00003F800
07F80001FC0FF00007F800
03F80003F807F00007F800
03FC0003F807F00007F000
03FC0003F807F0000FF000
01FC0007F807F8000FF000
01FE0007F003F8000FE000
01FE0007F003F8001FE000
00FE000FF003FC001FE000
00FE000FE001FC001FC000
00FF000FE001FC003FC000
007F000FE001FE003FC000
007F001FE000FE003F8000
007F801FC000FE003F8000
003F801FC000FE007F8000
003F803FC000FF007F0000
003FC03F80007F007F0000
003FC03F80007F00FF0000
001FC07F80007F80FE0000
001FC07F00003F80FE0000
001FE07F00003F81FE0000
000FE07F00003FC1FC0000
000FE0FF00003FC1FC0000
000FF0FE00001FC3FC0000
0007F0FE00001FC3F80000
0007F1FE00001FE3F80000
0007F9FC00000FE7F80000
0003F9FC00000FE7F80000
0003FBFC00000FF7F00000
0003FBF800000FF7F00000
0001FFF8000007FFF00000
0001FFF8000007FFE00000
0001FFF8000007FFE00000
0001FFF0000003FFE00000
0000FFF0000003FFC00000
0000FFF0000003FFC00000
0000FFE0000003FFC00000
00007FE0000001FF800000
ENDCHAR
STARTCHAR 0058
ENCODING 88
SWIDTH 541 0
DWIDTH 52 0
BBX 51 55 0 0
BITMAP
3FE00000007FC0
1FF0000000FF80
1FF0000000FF80
0FF8000001FF00
07FC000003FE00
07FE000003FE00
03FE000007FC00
01FF00000FF800
00FF80000FF000
00FF80001FF000
007FC0003FE000
003FE0007FC000
003FE0007FC000
001FF000FF8000
000FF801FF0000
0007FC01FF0000
0007FC03FE0000
0003FE07FC0000
0001FF07FC0000
0001FF0FF80000
0000FF9FF00000
00007FDFF00000
00007FFFE00000
00003FFFC00000
00001FFF800000
00000FFF800000
00000FFF000000
00000FFF800000
00001FFF800000
00003FFFC00000
00003FFFE00000
00007FFFE00000
0000FF9FF00000
0001FF8FF80000
0001FF0FF80000
0003FE07FC0000
0007FC03FE0000
0007FC01FF0000
000FF801FF0000
001FF000FF8000
003FF0007FC000
003FE0007FC000
007FC0003FE000
00FF80001FF000
00FF80001FF000
01FF00000FF800
03FE000007FC00
07FE000007FC00
07FC000003FE00
0FF8000001FF00
1FF0000000FF80
1FF0000000FF80
3FE00000007FC0
7FC00000003FE0
FFC00000003FE0
ENDCHAR
STARTCHAR 0059
ENCODING 89
SWIDTH 520 0
DWIDTH 50 0
BBX 49 55 0 0
BITMAP
FF80000000FF80
7FC0000000FF80
3FC0000001FF00
3FE0000003FE00
1FF0000003FE00
0FF0000007FC00
0FF800000FF800
07FC00000FF800
03FC00001FF000
03FE00003FE000
01FF00003FE000
00FF00007FC000
00FF8000FF8000
007FC000FF0000
007FC001FF0000
003FE003FE0000
001FF003FC0000
001FF007FC0000
000FF80FF80000
0007FC0FF00000
0007FC1FF00000
0003FE3FE00000
0001FF3FC00000
0001FF7FC00000
0000FFFF800000
00007FFF000000
00007FFF000000
00003FFE000000
00001FFC000000
00001FFC000000
00000FF8000000
000007F0000000
000007F0000000
000007F0000000
000007F0000000
000007F0000000
000007F0000000
000007F0000000
000007F0000000
000007F0000000
000007F0000000
000007F0000000
000007F0000000
000007F0000000
000007F0000000
000007F0000000
000007F0000000
000007F0000000
000007F0000000
000007F0000000
000007F0000000
000007F0000000
000007F0000000
000007F0000000
000007F0000000
ENDCHAR
STARTCHAR 005A
ENCODING 90
SWIDTH 520 0
DWIDTH 50 0
BBX 45 55 3 0
BITMAP
7FFFFFFFFFF0
7FFFFFFFFFF0
7FFFFFFFFFF0
7FFFFFFFFFF0
7FFFFFFFFFF0
7FFFFFFFFFF0
7FFFFFFFFFF0
000000003FE0
000000007FC0
00000000FF80
00000001FF00
00000001FE00
00000003FE00
00000007FC00
0000000FF800
0000001FF000
0000003FE000
0000003FC000
0000007FC000
000000FF8000
000001FF0000
000003FE0000
000003FC0000
000007FC0000
00000FF80000
00001FF00000
00003FE00000
00007FC00000
00007F800000
0000FF800000
0001FF000000
0003FE000000
0007FC000000
000FF8000000
000FF0000000
001FF0000000
003FE0000000
007FC0000000
00FF80000000
00FF00000000
01FF00000000
03FE00000000
07FC00000000
0FF800000000
1FF000000000
1FE000000000
3FE000000000
7FC000000000
FFFFFFFFFFF8
FFFFFFFFFFF8
FFFFFFFFFFF8
FFFFFFFFFFF8
FFFFFFFFFFF8
FFFFFFFFFFF8
FFFFFFFFFFF8
ENDCHAR
STARTCHAR 005B
ENCODING 91
SWIDTH 333 0
DWIDTH 32 0
BBX 18 87 8 -17
BITMAP
FFFFC0
FFFFC0
FFFFC0
FFFFC0
FFFFC0
FFFFC0
FF0000
FF0000
FF0000
FF0000
FF0000
FF0000
FF0000
FF0000
FF0000
FF0000
FF0000
FF0000
FF0000
FF0000
FF0000
FF0000
FF0000
FF0000
FF0000
FF0000
FF0000
FF0000
FF0000
FF0000
FF0000
FF0000
FF0000
FF0000
FF0000
FF0000
FF0000
FF0000
FF0000
FF0000
FF0000
FF0000
FF0000
FF0000
FF0000
FF0000
FF0000
FF0000
FF0000
FF0000
FF0000
FF0000
FF0000
FF0000
FF0000
FF0000
FF0000
FF0000
FF0000
FF0000
FF0000
FF0000
FF0000
FF0000
FF0000
FF0000
FF0000
FF0000
FF0000
FF0000
FF0000
FF0000
FF0000
FF0000
FF0000
FF0000
FF0000
FF0000
FF0000
FF0000
FF0000
FFFFC0
FFFFC0
FFFFC0
FFFFC0
FFFFC0
FFFFC0
ENDCHAR
STARTCHAR 005C
ENCODING 92
SWIDTH 593 0
DWIDTH 57 0
BBX 55 73 1 -9
BITMAP
FC000000000000
7E000000000000
7E000000000000
3F000000000000
1F800000000000
1FC00000000000
0FC00000000000
07E00000000000
07F00000000000
03F00000000000
01F80000000000
01FC0000000000
00FC0000000000
007E0000000000
007F0000000000
003F0000000000
001F8000000000
001FC000000000
000FC000000000
0007E000000000
0003F000000000
0003F000000000
0001F800000000
0000FC00000000
0000FC00000000
00007E00000000
00003F00000000
00003F00000000
00001F80000000
00000FC0000000
00000FC0000000
000007E0000000
000003F0000000
000003F0000000
000001F8000000
000000FC000000
000000FE000000
0000007E000000
0000003F000000
0000003F800000
0000001F800000
0000000FC00000
0000000FE00000
00000007E00000
00000003F00000
00000003F80000
00000001F80000
00000000FC0000
00000000FE0000
000000007E0000
000000003F0000
000000003F8000
000000001F8000
000000000FC000
0000000007E000
0000000007E000
0000000003F000
0000000001F800
0000000001F800
0000000000FC00
00000000007E00
00000000007E00
00000000003F00
00000000001F80
00000000001F80
00000000000FC0
000000000007E0
000000000007E0
000000000003F0
000000000001F8
000000000001FC
000000000000FC
0000000000007E
ENDCHAR
STARTCHAR 005D
ENCODING 93
SWIDTH 333 0
DWIDTH 32 0
BBX 19 87 5 -17
BITMAP
FFFFE0
FFFFE0
FFFFE0
FFFFE0
FFFFE0
FFFFE0
001FE0
001FE0
001FE0
001FE0
001FE0
001FE0
001FE0
001FE0
001FE0
001FE0
001FE0
001FE0
001FE0
001FE0
001FE0
001FE0
001FE0
001FE0
001FE0
001FE0
001FE0
001FE0
001FE0
001FE0
001FE0
001FE0
001FE0
001FE0
001FE0
001FE0
001FE0
001FE0
001FE0
001FE0
001FE0
001FE0
001FE0
001FE0
001FE0
001FE0
001FE0
001FE0
001FE0
001FE0
001FE0
001FE0
001FE0
001FE0
001FE0
001FE0
001FE0
001FE0
001FE0
001FE0
001FE0
001FE0
001FE0
001FE0
001FE0
001FE0
001FE0
001FE0
001FE0
001FE0
001FE0
001FE0
001FE0
001FE0
001FE0
001FE0
001FE0
001FE0
001FE0
001FE0
001FE0
FFFFE0
FFFFE0
FFFFE0
FFFFE0
FFFFE0
FFFFE0
ENDCHAR
STARTCHAR 005E
ENCODING 94
SWIDTH 500 0
DWIDTH 48 0
BBX 42 28 3 36
BITMAP
0000FFC00000
0000FFC00000
0001FFE00000
0001FFE00000
0003FFF00000
0007FFF80000
0007F3F80000
000FF3FC0000
000FE1FC0000
001FC0FE0000
003FC0FF0000
003F807F0000
007F807F8000
007F003F8000
00FE001FC000
01FE001FE000
01FC000FE000
03FC000FF000
03F80007F000
07F00003F800
0FF00003FC00
0FE00001FC00
1FE00001FE00
1FC00000FE00
3F8000007F00
7F8000007F80
7F0000003F80
FE0000001FC0
ENDCHAR
STARTCHAR 005F
ENCODING 95
SWIDTH 500 0
DWIDTH 48 0
BBX 48 5 0 -12
BITMAP
FFFFFFFFFFFF
FFFFFFFFFFFF
FFFFFFFFFFFF
FFFFFFFFFFFF
FFFFFFFFFFFF
ENDCHAR
STARTCHAR 0060
ENCODING 96
SWIDTH 500 0
DWIDTH 48 0
BBX 18 14 12 62
BITMAP
180000
3C0000
3F0000
7F8000
FFC000
7FF000
1FF800
0FFC00
03FF00
01FF80
007FC0
001FC0
000F80
000300
ENDCHAR
STARTCHAR 0061
ENCODING 97
SWIDTH 552 0
DWIDTH 53 0
BBX 51 55 1 0
BITMAP
000007FC000000
00000FFE000000
00000FFE000000
00001FFF000000
00001FFF000000
00001FFF000000
00003FFF800000
00003FFF800000
00003FBF800000
00007FBFC00000
00007FBFC00000
0000FF1FE00000
0000FF1FE00000
0000FF0FE00000
0001FE0FF00000
0001FE0FF00000
0003FE07F80000
0003FC07F80000
0003FC07F80000
0007F803FC0000
0007F803FC0000
0007F801FE0000
000FF001FE0000
000FF001FE0000
001FF000FF0000
001FE000FF0000
001FE000FF0000
003FC0007F8000
003FC0007F8000
003FC0003FC000
007F80003FC000
007F80003FC000
00FF80001FE000
00FF00001FE000
00FF00001FF000
01FF00000FF000
01FE00000FF000
01FE000007F800
03FFFFFFFFF800
03FFFFFFFFF800
07FFFFFFFFFC00
07FFFFFFFFFC00
07FFFFFFFFFE00
0FFFFFFFFFFE00
0FF0000001FE00
0FF0000000FF00
1FE0000000FF00
1FE00000007F80
3FC00000007F80
3FC00000007F80
3FC00000003FC0
7F800000003FC0
7F800000001FC0
FF000000001FE0
FF000000001FE0
ENDCHAR
STARTCHAR 0062
ENCODING 98
SWIDTH 572 0
DWIDTH 55 0
BBX 44 55 7 0
BITMAP
FFFFFFFF8000
FFFFFFFFF000
FFFFFFFFFC00
FFFFFFFFFE00
FFFFFFFFFF00
FFFFFFFFFF00
FFFFFFFFFF80
FE000001FF80
FE0000007F80
FE0000003FC0
FE0000003FC0
FE0000001FC0
FE0000001FC0
FE0000001FC0
FE0000001FC0
FE0000001FC0
FE0000001FC0
FE0000001FC0
FE0000001FC0
FE0000001FC0
FE0000003F80
FE0000003F80
FE0000007F80
FE000003FF00
FFFFFFFFFF00
FFFFFFFFFC00
FFFFFFFFF000
FFFFFFFFFC00
FFFFFFFFFF00
FFFFFFFFFF80
FFFFFFFFFFC0
FE0000007FE0
FE0000001FE0
FE0000000FE0
FE0000000FF0
FE00000007F0
FE00000007F0
FE00000007F0
FE00000007F0
FE00000007F0
FE00000007F0
FE00000007F0
FE00000007F0
FE00000007F0
FE0000000FF0
FE0000000FE0
FE0000001FE0
FE000000FFE0
FFFFFFFFFFC0
FFFFFFFFFFC0
FFFFFFFFFF80
FFFFFFFFFF00
FFFFFFFFFE00
FFFFFFFFF800
FFFFFFFFC000
ENDCHAR
STARTCHAR 0063
ENCODING 99
SWIDTH 562 0
DWIDTH 54 0
BBX 46 55 4 0
BITMAP
0003FFFFF000
003FFFFFFE00
01FFFFFFFF80
03FFFFFFFFC0
07FFFFFFFFE0
0FFFFFFFFFF0
1FFFFFFFFFF0
3FFE00003FF8
3FE0000007F8
7FC0000007F8
7F80000003FC
7F80000003FC
7F80000003FC
FF00000001FC
FF00000001FC
FF00000001FC
FF00000001FC
FF00000001FC
FF0000000000
FF0000000000
FF0000000000
FF0000000000
FF0000000000
FF0000000000
FF0000000000
FF0000000000
FF0000000000
FF0000000000
FF0000000000
FF0000000000
FF0000000000
FF0000000000
FF0000000000
FF0000000000
FF0000000000
FF0000000000
FF00000001FC
FF00000001FC
FF00000001FC
FF80000001FC
7F80000001FC
7F80000001FC
7F80000001FC
7F80000001FC
7FC0000003FC
3FC0000003FC
3FF0000007FC
3FFC00003FF8
1FFFFFFFFFF8
0FFFFFFFFFF8
07FFFFFFFFF0
03FFFFFFFFE0
01FFFFFFFFC0
007FFFFFFF00
000FFFFFF000
ENDCHAR
STARTCHAR 0064
ENCODING 100
SWIDTH 604 0
DWIDTH 58 0
BBX 47 55 7 0
BITMAP
FFFFFFFF8000
FFFFFFFFF800
FFFFFFFFFE00
FFFFFFFFFF80
FFFFFFFFFFC0
FFFFFFFFFFE0
FFFFFFFFFFE0
FE000000FFF0
FE0000001FF0
FE00000007F8
FE00000007F8
FE00000003FC
FE00000001FC
FE00000001FC
FE00000001FC
FE00000001FC
FE00000000FE
FE00000000FE
FE00000000FE
FE00000000FE
FE00000000FE
FE00000000FE
FE00000000FE
FE00000000FE
FE00000000FE
FE00000000FE
FE00000000FE
FE00000000FE
FE00000000FE
FE00000000FE
FE00000000FE
FE00000000FE
FE00000000FE
FE00000000FE
FE00000000FE
FE00000000FE
FE00000000FE
FE00000000FE
FE00000001FE
FE00000001FC
FE00000001FC
FE00000001FC
FE00000003FC
FE00000003FC
FE00000007F8
FE0000000FF8
FE0000001FF0
FE000001FFF0
FFFFFFFFFFE0
FFFFFFFFFFE0
FFFFFFFFFFC0
FFFFFFFFFF80
FFFFFFFFFE00
FFFFFFFFF800
FFFFFFFF8000
ENDCHAR
STARTCHAR 0065
ENCODING 101
SWIDTH 510 0
DWIDTH 49 0
BBX 37 55 7 0
BITMAP
FFFFFFFFF8
FFFFFFFFF8
FFFFFFFFF8
FFFFFFFFF8
FFFFFFFFF8
FFFFFFFFF8
FFFFFFFFF8
FE00000000
FE00000000
FE00000000
FE00000000
FE00000000
FE00000000
FE00000000
FE00000000
FE00000000
FE00000000
FE00000000
FE00000000
FE00000000
FE00000000
FE00000000
FE00000000
FFFFFFFFF0
FFFFFFFFF0
FFFFFFFFF0
FFFFFFFFF0
FFFFFFFFF0
FFFFFFFFF0
FFFFFFFFF0
FE00000000
FE00000000
FE00000000
FE00000000
FE00000000
FE00000000
FE00000000
FE00000000
FE00000000
FE00000000
FE00000000
FE00000000
FE00000000
FE00000000
FE00000000
FE00000000
FE00000000
FE00000000
FFFFFFFFF8
FFFFFFFFF8
FFFFFFFFF8
FFFFFFFFF8
FFFFFFFFF8
FFFFFFFFF8
FFFFFFFFF8
ENDCHAR
STARTCHAR 0066
ENCODING 102
SWIDTH 468 0
DWIDTH 45 0
BBX 35 55 7 0
BITMAP
FFFFFFFFE0
FFFFFFFFE0
FFFFFFFFE0
FFFFFFFFE0
FFFFFFFFE0
FFFFFFFFE0
FFFFFFFFE0
FE00000000
FE00000000
FE00000000
FE00000000
FE00000000
FE00000000
FE00000000
FE00000000
FE00000000
FE00000000
FE00000000
FE00000000
FE00000000
FE00000000
FE00000000
FE00000000
FE00000000
FFFFFFFFE0
FFFFFFFFE0
FFFFFFFFE0
FFFFFFFFE0
FFFFFFFFE0
FFFFFFFFE0
FFFFFFFFE0
FE00000000
FE00000000
FE00000000
FE00000000
FE00000000
FE00000000
FE00000000
FE00000000
FE00000000
FE00000000
FE00000000
FE00000000
FE00000000
FE00000000
FE00000000
FE00000000
FE00000000
FE00000000
FE00000000
FE00000000
FE00000000
FE00000000
FE00000000
FE00000000
ENDCHAR
STARTCHAR 0067
ENCODING 103
SWIDTH 583 0
DWIDTH 56 0
BBX 48 55 4 0
BITMAP
000FFFFFF800
007FFFFFFF00
01FFFFFFFFC0
07FFFFFFFFF0
0FFFFFFFFFF8
0FFFFFFFFFF8
1FFFFFFFFFFC
3FFC00001FFC
3FC0000003FE
3F80000001FE
7F80000001FE
7F00000000FE
7F00000000FE
7F00000000FE
FE00000000FE
FE00000000FE
FE00000000FE
FE0000000000
FE0000000000
FE0000000000
FE0000000000
FE0000000000
FE0000000000
FE0000000000
FE0000000000
FE0000000000
FE0000000000
FE0001FFFFFE
FE0001FFFFFF
FE0001FFFFFF
FE0001FFFFFF
FE0001FFFFFF
FE0001FFFFFF
FE0001FFFFFF
FE00000000FF
FE000000007F
FE000000007F
FE000000007F
FE000000007F
FE000000007F
FE000000007F
FE000000007F
FF000000007F
7F00000000FF
7F80000000FE
7F80000000FE
3FE0000001FE
3FFC00001FFE
1FFFFFFFFFFC
1FFFFFFFFFF8
0FFFFFFFFFF8
03FFFFFFFFF0
01FFFFFFFFC0
007FFFFFFF00
0003FFFFF000
ENDCHAR
STARTCHAR 0068
ENCODING 104
SWIDTH 625 0
DWIDTH 60 0
BBX 46 55 7 0
BITMAP
FE00000001FC
FE00000001FC
FE00000001FC
FE00000001FC
FE00000001FC
FE00000001FC
FE00000001FC
FE00000001FC
FE00000001FC
FE00000001FC
FE00000001FC
FE00000001FC
FE00000001FC
FE00000001FC
FE00000001FC
FE00000001FC
FE00000001FC
FE00000001FC
FE00000001FC
FE00000001FC
FE00000001FC
FE00000001FC
FE00000001FC
FE00000001FC
FFFFFFFFFFFC
FFFFFFFFFFFC
FFFFFFFFFFFC
FFFFFFFFFFFC
FFFFFFFFFFFC
FFFFFFFFFFFC
FFFFFFFFFFFC
FE00000001FC
FE00000001FC
FE00000001FC
FE00000001FC
FE00000001FC
FE00000001FC
FE00000001FC
FE00000001FC
FE00000001FC
FE00000001FC
FE00000001FC
FE00000001FC
FE00000001FC
FE00000001FC
FE00000001FC
FE00000001FC
FE00000001FC
FE00000001FC
FE00000001FC
FE00000001FC
FE00000001FC
FE00000001FC
FE00000001FC
FE00000001FC
ENDCHAR
STARTCHAR 0069
ENCODING 105
SWIDTH 218 0
DWIDTH 21 0
BBX 7 55 7 0
BITMAP
FE
FE
FE
FE
FE
FE
FE
FE
FE
FE
FE
FE
FE
FE
FE
FE
FE
FE
FE
FE
FE
FE
FE
FE
FE
FE
FE
FE
FE
FE
FE
FE
FE
FE
FE
FE
FE
FE
FE
FE
FE
FE
FE
FE
FE
FE
FE
FE
FE
FE
FE
FE
FE
FE
FE
ENDCHAR
STARTCHAR 006A
ENCODING 106
SWIDTH 468 0
DWIDTH 45 0
BBX 36 55 3 0
BITMAP
00000007F0
00000007F0
00000007F0
00000007F0
00000007F0
00000007F0
00000007F0
00000007F0
00000007F0
00000007F0
00000007F0
00000007F0
00000007F0
00000007F0
00000007F0
00000007F0
00000007F0
00000007F0
00000007F0
00000007F0
00000007F0
00000007F0
00000007F0
00000007F0
00000007F0
00000007F0
00000007F0
00000007F0
00000007F0
00000007F0
00000007F0
00000007F0
00000007F0
00000007F0
7F000007F0
FE000007F0
FE000007F0
FE000007F0
FE000007F0
FE000007F0
FE000007F0
FE000007F0
FE000007F0
FE00000FF0
FE00000FF0
FF00000FF0
FF80001FE0
7FE0007FE0
7FFFFFFFC0
3FFFFFFFC0
3FFFFFFF80
1FFFFFFF00
07FFFFFE00
01FFFFF800
001FFF8000
ENDCHAR
STARTCHAR 006B
ENCODING 107
SWIDTH 562 0
DWIDTH 54 0
BBX 47 55 7 0
BITMAP
FE0000003FF0
FE0000007FE0
FE000000FFC0
FE000001FF80
FE000003FF00
FE000007FE00
FE00000FFC00
FE00001FF800
FE00003FF000
FE00007FE000
FE0000FFC000
FE0001FF8000
FE0003FF0000
FE0007FE0000
FE000FFC0000
FE001FF80000
FE003FF00000
FE007FE00000
FE00FFC00000
FE01FF800000
FE03FF000000
FE07FE000000
FE0FFC000000
FFFFF8000000
FFFFF0000000
FFFFE0000000
FFFFE0000000
FFFFF0000000
FFFFF8000000
FFFFFC000000
FE0FFE000000
FE07FF000000
FE03FF800000
FE01FFC00000
FE00FFE00000
FE007FF00000
FE001FF80000
FE000FFC0000
FE0007FE0000
FE0003FF0000
FE0001FF8000
FE0000FFC000
FE00007FE000
FE00003FF000
FE00001FF800
FE00000FFC00
FE000007FE00
FE000003FF00
FE000001FF80
FE000000FFC0
FE0000007FE0
FE0000003FF0
FE0000001FF8
FE0000000FFC
FE00000007FE
ENDCHAR
STARTCHAR 006C
ENCODING 108
SWIDTH 468 0
DWIDTH 45 0
BBX 36 55 7 0
BITMAP
FE00000000
FE00000000
FE00000000
FE00000000
FE00000000
FE00000000
FE00000000
FE00000000
FE00000000
FE00000000
FE00000000
FE00000000
FE00000000
FE00000000
FE00000000
FE00000000
FE00000000
FE00000000
FE00000000
FE00000000
FE00000000
FE00000000
FE00000000
FE00000000
FE00000000
FE00000000
FE00000000
FE00000000
FE00000000
FE00000000
FE00000000
FE00000000
FE00000000
FE00000000
FE00000000
FE00000000
FE00000000
FE00000000
FE00000000
FE00000000
FE00000000
FE00000000
FE00000000
FE00000000
FE00000000
FE00000000
FE00000000
FE00000000
FFFFFFFFF0
FFFFFFFFF0
FFFFFFFFF0
FFFFFFFFF0
FFFFFFFFF0
FFFFFFFFF0
FFFFFFFFF0
ENDCHAR
STARTCHAR 006D
ENCODING 109
SWIDTH 781 0
DWIDTH 75 0
BBX 61 55 7 0
BITMAP
FFE0000000007FF8
FFF0000000007FF8
FFF0000000007FF8
FFF800000000FFF8
FFF800000000FFF8
FFF800000001FFF8
FFFC00000001FFF8
FFFC00000001FFF8
FEFE00000003FBF8
FEFE00000003FBF8
FEFF00000007FBF8
FE7F00000007F3F8
FE7F00000007F3F8
FE3F8000000FE3F8
FE3F8000000FE3F8
FE1FC000001FC3F8
FE1FC000001FC3F8
FE1FC000003FC3F8
FE0FE000003F83F8
FE0FE000003F83F8
FE07F000007F03F8
FE07F000007F03F8
FE07F00000FF03F8
FE03F80000FE03F8
FE03F80000FE03F8
FE01FC0001FC03F8
FE01FC0001FC03F8
FE00FC0003FC03F8
FE00FE0003F803F8
FE00FE0003F803F8
FE007F0007F003F8
FE007F0007F003F8
FE003F800FE003F8
FE003F800FE003F8
FE003F800FE003F8
FE001FC01FC003F8
FE001FC01FC003F8
FE000FE03F8003F8
FE000FE03F8003F8
FE0007E07F8003F8
FE0007F07F0003F8
FE0007F07F0003F8
FE0003F8FE0003F8
FE0003F8FE0003F8
FE0001F9FC0003F8
FE0001FDFC0003F8
FE0001FDFC0003F8
FE0000FFF80003F8
FE0000FFF80003F8
FE00007FF00003F8
FE00007FF00003F8
FE00003FF00003F8
FE00003FE00003F8
FE00003FE00003F8
FE00001FC00003F8
ENDCHAR
STARTCHAR 006E
ENCODING 110
SWIDTH 645 0
DWIDTH 62 0
BBX 48 55 7 0
BITMAP
FFE00000007F
FFE00000007F
FFF00000007F
FFF80000007F
FFF80000007F
FFFC0000007F
FFFE0000007F
FFFE0000007F
FEFF0000007F
FE7F8000007F
FE7F8000007F
FE3FC000007F
FE1FC000007F
FE1FE000007F
FE0FF000007F
FE0FF000007F
FE07F800007F
FE03FC00007F
FE03FC00007F
FE01FE00007F
FE00FF00007F
FE00FF00007F
FE007F80007F
FE007F80007F
FE003FC0007F
FE001FE0007F
FE001FE0007F
FE000FF0007F
FE0007F8007F
FE0007F8007F
FE0003FC007F
FE0001FC007F
FE0001FE007F
FE0000FF007F
FE0000FF007F
FE00007F807F
FE00003FC07F
FE00003FC07F
FE00001FE07F
FE00000FF07F
FE00000FF07F
FE000007F87F
FE000003F87F
FE000003FC7F
FE000001FE7F
FE000001FE7F
FE000000FF7F
FE0000007FFF
FE0000007FFF
FE0000003FFF
FE0000001FFF
FE0000001FFF
FE0000000FFF
FE0000000FFF
FE00000007FF
ENDCHAR
STARTCHAR 006F
ENCODING 111
SWIDTH 593 0
DWIDTH 57 0
BBX 49 55 4 0
BITMAP
0003FFFFE00000
007FFFFFFE0000
01FFFFFFFFC000
03FFFFFFFFE000
07FFFFFFFFF000
0FFFFFFFFFF800
1FFFFFFFFFFC00
1FFC00001FFC00
3FE0000003FE00
3FC0000001FE00
7F80000000FF00
7F80000000FF00
7F800000007F00
7F000000007F00
FF000000007F80
FF000000007F80
FF000000007F80
FF000000007F80
FF000000007F80
FF000000007F80
FF000000007F80
FF000000007F80
FF000000007F80
FF000000007F80
FF000000007F80
FF000000007F80
FF000000007F80
FF000000007F80
FF000000007F80
FF000000007F80
FF000000007F80
FF000000007F80
FF000000007F80
FF000000007F80
FF000000007F80
FF000000007F80
FF000000007F80
FF000000007F80
FF000000007F80
FF000000007F80
FF000000007F80
7F000000007F00
7F800000007F00
7F80000000FF00
7F80000000FF00
3FC0000001FE00
3FE0000003FE00
3FFC00001FFE00
1FFFFFFFFFFC00
0FFFFFFFFFF800
07FFFFFFFFF800
03FFFFFFFFE000
01FFFFFFFFC000
007FFFFFFF0000
0007FFFFE00000
ENDCHAR
STARTCHAR 0070
ENCODING 112
SWIDTH 552 0
DWIDTH 53 0
BBX 42 55 7 0
BITMAP
FFFFFFFF8000
FFFFFFFFF000
FFFFFFFFF800
FFFFFFFFFC00
FFFFFFFFFE00
FFFFFFFFFF00
FFFFFFFFFF00
FE000001FF80
FE0000007F80
FE0000003F80
FE0000003F80
FE0000001FC0
FE0000001FC0
FE0000001FC0
FE0000001FC0
FE0000001FC0
FE0000001FC0
FE0000001FC0
FE0000001FC0
FE0000001FC0
FE0000001FC0
FE0000001FC0
FE0000001FC0
FE0000003FC0
FE0000003F80
FE0000007F80
FE000003FF80
FFFFFFFFFF00
FFFFFFFFFF00
FFFFFFFFFE00
FFFFFFFFFC00
FFFFFFFFF800
FFFFFFFFF000
FFFFFFFF8000
FE0000000000
FE0000000000
FE0000000000
FE0000000000
FE0000000000
FE0000000000
FE0000000000
FE0000000000
FE0000000000
FE0000000000
FE0000000000
FE0000000000
FE0000000000
FE0000000000
FE0000000000
FE0000000000
FE0000000000
FE0000000000
FE0000000000
FE0000000000
FE0000000000
ENDCHAR
STARTCHAR 0071
ENCODING 113
SWIDTH 593 0
DWIDTH 57 0
BBX 53 55 4 0
BITMAP
0003FFFFE00000
007FFFFFFE0000
01FFFFFFFFC000
03FFFFFFFFE000
07FFFFFFFFF000
0FFFFFFFFFF800
1FFFFFFFFFFC00
1FFC00001FFC00
3FE0000003FE00
3FC0000001FE00
7F80000000FF00
7F80000000FF00
7F80000000FF00
7F000000007F00
FF000000007F80
FF000000007F80
FF000000007F80
FF000000007F80
FF000000007F80
FF000000007F80
FF000000007F80
FF000000007F80
FF000000007F80
FF000000007F80
FF000000007F80
FF000000007F80
FF000000007F80
FF000000007F80
FF000000007F80
FF000000007F80
FF000010007F80
FF000038007F80
FF00007E007F80
FF00007F007F80
FF0000FFC07F80
FF0000FFE07F80
FF00007FF87F80
FF00001FFC7F80
FF00000FFF7F80
FF000003FFFF80
FF000001FFFF80
7F0000007FFF00
7F8000003FFF00
7F8000000FFF00
7F80000007FF80
3FC0000001FFC0
3FE0000003FFF0
3FFC00000FFFF8
1FFFFFFFFFFFF8
0FFFFFFFFFFFF0
07FFFFFFFFF9F0
03FFFFFFFFE0E0
01FFFFFFFFC000
007FFFFFFF0000
0007FFFFF00000
ENDCHAR
STARTCHAR 0072
ENCODING 114
SWIDTH 583 0
DWIDTH 56 0
BBX 44 55 7 0
BITMAP
FFFFFFFF8000
FFFFFFFFF800
FFFFFFFFFE00
FFFFFFFFFF00
FFFFFFFFFF80
FFFFFFFFFFC0
FFFFFFFFFFC0
FE000000FFE0
FE0000001FE0
FE0000000FE0
FE0000000FF0
FE0000000FF0
FE00000007F0
FE00000007F0
FE00000007F0
FE00000007F0
FE00000007F0
FE00000007F0
FE00000007F0
FE00000007F0
FE00000007F0
FE00000007F0
FE0000000FF0
FE0000000FE0
FE0000001FE0
FE0000003FE0
FE000001FFC0
FFFFFFFFFFC0
FFFFFFFFFF80
FFFFFFFFFE00
FFFFFFFFF000
FFFFFFFFFE00
FFFFFFFFFF00
FFFFFFFFFF80
FE000001FFC0
FE0000007FC0
FE0000001FC0
FE0000001FE0
FE0000001FE0
FE0000000FE0
FE0000000FE0
FE0000000FE0
FE0000000FE0
FE0000000FE0
FE0000000FE0
FE0000000FE0
FE0000000FE0
FE0000000FE0
FE0000000FE0
FE0000000FE0
FE0000000FE0
FE0000000FE0
FE0000000FE0
FE0000000FE0
FE0000000FE0
ENDCHAR
STARTCHAR 0073
ENCODING 115
SWIDTH 531 0
DWIDTH 51 0
BBX 43 55 4 0
BITMAP
001FFFFE0000
01FFFFFFF000
07FFFFFFF800
0FFFFFFFFE00
1FFFFFFFFF00
3FFFFFFFFF00
3FFFFFFFFF80
7FF00001FF80
7FC000007FC0
7F8000003FC0
FF0000003FC0
FE0000001FC0
FE0000001FC0
FE0000001FC0
FE0000001FC0
FE0000001FC0
FE0000000000
FE0000000000
FE0000000000
FE0000000000
FF0000000000
7F0000000000
7FC000000000
7FF800000000
3FFFFFFE0000
1FFFFFFFF000
0FFFFFFFFC00
07FFFFFFFE00
01FFFFFFFF00
001FFFFFFF80
0000000FFFC0
000000003FC0
000000001FC0
000000001FE0
000000000FE0
000000000FE0
000000000FE0
FF0000000FE0
FF0000000FE0
FF0000000FE0
FF0000000FE0
FF0000000FE0
FF0000000FE0
FF0000000FE0
7F0000001FE0
7F8000001FC0
7FC000003FC0
7FF00001FFC0
3FFFFFFFFFC0
3FFFFFFFFF80
1FFFFFFFFF00
0FFFFFFFFE00
07FFFFFFFC00
01FFFFFFF000
003FFFFF0000
ENDCHAR
STARTCHAR 0074
ENCODING 116
SWIDTH 489 0
DWIDTH 47 0
BBX 43 55 2 0
BITMAP
FFFFFFFFFFE0
FFFFFFFFFFE0
FFFFFFFFFFE0
FFFFFFFFFFE0
FFFFFFFFFFE0
FFFFFFFFFFE0
FFFFFFFFFFE0
00003F800000
00003F800000
00003F800000
00003F800000
00003F800000
00003F800000
00003F800000
00003F800000
00003F800000
00003F800000
00003F800000
00003F800000
00003F800000
00003F800000
00003F800000
00003F800000
00003F800000
00003F800000
00003F800000
00003F800000
00003F800000
00003F800000
00003F800000
00003F800000
00003F800000
00003F800000
00003F800000
00003F800000
00003F800000
00003F800000
00003F800000
00003F800000
00003F800000
00003F800000
00003F800000
00003F800000
00003F800000
00003F800000
00003F800000
00003F800000
00003F800000
00003F800000
00003F800000
00003F800000
00003F800000
00003F800000
00003F800000
00003F800000
ENDCHAR
STARTCHAR 0075
ENCODING 117
SWIDTH 614 0
DWIDTH 59 0
BBX 45 55 7 0
BITMAP
FE00000003F8
FE00000003F8
FE00000003F8
FE00000003F8
FE00000003F8
FE00000003F8
FE00000003F8
FE00000003F8
FE00000003F8
FE00000003F8
FE00000003F8
FE00000003F8
FE00000003F8
FE00000003F8
FE00000003F8
FE00000003F8
FE00000003F8
FE00000003F8
FE00000003F8
FE00000003F8
FE00000003F8
FE00000003F8
FE00000003F8
FE00000003F8
FE00000003F8
FE00000003F8
FE00000003F8
FE00000003F8
FE00000003F8
FE00000003F8
FE00000003F8
FE00000003F8
FE00000003F8
FE00000003F8
FE00000003F8
FE00000003F8
FE00000003F8
FE00000003F8
FE00000003F8
FE00000003F8
FE00000003F8
FE00000003F8
FE00000003F8
FE00000007F8
FF00000007F8
7F00000007F0
7FC000001FF0
7FF00000FFF0
3FFFFFFFFFE0
3FFFFFFFFFE0
1FFFFFFFFFC0
0FFFFFFFFF80
03FFFFFFFE00
00FFFFFFF800
000FFFFF8000
ENDCHAR
STARTCHAR 0076
ENCODING 118
SWIDTH 531 0
DWIDTH 51 0
BBX 50 55 1 0
BITMAP
FF000000003FC0
FF000000007F80
7F800000007F80
7F80000000FF00
7F80000000FF00
3FC0000000FF00
3FC0000001FE00
3FC0000001FE00
1FE0000001FE00
1FE0000003FC00
0FE0000003FC00
0FF0000003FC00
0FF0000007F800
07F8000007F800
07F8000007F000
07F800000FF000
03FC00000FF000
03FC00001FE000
03FC00001FE000
01FE00001FE000
01FE00003FC000
00FE00003FC000
00FF00003FC000
00FF00007F8000
007F80007F8000
007F80007F0000
007F8000FF0000
003FC000FF0000
003FC001FE0000
001FC001FE0000
001FE001FE0000
001FE003FC0000
000FF003FC0000
000FF003FC0000
000FF007F80000
0007F807F80000
0007F807F00000
0007F80FF00000
0003FC0FF00000
0003FC0FE00000
0001FC1FE00000
0001FE1FE00000
0001FE3FC00000
0000FF3FC00000
0000FF3FC00000
0000FF7F800000
00007FFF800000
00007FFF000000
00003FFF000000
00003FFF000000
00003FFE000000
00001FFE000000
00001FFE000000
00001FFC000000
00000FFC000000
ENDCHAR
STARTCHAR 0077
ENCODING 119
SWIDTH 875 0
DWIDTH 84 0
BBX 83 55 1 0
BITMAP
FF0000000FFC0000001FE0
FF0000000FFE0000003FC0
FF0000001FFE0000003FC0
7F0000001FFE0000003FC0
7F8000001FFE0000003F80
7F8000003FFF0000007F80
3F8000003FFF0000007F80
3FC000003FFF0000007F00
3FC000003FFF800000FF00
1FC000007F3F800000FF00
1FE000007F3F800000FE00
1FE000007F3F800001FE00
0FE00000FF1FC00001FE00
0FE00000FE1FC00001FC00
0FF00000FE1FC00003FC00
07F00001FE1FE00003FC00
07F00001FC0FE00003FC00
07F80001FC0FE00003F800
07F80001FC0FF00007F800
03F80003F807F00007F800
03FC0003F807F00007F000
03FC0003F807F0000FF000
01FC0007F807F8000FF000
01FE0007F003F8000FE000
01FE0007F003F8001FE000
00FE000FF003FC001FE000
00FE000FE001FC001FC000
00FF000FE001FC003FC000
007F000FE001FE003FC000
007F001FE000FE003F8000
007F801FC000FE003F8000
003F801FC000FE007F8000
003F803FC000FF007F0000
003FC03F80007F007F0000
003FC03F80007F00FF0000
001FC07F80007F80FE0000
001FC07F00003F80FE0000
001FE07F00003F81FE0000
000FE07F00003FC1FC0000
000FE0FF00003FC1FC0000
000FF0FE00001FC3FC0000
0007F0FE00001FC3F80000
0007F1FE00001FE3F80000
0007F9FC00000FE7F80000
0003F9FC00000FE7F80000
0003FBFC00000FF7F00000
0003FBF800000FF7F00000
0001FFF8000007FFF00000
0001FFF8000007FFE00000
0001FFF8000007FFE00000
0001FFF0000003FFE00000
0000FFF0000003FFC00000
0000FFF0000003FFC00000
0000FFE0000003FFC00000
00007FE0000001FF800000
ENDCHAR
STARTCHAR 0078
ENCODING 120
SWIDTH 541 0
DWIDTH 52 0
BBX 51 55 0 0
BITMAP
3FE00000007FC0
1FF0000000FF80
1FF0000000FF80
0FF8000001FF00
07FC000003FE00
07FE000003FE00
03FE000007FC00
01FF00000FF800
00FF80000FF000
00FF80001FF000
007FC0003FE000
003FE0007FC000
003FE0007FC000
001FF000FF8000
000FF801FF0000
0007FC01FF0000
0007FC03FE0000
0003FE07FC0000
0001FF07FC0000
0001FF0FF80000
0000FF9FF00000
00007FDFF00000
00007FFFE00000
00003FFFC00000
00001FFF800000
00000FFF800000
00000FFF000000
00000FFF800000
00001FFF800000
00003FFFC00000
00003FFFE00000
00007FFFE00000
0000FF9FF00000
0001FF8FF80000
0001FF0FF80000
0003FE07FC0000
0007FC03FE0000
0007FC01FF0000
000FF801FF0000
001FF000FF8000
003FF0007FC000
003FE0007FC000
007FC0003FE000
00FF80001FF000
00FF80001FF000
01FF00000FF800
03FE000007FC00
07FE000007FC00
07FC000003FE00
0FF8000001FF00
1FF0000000FF80
1FF0000000FF80
3FE00000007FC0
7FC00000003FE0
FFC00000003FE0
ENDCHAR
STARTCHAR 0079
ENCODING 121
SWIDTH 520 0
DWIDTH 50 0
BBX 49 55 0 0
BITMAP
FF80000000FF80
7FC0000000FF80
3FC0000001FF00
3FE0000003FE00
1FF0000003FE00
0FF0000007FC00
0FF800000FF800
07FC00000FF800
03FC00001FF000
03FE00003FE000
01FF00003FE000
00FF00007FC000
00FF8000FF8000
007FC000FF0000
007FC001FF0000
003FE003FE0000
001FF003FC0000
001FF007FC0000
000FF80FF80000
0007FC0FF00000
0007FC1FF00000
0003FE3FE00000
0001FF3FC00000
0001FF7FC00000
0000FFFF800000
00007FFF000000
00007FFF000000
00003FFE000000
00001FFC000000
00001FFC000000
00000FF8000000
000007F0000000
000007F0000000
000007F0000000
000007F0000000
000007F0000000
000007F0000000
000007F0000000
000007F0000000
000007F0000000
000007F0000000
000007F0000000
000007F0000000
000007F0000000
000007F0000000
000007F0000000
000007F0000000
000007F0000000
000007F0000000
000007F0000000
000007F0000000
000007F0000000
000007F0000000
000007F0000000
000007F0000000
ENDCHAR
STARTCHAR 007A
ENCODING 122
SWIDTH 520 0
DWIDTH 50 0
BBX 45 55 3 0
BITMAP
7FFFFFFFFFF0
7FFFFFFFFFF0
7FFFFFFFFFF0
7FFFFFFFFFF0
7FFFFFFFFFF0
7FFFFFFFFFF0
7FFFFFFFFFF0
000000003FE0
000000007FC0
00000000FFC0
00000000FF80
00000001FF00
00000003FE00
00000007FC00
0000000FF800
0000001FF800
0000001FF000
0000003FE000
0000007FC000
000000FF8000
000001FF0000
000003FF0000
000003FE0000
000007FC0000
00000FF80000
00001FF00000
00003FE00000
00007FE00000
00007FC00000
0000FF800000
0001FF000000
0003FE000000
0007FC000000
000FFC000000
000FF8000000
001FF0000000
003FE0000000
007FC0000000
00FF80000000
01FF80000000
01FF00000000
03FE00000000
07FC00000000
0FF800000000
1FF000000000
3FF000000000
3FE000000000
7FC000000000
FFFFFFFFFFF8
FFFFFFFFFFF8
FFFFFFFFFFF8
FFFFFFFFFFF8
FFFFFFFFFFF8
FFFFFFFFFFF8
FFFFFFFFFFF8
ENDCHAR
STARTCHAR 007B
ENCODING 123
SWIDTH 333 0
DWIDTH 32 0
BBX 24 87 2 -17
BITMAP
0001FF
000FFF
003FFF
007FFF
00FFFF
00FFFF
01FFE0
01FF00
01FE00
01FC00
03FC00
03FC00
03F800
03F800
03F800
03F800
03F800
03F800
03F800
03F800
03F800
03F800
03F800
03F800
03F800
03F800
03F800
03F800
03F800
03F800
03F800
03F800
03F800
03F800
03F800
07F800
07F000
0FF000
0FF000
3FE000
FFE000
FFC000
FF0000
FE0000
FF0000
FFC000
FFC000
3FE000
0FF000
0FF000
07F000
07F800
03F800
03F800
03F800
03F800
03F800
03F800
03F800
03F800
03F800
03F800
03F800
03F800
03F800
03F800
03F800
03F800
03F800
03F800
03F800
03F800
03F800
03F800
03F800
03FC00
03FC00
01FC00
01FE00
01FF80
01FFE0
00FFFF
00FFFF
007FFF
003FFF
000FFF
0001FF
ENDCHAR
STARTCHAR 007C
ENCODING 124
SWIDTH 291 0
DWIDTH 28 0
BBX 8 80 10 -16
BITMAP
FF
FF
FF
FF
FF
FF
FF
FF
FF
FF
FF
FF
FF
FF
FF
FF
FF
FF
FF
FF
FF
FF
FF
FF
FF
FF
FF
FF
FF
FF
FF
FF
FF
FF
FF
FF
FF
FF
FF
FF
FF
FF
FF
FF
FF
FF
FF
FF
FF
FF
FF
FF
FF
FF
FF
FF
FF
FF
FF
FF
FF
FF
FF
FF
FF
FF
FF
FF
FF
FF
FF
FF
FF
FF
FF
FF
FF
FF
FF
FF
ENDCHAR
STARTCHAR 007D
ENCODING 125
SWIDTH 322 0
DWIDTH 31 0
BBX 24 87 5 -17
BITMAP
FF8000
FFE000
FFF800
FFFC00
FFFE00
FFFE00
0FFF00
01FF00
00FF00
007F00
007F80
003F80
003F80
003F80
003F80
003F80
003F80
003F80
003F80
003F80
003F80
003F80
003F80
003F80
003F80
003F80
003F80
003F80
003F80
003F80
003F80
003F80
003F80
003F80
003F80
003FC0
001FC0
001FE0
001FF0
000FF8
000FFF
0007FF
0001FF
0000FF
0001FF
0007FF
000FFF
000FF8
001FF0
001FE0
001FC0
003FC0
003F80
003F80
003F80
003F80
003F80
003F80
003F80
003F80
003F80
003F80
003F80
003F80
003F80
003F80
003F80
003F80
003F80
003F80
003F80
003F80
003F80
003F80
003F80
003F80
007F80
007F00
00FF00
01FF00
0FFF00
FFFE00
FFFE00
FFFC00
FFF800
FFE000
FF8000
ENDCHAR
STARTCHAR 007E
ENCODING 126
SWIDTH 666 0
DWIDTH 64 0
BBX 46 14 9 55
BITMAP
003F00000000
01FFE0000070
03FFF80000F8
07FFFF0000FC
0FFFFFC001F8
1FFFFFF003F8
1FFFFFFC0FF0
3FC1FFFFFFF0
7F803FFFFFE0
7E0007FFFFC0
FE0001FFFF80
7C00007FFF00
3800001FFE00
18000003F000
ENDCHAR
STARTCHAR 00A0
ENCODING 160
SWIDTH 302 0
DWIDTH 29 0
BBX 0 0 0 0
BITMAP
ENDCHAR
STARTCHAR 00A1
ENCODING 161
SWIDTH 260 0
DWIDTH 25 0
BBX 9 64 8 -9
BITMAP
FF80
FF80
FF80
FF80
FF80
FF80
FF80
FF80
FF80
FF80
0000
0000
0000
0000
0000
0000
0000
0000
0000
7F00
7F00
7F00
7F00
7F00
7F00
7F00
7F00
7F00
7F00
7F00
7F00
7F00
7F00
7F80
7F80
7F80
7F80
7F80
FF80
FF80
FF80
FF80
FF80
FF80
FF80
FF80
FF80
FF80
FF80
FF80
FF80
FF80
FF80
FF80
FF80
FF80
FF80
FF80
FF80
FF80
FF80
FF80
FF80
FF80
ENDCHAR
STARTCHAR 00A2
ENCODING 162
SWIDTH 479 0
DWIDTH 46 0
BBX 34 51 6 0
BITMAP
0003F00000
0003F00000
0003F00000
0003F00000
0003F00000
001FFE0000
01FFFFE000
03FFFFF800
0FFFFFFC00
1FFFFFFE00
1FFFFFFE00
3FE3F1FF00
3F83F07F00
7F83F03F80
7F03F03F80
7F03F03F80
FF03F03F80
FE03F03F80
FE03F03F80
FE03F00000
FE03F00000
FE03F00000
FE03F00000
FE03F00000
FE03F00000
FE03F00000
FE03F00000
FE03F00000
FE03F00000
FE03F00000
FE03F01FC0
FE03F01FC0
FE03F01FC0
FF03F01FC0
7F03F01FC0
7F03F01FC0
7F03F01FC0
7F83F03F80
3FC3F07F80
3FFFFFFF80
1FFFFFFF00
0FFFFFFE00
07FFFFFC00
03FFFFF800
007FFFC000
0003F00000
0003F00000
0003F00000
0003F00000
0003F00000
0003F00000
ENDCHAR
STARTCHAR 00A3
ENCODING 163
SWIDTH 520 0
DWIDTH 50 0
BBX 45 56 2 0
BITMAP
00003FFF8000
0003FFFFF800
000FFFFFFE00
001FFFFFFF00
003FFFFFFF80
007FFFFFFFC0
007FFFFFFFE0
00FFE000FFE0
00FF00001FE0
00FE00000FF0
01FE00000FF0
01FC000007F0
01FC000007F0
01FC000007F0
01FC000007F0
01FC000007F0
01FC000007F0
01FC000007F0
01FC00000000
01FC00000000
01FC00000000
01FC00000000
01FC00000000
01FC00000000
01FC00000000
01FC00000000
01FC00000000
01FC00000000
FFFFFFFC0000
FFFFFFFC0000
FFFFFFFC0000
FFFFFFFC0000
FFFFFFFC0000
FFFFFFFC0000
01FC00000000
01FC00000000
01FC00000000
01FC00000000
01FC00000000
01FC00000000
01FC00000000
01FC00000000
01FC00000000
01FC00000000
01FC00000000
01FC00000000
03F800000000
03F800000000
07F000000000
0FF000000000
3FFFFFFFFFF8
3FFFFFFFFFF8
3FFFFFFFFFF8
3FFFFFFFFFF8
3FFFFFFFFFF8
3FFFFFFFFFF8
ENDCHAR
STARTCHAR 00A4
ENCODING 164
SWIDTH 656 0
DWIDTH 63 0
BBX 53 52 5 1
BITMAP
300000000000C0
780000000001E0
FC0000000003F0
FE0000000007F8
7F0003FE000FF0
3F803FFFC01FE0
1FC0FFFFF83FC0
0FE3FFFFFC7F80
07F7FFFFFFFF00
03FFFFFFFFFE00
01FFFC03FFFC00
00FFE0007FF800
007FC0001FF000
00FF000007F800
01FE000003F800
01FC000001FC00
03F8000000FE00
03F00000007E00
07F00000007E00
07E00000003F00
07E00000003F00
0FE00000003F00
0FC00000001F80
0FC00000001F80
0FC00000001F80
0FC00000001F80
0FC00000001F80
0FC00000001F80
0FC00000001F80
0FC00000001F80
0FE00000003F00
07E00000003F00
07E00000003F00
07F00000007F00
03F00000007E00
03F8000000FE00
01FC000001FC00
01FE000003FC00
00FF000007F800
007FC0001FF000
00FFE0003FF800
01FFFC01FFFC00
03FFFFFFFFFE00
07FFFFFFFFFF00
0FF3FFFFFE7F80
1FE0FFFFF83FC0
3FC03FFFE01FE0
7F8003FE000FF0
FF0000000007F8
7E0000000003F0
3C0000000001E0
180000000000C0
ENDCHAR
STARTCHAR 00A5
ENCODING 165
SWIDTH 510 0
DWIDTH 49 0
BBX 45 56 2 0
BITMAP
FF00000007F8
FF8000000FF8
7F8000000FF0
7FC000001FF0
3FE000003FE0
1FE000003FE0
1FF000007FC0
0FF000007F80
0FF80000FF80
07FC0000FF00
07FC0001FF00
03FE0003FE00
01FE0003FC00
01FF0007FC00
00FF0007F800
00FF800FF800
007FC00FF000
007FC01FF000
1FFFE01FFFC0
1FFFE03FFFC0
1FFFF07FFFC0
1FFFF07FFFC0
1FFFF8FFFFC0
1FFFFCFFFFC0
0003FDFE0000
0001FFFC0000
0001FFFC0000
0000FFF80000
0000FFF80000
00007FF00000
00007FF00000
1FFFFFFFFFC0
1FFFFFFFFFC0
1FFFFFFFFFC0
1FFFFFFFFFC0
1FFFFFFFFFC0
1FFFFFFFFFC0
00001FC00000
00001FC00000
00001FC00000
00001FC00000
00001FC00000
00001FC00000
00001FC00000
00001FC00000
00001FC00000
00001FC00000
00001FC00000
00001FC00000
00001FC00000
00001FC00000
00001FC00000
00001FC00000
00001FC00000
00001FC00000
00001FC00000
ENDCHAR
STARTCHAR 00A6
ENCODING 166
SWIDTH 291 0
DWIDTH 28 0
BBX 8 80 10 -16
BITMAP
FF
FF
FF
FF
FF
FF
FF
FF
FF
FF
FF
FF
FF
FF
FF
FF
FF
FF
FF
FF
FF
FF
FF
FF
FF
FF
FF
FF
FF
FF
FF
FF
00
00
00
00
00
00
00
00
00
00
00
00
00
00
00
00
00
FF
FF
FF
FF
FF
FF
FF
FF
FF
FF
FF
FF
FF
FF
FF
FF
FF
FF
FF
FF
FF
FF
FF
FF
FF
FF
FF
FF
FF
FF
FF
ENDCHAR
STARTCHAR 00A7
ENCODING 167
SWIDTH 572 0
DWIDTH 55 0
BBX 45 83 5 -19
BITMAP
0003FFFF0000
007FFFFFF800
01FFFFFFFE00
03FFFFFFFF00
07FFFFFFFF80
07FFFFFFFFC0
0FFFFFFFFFC0
0FFC0001FFC0
0FF000003FE0
1FE000001FE0
1FE000000FE0
1FC000000FE0
1FC000000FE0
1FC000000FE0
1FC000000FE0
1FC000000FE0
1FC000000000
1FC000000000
1FC000000000
1FC000000000
1FE000000000
0FF000000000
0FFC00000000
07FF80000000
07FFF8000000
03FFFF000000
01FFFFE00000
0FFFFFFE0000
1FFFFFFFC000
3FC1FFFFF800
7F801FFFFF00
7F0003FFFF80
7F00007FFFE0
FE000007FFE0
FE000000FFF0
FE0000003FF0
FE0000000FF8
FE00000007F8
FE00000003F8
FE00000003F8
FE00000003F8
FE00000003F8
FF00000003F8
FF00000003F8
7FC0000003F8
7FF0000003F8
7FFE000007F0
3FFFE00007F0
3FFFFC0007F0
1FFFFF800FE0
07FFFFF81FE0
01FFFFFFFFC0
003FFFFFFF00
0003FFFFFE00
00003FFFFF80
000003FFFFC0
0000007FFFE0
00000007FFF0
00000000FFF0
000000001FF0
000000000FF8
0000000007F8
0000000003F8
0000000003F8
0000000003F8
FF00000003F8
FF00000003F8
FF00000003F8
FF00000003F8
7F00000003F8
7F00000003F8
7F00000007F8
7F00000007F0
7F8000000FF0
7FE000001FF0
3FFC00007FF0
3FFFFFFFFFE0
1FFFFFFFFFE0
0FFFFFFFFFC0
07FFFFFFFF80
03FFFFFFFF00
00FFFFFFFC00
0007FFFF8000
ENDCHAR
STARTCHAR 00A8
ENCODING 168
SWIDTH 500 0
DWIDTH 48 0
BBX 28 7 10 64
BITMAP
FF801FF0
FF801FF0
FF801FF0
FF801FF0
FF801FF0
FF801FF0
FF801FF0
ENDCHAR
STARTCHAR 00A9
ENCODING 169
SWIDTH 750 0
DWIDTH 72 0
BBX 65 64 3 0
BITMAP
0000001FFC00000000
000001FFFFC0000000
00000FFFFFF8000000
00003FFFFFFE000000
0000FFFFFFFF800000
0003FFE003FFE00000
0007FF00007FF00000
000FF800000FF80000
003FE0000003FE0000
007FC0000001FF0000
00FF000000007F8000
01FE000000003F8000
01FC000000001FC000
03F8003FFF800FE000
07F003FFFFF007F000
07F007FFFFF807F000
0FE00FFFFFFC03F800
1FC01FFFFFFE01F800
1FC03FE000FE01FC00
1F803F80007E00FC00
3F807F00003E00FE00
3F007E00003E007E00
7F007E00003E007F00
7E007E00003F003F00
7E007E00003F003F00
7E007E000000003F00
FE007E000000003F00
FC007E000000001F80
FC007E000000001F80
FC007E000000001F80
FC007E000000001F80
FC007E000000001F80
FC007E000000001F80
FC007E000000001F80
FC007E000000001F80
FC007E000000001F80
FC007E000000001F80
FC007E00001F003F80
7E007E00001F003F00
7E007E00001F003F00
7E007F00001F003F00
7F003F00001F007F00
3F003F00001F007E00
3F003F80003F007E00
1F803FE000FF00FC00
1F801FFFFFFE01FC00
0FC00FFFFFFE01F800
0FE007FFFFFC03F800
07E003FFFFF007F000
07F0007FFFC007F000
03F8000000000FE000
01FC000000001FC000
00FE000000003F8000
00FF000000007F8000
007FC0000001FF0000
003FE0000003FE0000
000FF800000FF80000
0007FF00007FF00000
0003FFE003FFE00000
0000FFFFFFFF800000
00003FFFFFFE000000
00000FFFFFF8000000
000001FFFFC0000000
0000001FFC00000000
ENDCHAR
STARTCHAR 00AA
ENCODING 170
SWIDTH 375 0
DWIDTH 36 0
BBX 28 33 4 23
BITMAP
00FFF000
07FFFF00
1FFFFF80
3FFFFFC0
3FFFFFE0
7F801FE0
7F0007E0
7E0007F0
7E0003F0
7E0003F0
000003F0
000003F0
01FFC3F0
0FFFFBF0
1FFFFFF0
3FFFFFF0
7FFFFFF0
7F801FF0
FE0007F0
FC0007F0
FC0003F0
FC0003F0
FC0003F0
FC0003F0
FC0003F0
FC0007F0
FE0007F0
7F803FF0
7FFFFFF0
3FFFFFF0
1FFFFFF0
0FFFFBF0
01FFC3F0
ENDCHAR
STARTCHAR 00AB
ENCODING 171
SWIDTH 479 0
DWIDTH 46 0
BBX 35 44 5 5
BITMAP
0030000C00
0038000E00
007E001F80
007F001FC0
00FF003FC0
00FE003F80
01FE007F80
01FC007F00
03FC00FF00
03F800FE00
03F800FE00
07F001FC00
07F001FC00
0FE003F800
0FE003F800
1FC007F000
1FC007F000
3FC00FF000
3F800FE000
7F801FE000
7F001FC000
FF003FC000
FF003FC000
7F001FC000
7F801FE000
3F800FE000
3FC00FF000
1FC007F000
0FE003F800
0FE003F800
07F001FC00
07F001FC00
03F800FE00
03F800FE00
01FC007F00
01FC007F00
00FE003F80
00FE003F80
007F001FC0
007F001FC0
003F800FE0
003F000FC0
001E000780
0018000600
ENDCHAR
STARTCHAR 00AC
ENCODING 172
SWIDTH 500 0
DWIDTH 48 0
BBX 42 27 3 0
BITMAP
FFFFFFFFFFC0
FFFFFFFFFFC0
FFFFFFFFFFC0
FFFFFFFFFFC0
FFFFFFFFFFC0
FFFFFFFFFFC0
FFFFFFFFFFC0
000000001FC0
000000001FC0
000000001FC0
000000001FC0
000000001FC0
000000001FC0
000000001FC0
000000001FC0
000000001FC0
000000001FC0
000000001FC0
000000001FC0
000000001FC0
000000001FC0
000000001FC0
000000001FC0
000000001FC0
000000001FC0
000000001FC0
000000001FC0
ENDCHAR
STARTCHAR 00AD
ENCODING 173
SWIDTH 250 0
DWIDTH 24 0
BBX 22 7 1 23
BITMAP
FFFFFC
FFFFFC
FFFFFC
FFFFFC
FFFFFC
FFFFFC
FFFFFC
ENDCHAR
STARTCHAR 00AE
ENCODING 174
SWIDTH 750 0
DWIDTH 72 0
BBX 66 64 3 0
BITMAP
0000001FFE00000000
000001FFFFE0000000
00000FFFFFFC000000
00003FFFFFFF000000
0000FFFFFFFFC00000
0001FFF003FFE00000
0007FF00003FF80000
000FFC00000FFC0000
001FF0000003FE0000
007FC0000000FF0000
007F800000007F8000
00FE000000001FC000
01FC000000000FE000
03F83FFFFF8007F000
07F03FFFFFF003F800
07F03FFFFFF803F800
0FE03FFFFFFC01FC00
0FC03FFFFFFE00FC00
1FC03F0001FE00FE00
1F803F00007E007E00
3F803F00007F007F00
3F003F00003F003F00
7F003F00003F003F00
7E003F00003F001F80
7E003F00003F001F80
7E003F00003F001F80
FE003F00003F001F80
FC003F00003F000FC0
FC003F00007F000FC0
FC003F0000FE000FC0
FC003F0003FE000FC0
FC003FFFFFFC000FC0
FC003FFFFFF8000FC0
FC003FFFFFE0000FC0
FC003FFFFFF0000FC0
FC003FFFFFF8000FC0
FC003F0003FC000FC0
FE003F0000FC001FC0
7E003F0000FE001F80
7E003F00007E001F80
7E003F00007E001F80
7F003F00007E003F80
3F003F00007E003F00
3F003F00007E003F00
1F803F00007E007E00
1F803F00007E00FE00
0FC03F00007E00FC00
0FE03F00007E01FC00
07F03F00007E03F800
07F03F00007E03F800
03F80000000007F000
01FC000000000FE000
00FE000000001FC000
007F800000007F8000
003FC0000000FF0000
001FF0000003FE0000
000FF8000007FC0000
0007FF00003FF80000
0001FFF003FFF00000
0000FFFFFFFFC00000
00003FFFFFFF000000
00000FFFFFFC000000
000001FFFFE0000000
0000001FFE00000000
ENDCHAR
STARTCHAR 00AF
ENCODING 175
SWIDTH 500 0
DWIDTH 48 0
BBX 48 5 0 71
BITMAP
FFFFFFFFFFFF
FFFFFFFFFFFF
FFFFFFFFFFFF
FFFFFFFFFFFF
FFFFFFFFFFFF
ENDCHAR
STARTCHAR 00B0
ENCODING 176
SWIDTH 375 0
DWIDTH 36 0
BBX 26 25 5 39
BITMAP
007F8000
01FFE000
07FFF800
0FFFFC00
1FFFFE00
3FC0FF00
3F003F00
7E001F80
7C000F80
FC000FC0
F80007C0
F80007C0
F80007C0
F80007C0
F80007C0
FC000FC0
7C000F80
7E001F80
3F003F00
3FC0FF00
1FFFFE00
0FFFFC00
07FFF800
01FFE000
007F8000
ENDCHAR
STARTCHAR 00B1
ENCODING 177
SWIDTH 531 0
DWIDTH 51 0
BBX 45 53 3 0
BITMAP
00001FC00000
00001FC00000
00001FC00000
00001FC00000
00001FC00000
00001FC00000
00001FC00000
00001FC00000
00001FC00000
00001FC00000
00001FC00000
00001FC00000
00001FC00000
00001FC00000
00001FC00000
00001FC00000
FFFFFFFFFFF8
FFFFFFFFFFF8
FFFFFFFFFFF8
FFFFFFFFFFF8
FFFFFFFFFFF8
FFFFFFFFFFF8
FFFFFFFFFFF8
00001FC00000
00001FC00000
00001FC00000
00001FC00000
00001FC00000
00001FC00000
00001FC00000
00001FC00000
00001FC00000
00001FC00000
00001FC00000
00001FC00000
00001FC00000
00001FC00000
00001FC00000
00001FC00000
000000000000
000000000000
000000000000
000000000000
000000000000
000000000000
000000000000
FFFFFFFFFFF8
FFFFFFFFFFF8
FFFFFFFFFFF8
FFFFFFFFFFF8
FFFFFFFFFFF8
FFFFFFFFFFF8
FFFFFFFFFFF8
ENDCHAR
STARTCHAR 00B2
ENCODING 178
SWIDTH 416 0
DWIDTH 40 0
BBX 31 40 4 16
BITMAP
007FFC00
07FFFFC0
1FFFFFF0
3FFFFFF8
3FFFFFF8
7FFFFFFC
7F8003FC
FE0000FC
FC0000FE
FC00007E
FC00007E
FC00007E
FC00007E
FC00007E
FC00007E
0000007E
0000007E
000000FE
000000FC
000007FC
0007FFF8
01FFFFF8
0FFFFFF0
1FFFFFC0
3FFFFE00
7FFF8000
7FC00000
FF000000
FE000000
FE000000
FE000000
FC000000
FC000000
FC000000
FFFFFFFE
FFFFFFFE
FFFFFFFE
FFFFFFFE
FFFFFFFE
FFFFFFFE
ENDCHAR
STARTCHAR 00B3
ENCODING 179
SWIDTH 416 0
DWIDTH 40 0
BBX 31 41 4 15
BITMAP
00FFFE00
07FFFFE0
1FFFFFF0
3FFFFFF8
3FFFFFFC
7FFFFFFC
7F8001FE
7F0000FE
FE00007E
FE00007E
FE00007E
FE00007E
FE00007E
FE00007E
0000007E
000000FC
000001FC
001FFFFC
001FFFF8
001FFFE0
001FFFF0
001FFFF8
001FFFFC
000001FC
000000FE
0000007E
FC00007E
FC00007E
FC00007E
FC00007E
FC00007E
FC00007E
FC00007E
FE0000FE
FF0003FC
7FFFFFFC
7FFFFFFC
3FFFFFF8
1FFFFFF0
0FFFFFC0
00FFFE00
ENDCHAR
STARTCHAR 00B4
ENCODING 180
SWIDTH 500 0
DWIDTH 48 0
BBX 18 14 18 62
BITMAP
000600
000F00
003F00
007F80
00FFC0
03FF80
07FE00
0FFC00
3FF000
7FE000
FF8000
FE0000
7C0000
300000
ENDCHAR
STARTCHAR 00B5
ENCODING 181
SWIDTH 593 0
DWIDTH 57 0
BBX 46 61 5 -13
BITMAP
7F00000001FC
7F00000001FC
7F00000001FC
7F00000001FC
7F00000001FC
7F00000001FC
7F00000001FC
7F00000001FC
7F00000001FC
7F00000001FC
7F00000001FC
7F00000001FC
7F00000001FC
7F00000001FC
7F00000001FC
7F00000001FC
7F00000001FC
7F00000001FC
7F00000001FC
7F00000001FC
7F00000001FC
7F00000001FC
7F00000001FC
7F00000001FC
7F00000001FC
7F00000001FC
7F00000001FC
7F00000001FC
7F00000001FC
7F00000001FC
7F00000001FC
7F00000001FC
7F00000001FC
7F00000001FC
7F00000001FC
7F00000001FC
7F00000001FC
7F80000003FC
7F80000003F8
7FE000000FF8
7FF800007FF8
7FFFFFFFFFF0
7FFFFFFFFFF0
7FFFFFFFFFE0
7FFFFFFFFFC0
7FFFFFFFFF00
7CFFFFFFFC00
7C0FFFFFE000
7C0000000000
7C0000000000
7C0000000000
7C0000000000
7C0000000000
FC0000000000
FC0000000000
FC0000000000
FC0000000000
FC0000000000
FC0000000000
FC0000000000
FC0000000000
ENDCHAR
STARTCHAR 00B6
ENCODING 182
SWIDTH 614 0
DWIDTH 59 0
BBX 47 73 5 -9
BITMAP
0007FFFFFFFE
007FFFFFFFFE
01FFFFFFFFFE
03FFFFFFFFFE
07FFFFFFFFFE
0FFFFFFFFFFE
1FFFFFFFFFFE
1FFFFFFC00FE
3FFFFFFC00FE
3FFFFFFC00FE
7FFFFFFC00FE
7FFFFFFC00FE
7FFFFFFC00FE
7FFFFFFC00FE
7FFFFFFC00FE
FFFFFFFC00FE
FFFFFFFC00FE
FFFFFFFC00FE
FFFFFFFC00FE
FFFFFFFC00FE
FFFFFFFC00FE
FFFFFFFC00FE
FFFFFFFC00FE
FFFFFFFC00FE
FFFFFFFC00FE
FFFFFFFC00FE
FFFFFFFC00FE
FFFFFFFC00FE
FFFFFFFC00FE
FFFFFFFC00FE
7FFFFFFC00FE
7FFFFFFC00FE
7FFFFFFC00FE
7FFFFFFC00FE
3FFFFFFC00FE
3FFFFFFC00FE
1FFFFFFC00FE
1FFFFFFC00FE
0FFFFFFC00FE
07FFFFFC00FE
03FFFFFC00FE
00FFFFFC00FE
003FFFFC00FE
0003FFFC00FE
000001FC00FE
000001FC00FE
000001FC00FE
000001FC00FE
000001FC00FE
000001FC00FE
000001FC00FE
000001FC00FE
000001FC00FE
000001FC00FE
000001FC00FE
000001FC00FE
000001FC00FE
000001FC00FE
000001FC00FE
000001FC00FE
000001FC00FE
000001FC00FE
000001FC00FE
000001FC00FE
000001FC00FE
000001FC00FE
000001FC00FE
000001FC00FE
000001FC00FE
000001FC00FE
000001FC00FE
000001FC00FE
000001FC00FE
ENDCHAR
STARTCHAR 00B7
ENCODING 183
SWIDTH 208 0
DWIDTH 20 0
BBX 9 10 6 22
BITMAP
FF80
FF80
FF80
FF80
FF80
FF80
FF80
FF80
FF80
FF80
ENDCHAR
STARTCHAR 00B8
ENCODING 184
SWIDTH 500 0
DWIDTH 48 0
BBX 16 17 16 -19
BITMAP
003F
003F
003F
003F
003F
003F
007F
007F
00FE
03FE
FFFE
FFFC
FFFC
FFF8
FFF0
FFC0
FE00
ENDCHAR
STARTCHAR 00B9
ENCODING 185
SWIDTH 416 0
DWIDTH 40 0
BBX 19 40 11 16
BITMAP
001FE0
003FE0
007FE0
00FFE0
01FFE0
03FFE0
07FFE0
0FF7E0
1FE7E0
3FC7E0
7F87E0
FF07E0
FE07E0
7C07E0
3807E0
1007E0
0007E0
0007E0
0007E0
0007E0
0007E0
0007E0
0007E0
0007E0
0007E0
0007E0
0007E0
0007E0
0007E0
0007E0
0007E0
0007E0
0007E0
0007E0
0007E0
0007E0
0007E0
0007E0
0007E0
0007E0
ENDCHAR
STARTCHAR 00BA
ENCODING 186
SWIDTH 385 0
DWIDTH 37 0
BBX 29 33 4 23
BITMAP
00FFF800
07FFFF00
0FFFFF80
1FFFFFC0
3FFFFFE0
7F800FF0
7F0003F0
7E0003F0
7E0003F0
FC0001F8
FC0001F8
FC0001F8
FC0001F8
FC0001F8
FC0001F8
FC0001F8
FC0001F8
FC0001F8
FC0001F8
FC0001F8
FC0001F8
FC0001F8
FC0001F8
FC0001F8
7E0003F0
7E0003F0
7E0007F0
7F800FF0
3FFFFFE0
1FFFFFC0
1FFFFF80
07FFFF00
00FFF800
ENDCHAR
STARTCHAR 00BB
ENCODING 187
SWIDTH 479 0
DWIDTH 46 0
BBX 35 44 6 5
BITMAP
0600018000
0E00038000
3F000FC000
7F001FC000
7F801FE000
3F800FE000
3FC00FF000
1FC007F000
1FC007F000
0FE003F800
0FE003F800
07F001FC00
07F001FC00
03F800FE00
03F800FE00
01FC007F00
01FC007F00
01FE007F80
00FE003F80
00FF003FC0
007F001FC0
007F801FE0
007F801FE0
007F001FC0
00FF003FC0
00FE003F80
01FE007F80
01FC007F00
03F800FF00
03F800FE00
07F001FC00
07F001FC00
0FE003F800
0FE003F800
1FC007F000
1FC007F000
3F800FE000
3F800FE000
7F001FC000
FF003FC000
FE003F8000
7E001F8000
3C000F0000
0C00030000
ENDCHAR
STARTCHAR 00BC
ENCODING 188
SWIDTH 947 0
DWIDTH 91 0
BBX 81 56 5 0
BITMAP
001FE00000003F00000000
003FE00000003F00000000
007FE00000007E00000000
00FFE00000007E00000000
01FFE0000000FC00000000
03FFE0000000FC00000000
07FFE0000001F800000000
0FF7E0000003F800000000
1FE7E0000003F000000000
3FC7E0000007F000000000
7F87E0000007E000000000
FF07E000000FE000000000
FE07E000000FC000000000
7C07E000001F8000000000
3807E000001F8000000000
1007E000003F0000000000
0007E000003F00001FE000
0007E000007E00003FE000
0007E000007E00007FE000
0007E00000FC00007FE000
0007E00001FC0000FFE000
0007E00001F80001FFE000
0007E00003F80003FFE000
0007E00003F00007F7E000
0007E00007F0000FE7E000
0007E00007E0001FC7E000
0007E0000FC0001F87E000
0007E0000FC0003F87E000
0007E0001F80007F07E000
0007E0001F8000FE07E000
0007E0003F0001FC07E000
0007E0003F0003F807E000
0007E0007E0003F007E000
0007E000FE0007F007E000
0007E000FC000FE007E000
0007E001FC001FC007E000
0007E001F8003F8007E000
0007E003F8007F0007E000
0007E003F0007F0007E000
0007E007E000FE0007E000
00000007E001FC0007E000
0000000FC003F80007E000
0000000FC003FFFFFFFF80
0000001F8003FFFFFFFF80
0000001F8003FFFFFFFF80
0000003F0003FFFFFFFF80
0000007F0003FFFFFFFF80
0000007E0000000007E000
000000FE0000000007E000
000000FC0000000007E000
000001F80000000007E000
000001F80000000007E000
000003F00000000007E000
000003F00000000007E000
000007E00000000007E000
000007E00000000007E000
ENDCHAR
STARTCHAR 00BD
ENCODING 189
SWIDTH 958 0
DWIDTH 92 0
BBX 82 56 5 0
BITMAP
001FE0000000FC00000000
003FE0000001FC00000000
007FE0000001F800000000
00FFE0000003F800000000
01FFE0000003F000000000
03FFE0000007F000000000
07FFE0000007E000000000
0FF7E000000FC000000000
1FE7E000001FC000000000
3FC7E000001F8000000000
7F87E000003F8000000000
FF07E000003F0000000000
FE07E000007F0000000000
7C07E000007E0000000000
3807E00000FE0000000000
1007E00000FC0000000000
0007E00001F8000FFF8000
0007E00001F800FFFFF800
0007E00003F003FFFFFE00
0007E00007F007FFFFFF00
0007E00007E007FFFFFF00
0007E0000FE00FFFFFFF80
0007E0000FC00FF0007F80
0007E0001FC01FC0001F80
0007E0001F801F80001FC0
0007E0003F001F80000FC0
0007E0003F001F80000FC0
0007E0007E001F80000FC0
0007E000FE001F80000FC0
0007E000FC001F80000FC0
0007E001FC001F80000FC0
0007E001F8001F80000FC0
0007E003F8000000000FC0
0007E003F0000000001FC0
0007E007E0000000001F80
0007E007E0000000007F80
0007E00FC00000001FFF00
0007E00FC000001FFFFF00
0007E01F800000FFFFFE00
0007E03F800003FFFFF800
0000003F000007FFFFC000
0000007F00000FFFF00000
0000007E00000FF0000000
000000FE00001FC0000000
000000FC00001FC0000000
000001F800001F80000000
000001F800001F80000000
000003F000001F80000000
000007F000001F80000000
000007E000001F80000000
00000FE000001FFFFFFFC0
00000FC000001FFFFFFFC0
00001FC000001FFFFFFFC0
00001F8000001FFFFFFFC0
00003F0000001FFFFFFFC0
00003F0000001FFFFFFFC0
ENDCHAR
STARTCHAR 00BE
ENCODING 190
SWIDTH 947 0
DWIDTH 91 0
BBX 84 56 4 0
BITMAP
00FFFE00000007E0000000
07FFFFC000000FE0000000
1FFFFFE000000FC0000000
3FFFFFF000001FC0000000
7FFFFFF800001F80000000
7FFFFFF800003F80000000
7F0003FC00003F00000000
7E0001FC00007F00000000
FC0000FC00007E00000000
FC0000FC0000FE00000000
FC0000FC0000FC00000000
FC0000FC0001F800000000
FC0000FC0001F800000000
FC0000FC0003F000000000
000000FC0007F000000000
000001F80007E000000000
000003F8000FE00003FC00
001FFFF8000FC00007FC00
001FFFF0001FC0000FFC00
001FFFE0001F80001FFC00
001FFFF0003F80003FFC00
001FFFF8003F00007FFC00
001FFFFC007E0000FFFC00
000000FC007E0001FEFC00
000000FE00FC0001FCFC00
0000007E01FC0003F8FC00
FC00007E01F80007F8FC00
FC00007E03F8000FF0FC00
FC00007E03F0001FE0FC00
FC00007E07F0003FC0FC00
FC00007E07E0007F80FC00
FC00007E0FE0007F00FC00
FE0000FE0FC000FE00FC00
FF0003FC1F8001FC00FC00
FFFFFFFC1F8003FC00FC00
7FFFFFFC3F0007F800FC00
3FFFFFF83F000FF000FC00
1FFFFFF07E001FE000FC00
0FFFFFC0FE003FC000FC00
01FFFE00FC003F8000FC00
00000001FC007F0000FC00
00000001F8007FFFFFFFF0
00000003F0007FFFFFFFF0
00000003F0007FFFFFFFF0
00000007E0007FFFFFFFF0
00000007E0007FFFFFFFF0
0000000FC0007FFFFFFFF0
0000000FC000000000FC00
0000001F8000000000FC00
0000003F8000000000FC00
0000003F0000000000FC00
0000007F0000000000FC00
0000007E0000000000FC00
000000FC0000000000FC00
000000FC0000000000FC00
000001F80000000000FC00
ENDCHAR
STARTCHAR 00BF
ENCODING 191
SWIDTH 479 0
DWIDTH 46 0
BBX 34 65 6 -9
BITMAP
0001FF0000
0001FF0000
0001FF0000
0001FF0000
0001FF0000
0001FF0000
0001FF0000
0001FF0000
0001FF0000
0001FF0000
0000000000
0000000000
0000000000
0000000000
0000000000
0000000000
0000000000
0000000000
0000000000
0001FC0000
0001FC0000
0001FC0000
0001FC0000
0001FC0000
0001FC0000
0001FC0000
0001FC0000
0001FC0000
0001FC0000
0001FC0000
0003FC0000
0007FC0000
003FF80000
00FFF80000
03FFF00000
0FFFF00000
1FFFC00000
3FFF000000
7FF8000000
7FE0000000
FF80000000
FF00000000
FE00000000
FE00000000
FE00000000
FE00000000
FE00000000
FE00000000
FE00001FC0
FE00001FC0
FE00001FC0
FE00001FC0
FE00001FC0
FE00001FC0
FE00001FC0
FF00003FC0
FF80007FC0
7FE001FF80
7FFFFFFF80
7FFFFFFF00
3FFFFFFF00
1FFFFFFE00
0FFFFFFC00
03FFFFF000
003FFF0000
ENDCHAR
STARTCHAR 00C0
ENCODING 192
SWIDTH 552 0
DWIDTH 53 0
BBX 51 76 1 1
BITMAP
00006000000000
0000F000000000
0000FC00000000
0001FE00000000
0003FF00000000
0001FFC0000000
00007FE0000000
00003FF0000000
00000FFC000000
000007FE000000
000001FF000000
0000007F000000
0000003E000000
0000000C000000
00000000000000
00000000000000
00000000000000
00000000000000
00000000000000
00000000000000
00000000000000
000007FC000000
00000FFE000000
00000FFE000000
00001FFF000000
00001FFF000000
00001FFF000000
00003FFF800000
00003FFF800000
00003FBF800000
00007FBFC00000
00007FBFC00000
0000FF1FE00000
0000FF1FE00000
0000FF0FE00000
0001FE0FF00000
0001FE0FF00000
0003FE07F80000
0003FC07F80000
0003FC07F80000
0007F803FC0000
0007F803FC0000
0007F801FE0000
000FF001FE0000
000FF001FE0000
001FF000FF0000
001FE000FF0000
001FE000FF0000
003FC0007F8000
003FC0007F8000
003FC0003FC000
007F80003FC000
007F80003FC000
00FF80001FE000
00FF00001FE000
00FF00001FF000
01FF00000FF000
01FE00000FF000
01FE000007F800
03FFFFFFFFF800
03FFFFFFFFF800
07FFFFFFFFFC00
07FFFFFFFFFC00
07FFFFFFFFFE00
0FFFFFFFFFFE00
0FF0000001FE00
0FF0000000FF00
1FE0000000FF00
1FE00000007F80
3FC00000007F80
3FC00000007F80
3FC00000003FC0
7F800000003FC0
7F800000001FC0
FF000000001FE0
FF000000001FE0
ENDCHAR
STARTCHAR 00C1
ENCODING 193
SWIDTH 552 0
DWIDTH 53 0
BBX 51 76 1 1
BITMAP
00000000600000
00000000F00000
00000003F00000
00000007F80000
0000000FFC0000
0000003FF80000
0000007FE00000
000000FFC00000
000003FF000000
000007FE000000
00000FF8000000
00000FE0000000
000007C0000000
00000300000000
00000000000000
00000000000000
00000000000000
00000000000000
00000000000000
00000000000000
00000000000000
000007FC000000
00000FFE000000
00000FFE000000
00001FFF000000
00001FFF000000
00001FFF000000
00003FFF800000
00003FFF800000
00003FBF800000
00007FBFC00000
00007FBFC00000
0000FF1FE00000
0000FF1FE00000
0000FF0FE00000
0001FE0FF00000
0001FE0FF00000
0003FE07F80000
0003FC07F80000
0003FC07F80000
0007F803FC0000
0007F803FC0000
0007F801FE0000
000FF001FE0000
000FF001FE0000
001FF000FF0000
001FE000FF0000
001FE000FF0000
003FC0007F8000
003FC0007F8000
003FC0003FC000
007F80003FC000
007F80003FC000
00FF80001FE000
00FF00001FE000
00FF00001FF000
01FF00000FF000
01FE00000FF000
01FE000007F800
03FFFFFFFFF800
03FFFFFFFFF800
07FFFFFFFFFC00
07FFFFFFFFFC00
07FFFFFFFFFE00
0FFFFFFFFFFE00
0FF0000001FE00
0FF0000000FF00
1FE0000000FF00
1FE00000007F80
3FC00000007F80
3FC00000007F80
3FC00000003FC0
7F800000003FC0
7F800000001FC0
FF000000001FE0
FF000000001FE0
ENDCHAR
STARTCHAR 00C2
ENCODING 194
SWIDTH 552 0
DWIDTH 53 0
BBX 51 76 1 0
BITMAP
00000060000000
000000F0000000
000001F8000000
000003FC000000
00000FFF000000
00001FFF800000
00003FFFC00000
00007F9FE00000
0001FF0FF80000
0003FC03FC0000
0007F801FE0000
000FF000FF0000
0007C0003E0000
000380001C0000
00010000080000
00000000000000
00000000000000
00000000000000
00000000000000
00000000000000
00000000000000
000007FC000000
00000FFE000000
00000FFE000000
00001FFF000000
00001FFF000000
00001FFF000000
00003FFF800000
00003FFF800000
00003FBF800000
00007FBFC00000
00007FBFC00000
0000FF1FE00000
0000FF1FE00000
0000FF0FE00000
0001FE0FF00000
0001FE0FF00000
0003FE07F80000
0003FC07F80000
0003FC07F80000
0007F803FC0000
0007F803FC0000
0007F801FE0000
000FF001FE0000
000FF001FE0000
001FF000FF0000
001FE000FF0000
001FE000FF0000
003FC0007F8000
003FC0007F8000
003FC0003FC000
007F80003FC000
007F80003FC000
00FF80001FE000
00FF00001FE000
00FF00001FF000
01FF00000FF000
01FE00000FF000
01FE000007F800
03FFFFFFFFF800
03FFFFFFFFF800
07FFFFFFFFFC00
07FFFFFFFFFC00
07FFFFFFFFFE00
0FFFFFFFFFFE00
0FF0000001FE00
0FF0000000FF00
1FE0000000FF00
1FE00000007F80
3FC00000007F80
3FC00000007F80
3FC00000003FC0
7F800000003FC0
7F800000001FC0
FF000000001FE0
FF000000001FE0
ENDCHAR
STARTCHAR 00C3
ENCODING 195
SWIDTH 552 0
DWIDTH 53 0
BBX 51 73 1 0
BITMAP
00007E00000000
0001FF800C0000
0003FFF01E0000
0007FFFC3F8000
0007FFFFFF0000
000FFFFFFE0000
001FC3FFFE0000
000F80FFFC0000
0007001FF80000
00010007E00000
00000000000000
00000000000000
00000000000000
00000000000000
00000000000000
00000000000000
00000000000000
00000000000000
000007FC000000
00000FFE000000
00000FFE000000
00001FFF000000
00001FFF000000
00001FFF000000
00003FFF800000
00003FFF800000
00003FBF800000
00007FBFC00000
00007FBFC00000
0000FF1FE00000
0000FF1FE00000
0000FF0FE00000
0001FE0FF00000
0001FE0FF00000
0003FE07F80000
0003FC07F80000
0003FC07F80000
0007F803FC0000
0007F803FC0000
0007F801FE0000
000FF001FE0000
000FF001FE0000
001FF000FF0000
001FE000FF0000
001FE000FF0000
003FC0007F8000
003FC0007F8000
003FC0003FC000
007F80003FC000
007F80003FC000
00FF80001FE000
00FF00001FE000
00FF00001FF000
01FF00000FF000
01FE00000FF000
01FE000007F800
03FFFFFFFFF800
03FFFFFFFFF800
07FFFFFFFFFC00
07FFFFFFFFFC00
07FFFFFFFFFE00
0FFFFFFFFFFE00
0FF0000001FE00
0FF0000000FF00
1FE0000000FF00
1FE00000007F80
3FC00000007F80
3FC00000007F80
3FC00000003FC0
7F800000003FC0
7F800000001FC0
FF000000001FE0
FF000000001FE0
ENDCHAR
STARTCHAR 00C4
ENCODING 196
SWIDTH 552 0
DWIDTH 53 0
BBX 51 71 1 0
BITMAP
000FF801FF0000
000FF801FF0000
000FF801FF0000
000FF801FF0000
000FF801FF0000
000FF801FF0000
000FF801FF0000
00000000000000
00000000000000
00000000000000
00000000000000
00000000000000
00000000000000
00000000000000
00000000000000
00000000000000
000007FC000000
00000FFE000000
00000FFE000000
00001FFF000000
00001FFF000000
00001FFF000000
00003FFF800000
00003FFF800000
00003FBF800000
00007FBFC00000
00007FBFC00000
0000FF1FE00000
0000FF1FE00000
0000FF0FE00000
0001FE0FF00000
0001FE0FF00000
0003FE07F80000
0003FC07F80000
0003FC07F80000
0007F803FC0000
0007F803FC0000
0007F801FE0000
000FF001FE0000
000FF001FE0000
001FF000FF0000
001FE000FF0000
001FE000FF0000
003FC0007F8000
003FC0007F8000
003FC0003FC000
007F80003FC000
007F80003FC000
00FF80001FE000
00FF00001FE000
00FF00001FF000
01FF00000FF000
01FE00000FF000
01FE000007F800
03FFFFFFFFF800
03FFFFFFFFF800
07FFFFFFFFFC00
07FFFFFFFFFC00
07FFFFFFFFFE00
0FFFFFFFFFFE00
0FF0000001FE00
0FF0000000FF00
1FE0000000FF00
1FE00000007F80
3FC00000007F80
3FC00000007F80
3FC00000003FC0
7F800000003FC0
7F800000001FC0
FF000000001FE0
FF000000001FE0
ENDCHAR
STARTCHAR 00C5
ENCODING 197
SWIDTH 552 0
DWIDTH 53 0
BBX 51 77 1 0
BITMAP
000001F8000000
000007FE000000
00000FFF000000
00001FFF000000
00001F0F800000
00003E07800000
00003C03C00000
00003C03C00000
00003C03C00000
00003C03C00000
00003C03C00000
00003E07C00000
00001F0F800000
00001FFF800000
00000FFF000000
000007FE000000
000001F8000000
00000000000000
00000000000000
00000000000000
00000000000000
00000000000000
000007FC000000
00000FFE000000
00000FFE000000
00001FFF000000
00001FFF000000
00001FFF000000
00003FFF800000
00003FFF800000
00003FBF800000
00007FBFC00000
00007FBFC00000
0000FF1FE00000
0000FF1FE00000
0000FF0FE00000
0001FE0FF00000
0001FE0FF00000
0003FE07F80000
0003FC07F80000
0003FC07F80000
0007F803FC0000
0007F803FC0000
0007F801FE0000
000FF001FE0000
000FF001FE0000
001FF000FF0000
001FE000FF0000
001FE000FF0000
003FC0007F8000
003FC0007F8000
003FC0003FC000
007F80003FC000
007F80003FC000
00FF80001FE000
00FF00001FE000
00FF00001FF000
01FF00000FF000
01FE00000FF000
01FE000007F800
03FFFFFFFFF800
03FFFFFFFFF800
07FFFFFFFFFC00
07FFFFFFFFFC00
07FFFFFFFFFE00
0FFFFFFFFFFE00
0FF0000001FE00
0FF0000000FF00
1FE0000000FF00
1FE00000007F80
3FC00000007F80
3FC00000007F80
3FC00000003FC0
7F800000003FC0
7F800000001FC0
FF000000001FE0
FF000000001FE0
ENDCHAR
STARTCHAR 00C6
ENCODING 198
SWIDTH 843 0
DWIDTH 81 0
BBX 74 55 2 0
BITMAP
00000003FFFFFFFFFFC0
00000007FFFFFFFFFFC0
00000007FFFFFFFFFFC0
0000000FFFFFFFFFFFC0
0000000FFFFFFFFFFFC0
0000001FFFFFFFFFFFC0
0000001FFFFFFFFFFFC0
0000003FC1FC00000000
0000007FC1FC00000000
0000007F81FC00000000
000000FF81FC00000000
000000FF01FC00000000
000001FF01FC00000000
000001FE01FC00000000
000003FE01FC00000000
000003FC01FC00000000
000007F801FC00000000
00000FF801FC00000000
00000FF001FC00000000
00001FF001FC00000000
00001FE001FC00000000
00003FE001FC00000000
00003FC001FC00000000
00007FC001FC00000000
00007F8001FFFFFFFF80
0000FF0001FFFFFFFF80
0001FF0001FFFFFFFF80
0001FE0001FFFFFFFF80
0003FE0001FFFFFFFF80
0003FC0001FFFFFFFF80
0007FC0001FFFFFFFF80
0007F80001FC00000000
000FF80001FC00000000
000FF00001FC00000000
001FF00001FC00000000
003FE00001FC00000000
003FC00001FC00000000
007FFFFFFFFC00000000
007FFFFFFFFC00000000
00FFFFFFFFFC00000000
00FFFFFFFFFC00000000
01FFFFFFFFFC00000000
01FFFFFFFFFC00000000
03FFFFFFFFFC00000000
07FC000001FC00000000
07FC000001FC00000000
0FF8000001FC00000000
0FF8000001FC00000000
1FF0000001FFFFFFFFC0
1FF0000001FFFFFFFFC0
3FE0000001FFFFFFFFC0
3FC0000001FFFFFFFFC0
7FC0000001FFFFFFFFC0
FF80000001FFFFFFFFC0
FF80000001FFFFFFFFC0
ENDCHAR
STARTCHAR 00C7
ENCODING 199
SWIDTH 562 0
DWIDTH 54 0
BBX 46 75 4 -19
BITMAP
0007FFFFF000
003FFFFFFE00
00FFFFFFFF80
03FFFFFFFFC0
07FFFFFFFFE0
0FFFFFFFFFF0
1FFFFFFFFFF0
3FFFC0003FF8
3FF8000007F8
3FE0000003F8
7FC0000003F8
7F80000003FC
7F80000001FC
7F80000001FC
7F00000001FC
FF00000001FC
FF00000001FC
FF00000001FC
FF00000001FC
FF0000000000
FF0000000000
FF0000000000
FF0000000000
FF0000000000
FF0000000000
FF0000000000
FF0000000000
FF0000000000
FF0000000000
FF0000000000
FF0000000000
FF0000000000
FF0000000000
FF0000000000
FF0000000000
FF0000000000
FF0000000000
FF00000001FC
FF00000001FC
FF00000001FC
FF80000001FC
FF80000001FC
FF80000001FC
FF80000001FC
7F80000001FC
7F80000001FC
7FC0000003FC
7FC0000003F8
3FE0000007F8
3FFC00007FF8
1FFFFFFFFFF0
1FFFFFFFFFF0
0FFFFFFFFFE0
07FFFFFFFFC0
01FFFFFFFF80
007FFFFFFE00
000FFFFFE000
000000000000
0000007E0000
0000007E0000
0000007E0000
0000007E0000
0000007E0000
000000FE0000
000000FE0000
000000FE0000
000001FC0000
000007FC0000
0001FFFC0000
0001FFF80000
0001FFF80000
0001FFF00000
0001FFE00000
0001FF800000
0001FC000000
ENDCHAR
STARTCHAR 00C8
ENCODING 200
SWIDTH 510 0
DWIDTH 49 0
BBX 37 76 7 1
BITMAP
0060000000
00F0000000
00FC000000
01FE000000
03FF000000
01FFC00000
007FE00000
003FF00000
000FFC0000
0007FE0000
0001FF0000
00007F0000
00003E0000
00000C0000
0000000000
0000000000
0000000000
0000000000
0000000000
0000000000
0000000000
FFFFFFFFF8
FFFFFFFFF8
FFFFFFFFF8
FFFFFFFFF8
FFFFFFFFF8
FFFFFFFFF8
FFFFFFFFF8
FE00000000
FE00000000
FE00000000
FE00000000
FE00000000
FE00000000
FE00000000
FE00000000
FE00000000
FE00000000
FE00000000
FE00000000
FE00000000
FE00000000
FE00000000
FE00000000
FFFFFFFFF0
FFFFFFFFF0
FFFFFFFFF0
FFFFFFFFF0
FFFFFFFFF0
FFFFFFFFF0
FFFFFFFFF0
FE00000000
FE00000000
FE00000000
FE00000000
FE00000000
FE00000000
FE00000000
FE00000000
FE00000000
FE00000000
FE00000000
FE00000000
FE00000000
FE00000000
FE00000000
FE00000000
FE00000000
FE00000000
FFFFFFFFF8
FFFFFFFFF8
FFFFFFFFF8
FFFFFFFFF8
FFFFFFFFF8
FFFFFFFFF8
FFFFFFFFF8
ENDCHAR
STARTCHAR 00C9
ENCODING 201
SWIDTH 510 0
DWIDTH 49 0
BBX 37 76 7 1
BITMAP
0000006000
000000F000
000003F000
000007F800
00000FFC00
00003FF800
00007FE000
0000FFC000
0003FF0000
0007FE0000
000FF80000
000FE00000
0007C00000
0003000000
0000000000
0000000000
0000000000
0000000000
0000000000
0000000000
0000000000
FFFFFFFFF8
FFFFFFFFF8
FFFFFFFFF8
FFFFFFFFF8
FFFFFFFFF8
FFFFFFFFF8
FFFFFFFFF8
FE00000000
FE00000000
FE00000000
FE00000000
FE00000000
FE00000000
FE00000000
FE00000000
FE00000000
FE00000000
FE00000000
FE00000000
FE00000000
FE00000000
FE00000000
FE00000000
FFFFFFFFF0
FFFFFFFFF0
FFFFFFFFF0
FFFFFFFFF0
FFFFFFFFF0
FFFFFFFFF0
FFFFFFFFF0
FE00000000
FE00000000
FE00000000
FE00000000
FE00000000
FE00000000
FE00000000
FE00000000
FE00000000
FE00000000
FE00000000
FE00000000
FE00000000
FE00000000
FE00000000
FE00000000
FE00000000
FE00000000
FFFFFFFFF8
FFFFFFFFF8
FFFFFFFFF8
FFFFFFFFF8
FFFFFFFFF8
FFFFFFFFF8
FFFFFFFFF8
ENDCHAR
STARTCHAR 00CA
ENCODING 202
SWIDTH 510 0
DWIDTH 49 0
BBX 37 76 7 0
BITMAP
0000600000
0000F00000
0001F80000
0003FC0000
000FFF0000
001FFF8000
003FFFC000
007F9FE000
01FF0FF800
03FC03FC00
07F801FE00
0FF000FF00
07C0003E00
0380001C00
0100000800
0000000000
0000000000
0000000000
0000000000
0000000000
0000000000
FFFFFFFFF8
FFFFFFFFF8
FFFFFFFFF8
FFFFFFFFF8
FFFFFFFFF8
FFFFFFFFF8
FFFFFFFFF8
FE00000000
FE00000000
FE00000000
FE00000000
FE00000000
FE00000000
FE00000000
FE00000000
FE00000000
FE00000000
FE00000000
FE00000000
FE00000000
FE00000000
FE00000000
FE00000000
FFFFFFFFF0
FFFFFFFFF0
FFFFFFFFF0
FFFFFFFFF0
FFFFFFFFF0
FFFFFFFFF0
FFFFFFFFF0
FE00000000
FE00000000
FE00000000
FE00000000
FE00000000
FE00000000
FE00000000
FE00000000
FE00000000
FE00000000
FE00000000
FE00000000
FE00000000
FE00000000
FE00000000
FE00000000
FE00000000
FE00000000
FFFFFFFFF8
FFFFFFFFF8
FFFFFFFFF8
FFFFFFFFF8
FFFFFFFFF8
FFFFFFFFF8
FFFFFFFFF8
ENDCHAR
STARTCHAR 00CB
ENCODING 203
SWIDTH 510 0
DWIDTH 49 0
BBX 37 71 7 0
BITMAP
0FF801FF00
0FF801FF00
0FF801FF00
0FF801FF00
0FF801FF00
0FF801FF00
0FF801FF00
0000000000
0000000000
0000000000
0000000000
0000000000
0000000000
0000000000
0000000000
0000000000
FFFFFFFFF8
FFFFFFFFF8
FFFFFFFFF8
FFFFFFFFF8
FFFFFFFFF8
FFFFFFFFF8
FFFFFFFFF8
FE00000000
FE00000000
FE00000000
FE00000000
FE00000000
FE00000000
FE00000000
FE00000000
FE00000000
FE00000000
FE00000000
FE00000000
FE00000000
FE00000000
FE00000000
FE00000000
FFFFFFFFF0
FFFFFFFFF0
FFFFFFFFF0
FFFFFFFFF0
FFFFFFFFF0
FFFFFFFFF0
FFFFFFFFF0
FE00000000
FE00000000
FE00000000
FE00000000
FE00000000
FE00000000
FE00000000
FE00000000
FE00000000
FE00000000
FE00000000
FE00000000
FE00000000
FE00000000
FE00000000
FE00000000
FE00000000
FE00000000
FFFFFFFFF8
FFFFFFFFF8
FFFFFFFFF8
FFFFFFFFF8
FFFFFFFFF8
FFFFFFFFF8
FFFFFFFFF8
ENDCHAR
STARTCHAR 00CC
ENCODING 204
SWIDTH 218 0
DWIDTH 21 0
BBX 18 76 -1 1
BITMAP
180000
3C0000
3F0000
7F8000
FFC000
7FF000
1FF800
0FFC00
03FF00
01FF80
007FC0
001FC0
000F80
000300
000000
000000
000000
000000
000000
000000
000000
00FE00
00FE00
00FE00
00FE00
00FE00
00FE00
00FE00
00FE00
00FE00
00FE00
00FE00
00FE00
00FE00
00FE00
00FE00
00FE00
00FE00
00FE00
00FE00
00FE00
00FE00
00FE00
00FE00
00FE00
00FE00
00FE00
00FE00
00FE00
00FE00
00FE00
00FE00
00FE00
00FE00
00FE00
00FE00
00FE00
00FE00
00FE00
00FE00
00FE00
00FE00
00FE00
00FE00
00FE00
00FE00
00FE00
00FE00
00FE00
00FE00
00FE00
00FE00
00FE00
00FE00
00FE00
00FE00
ENDCHAR
STARTCHAR 00CD
ENCODING 205
SWIDTH 218 0
DWIDTH 21 0
BBX 18 76 5 1
BITMAP
000600
000F00
003F00
007F80
00FFC0
03FF80
07FE00
0FFC00
3FF000
7FE000
FF8000
FE0000
7C0000
300000
000000
000000
000000
000000
000000
000000
000000
3F8000
3F8000
3F8000
3F8000
3F8000
3F8000
3F8000
3F8000
3F8000
3F8000
3F8000
3F8000
3F8000
3F8000
3F8000
3F8000
3F8000
3F8000
3F8000
3F8000
3F8000
3F8000
3F8000
3F8000
3F8000
3F8000
3F8000
3F8000
3F8000
3F8000
3F8000
3F8000
3F8000
3F8000
3F8000
3F8000
3F8000
3F8000
3F8000
3F8000
3F8000
3F8000
3F8000
3F8000
3F8000
3F8000
3F8000
3F8000
3F8000
3F8000
3F8000
3F8000
3F8000
3F8000
3F8000
ENDCHAR
STARTCHAR 00CE
ENCODING 206
SWIDTH 218 0
DWIDTH 21 0
BBX 27 76 -3 0
BITMAP
00040000
000E0000
003F8000
007FC000
00FFE000
01FFF000
07FFFC00
0FFBFE00
1FE0FF00
3FC07F80
FF803FE0
FE000FE0
FC0007E0
780003C0
20000080
00000000
00000000
00000000
00000000
00000000
00000000
003F8000
003F8000
003F8000
003F8000
003F8000
003F8000
003F8000
003F8000
003F8000
003F8000
003F8000
003F8000
003F8000
003F8000
003F8000
003F8000
003F8000
003F8000
003F8000
003F8000
003F8000
003F8000
003F8000
003F8000
003F8000
003F8000
003F8000
003F8000
003F8000
003F8000
003F8000
003F8000
003F8000
003F8000
003F8000
003F8000
003F8000
003F8000
003F8000
003F8000
003F8000
003F8000
003F8000
003F8000
003F8000
003F8000
003F8000
003F8000
003F8000
003F8000
003F8000
003F8000
003F8000
003F8000
003F8000
ENDCHAR
STARTCHAR 00CF
ENCODING 207
SWIDTH 218 0
DWIDTH 21 0
BBX 22 71 0 0
BITMAP
FF87FC
FF87FC
FF87FC
FF87FC
FF87FC
FF87FC
FF87FC
000000
000000
000000
000000
000000
000000
000000
000000
000000
01FC00
01FC00
01FC00
01FC00
01FC00
01FC00
01FC00
01FC00
01FC00
01FC00
01FC00
01FC00
01FC00
01FC00
01FC00
01FC00
01FC00
01FC00
01FC00
01FC00
01FC00
01FC00
01FC00
01FC00
01FC00
01FC00
01FC00
01FC00
01FC00
01FC00
01FC00
01FC00
01FC00
01FC00
01FC00
01FC00
01FC00
01FC00
01FC00
01FC00
01FC00
01FC00
01FC00
01FC00
01FC00
01FC00
01FC00
01FC00
01FC00
01FC00
01FC00
01FC00
01FC00
01FC00
01FC00
ENDCHAR
STARTCHAR 00D0
ENCODING 208
SWIDTH 604 0
DWIDTH 58 0
BBX 51 55 3 0
BITMAP
07FFFFFFFC0000
07FFFFFFFFC000
07FFFFFFFFE000
07FFFFFFFFF800
07FFFFFFFFFC00
07FFFFFFFFFE00
07FFFFFFFFFE00
07F0000007FF00
07F0000000FF80
07F00000007F80
07F00000003F80
07F00000001FC0
07F00000001FC0
07F00000000FC0
07F00000000FC0
07F00000000FC0
07F00000000FE0
07F00000000FE0
07F00000000FE0
07F00000000FE0
07F00000000FE0
07F00000000FE0
07F00000000FE0
07F00000000FE0
07F00000000FE0
FFFFFFC0000FE0
FFFFFFC0000FE0
FFFFFFC0000FE0
FFFFFFC0000FE0
FFFFFFC0000FE0
07F00000000FE0
07F00000000FE0
07F00000000FE0
07F00000000FE0
07F00000000FE0
07F00000000FE0
07F00000000FE0
07F00000000FE0
07F00000000FE0
07F00000000FE0
07F00000001FE0
07F00000001FE0
07F00000001FC0
07F00000003FC0
07F00000003FC0
07F00000007F80
07F0000001FF80
07F000000FFF80
07FFFFFFFFFF00
07FFFFFFFFFE00
07FFFFFFFFFC00
07FFFFFFFFF800
07FFFFFFFFF000
07FFFFFFFFC000
07FFFFFFFC0000
ENDCHAR
STARTCHAR 00D1
ENCODING 209
SWIDTH 645 0
DWIDTH 62 0
BBX 48 73 7 0
BITMAP
0001F8000000
0007FE003000
000FFFC07800
001FFFF0FE00
001FFFFFFC00
003FFFFFF800
007F0FFFF800
003E03FFF000
001C007FE000
0004001F8000
000000000000
000000000000
000000000000
000000000000
000000000000
000000000000
000000000000
000000000000
FFE00000007F
FFE00000007F
FFF00000007F
FFF80000007F
FFF80000007F
FFFC0000007F
FFFE0000007F
FFFE0000007F
FEFF0000007F
FE7F8000007F
FE7F8000007F
FE3FC000007F
FE1FC000007F
FE1FE000007F
FE0FF000007F
FE0FF000007F
FE07F800007F
FE03FC00007F
FE03FC00007F
FE01FE00007F
FE00FF00007F
FE00FF00007F
FE007F80007F
FE007F80007F
FE003FC0007F
FE001FE0007F
FE001FE0007F
FE000FF0007F
FE0007F8007F
FE0007F8007F
FE0003FC007F
FE0001FC007F
FE0001FE007F
FE0000FF007F
FE0000FF007F
FE00007F807F
FE00003FC07F
FE00003FC07F
FE00001FE07F
FE00000FF07F
FE00000FF07F
FE000007F87F
FE000003F87F
FE000003FC7F
FE000001FE7F
FE000001FE7F
FE000000FF7F
FE0000007FFF
FE0000007FFF
FE0000003FFF
FE0000001FFF
FE0000001FFF
FE0000000FFF
FE0000000FFF
FE00000007FF
ENDCHAR
STARTCHAR 00D2
ENCODING 210
SWIDTH 593 0
DWIDTH 57 0
BBX 49 76 4 1
BITMAP
0000C000000000
0001E000000000
0001F800000000
0003FC00000000
0007FE00000000
0003FF80000000
0000FFC0000000
00007FE0000000
00001FF8000000
00000FFC000000
000003FE000000
000000FE000000
0000007C000000
00000018000000
00000000000000
00000000000000
00000000000000
00000000000000
00000000000000
00000000000000
00000000000000
0003FFFFE00000
007FFFFFFE0000
01FFFFFFFFC000
03FFFFFFFFE000
07FFFFFFFFF000
0FFFFFFFFFF800
1FFFFFFFFFFC00
1FFC00001FFC00
3FE0000003FE00
3FC0000001FE00
7F80000000FF00
7F80000000FF00
7F800000007F00
7F000000007F00
FF000000007F80
FF000000007F80
FF000000007F80
FF000000007F80
FF000000007F80
FF000000007F80
FF000000007F80
FF000000007F80
FF000000007F80
FF000000007F80
FF000000007F80
FF000000007F80
FF000000007F80
FF000000007F80
FF000000007F80
FF000000007F80
FF000000007F80
FF000000007F80
FF000000007F80
FF000000007F80
FF000000007F80
FF000000007F80
FF000000007F80
FF000000007F80
FF000000007F80
FF000000007F80
FF000000007F80
7F000000007F00
7F800000007F00
7F80000000FF00
7F80000000FF00
3FC0000001FE00
3FE0000003FE00
3FFC00001FFE00
1FFFFFFFFFFC00
0FFFFFFFFFF800
07FFFFFFFFF800
03FFFFFFFFE000
01FFFFFFFFC000
007FFFFFFF0000
0007FFFFE00000
ENDCHAR
STARTCHAR 00D3
ENCODING 211
SWIDTH 593 0
DWIDTH 57 0
BBX 49 76 4 1
BITMAP
00000000C00000
00000001E00000
00000007E00000
0000000FF00000
0000001FF80000
0000007FF00000
000000FFC00000
000001FF800000
000007FE000000
00000FFC000000
00001FF0000000
00001FC0000000
00000F80000000
00000600000000
00000000000000
00000000000000
00000000000000
00000000000000
00000000000000
00000000000000
00000000000000
0003FFFFE00000
007FFFFFFE0000
01FFFFFFFFC000
03FFFFFFFFE000
07FFFFFFFFF000
0FFFFFFFFFF800
1FFFFFFFFFFC00
1FFC00001FFC00
3FE0000003FE00
3FC0000001FE00
7F80000000FF00
7F80000000FF00
7F800000007F00
7F000000007F00
FF000000007F80
FF000000007F80
FF000000007F80
FF000000007F80
FF000000007F80
FF000000007F80
FF000000007F80
FF000000007F80
FF000000007F80
FF000000007F80
FF000000007F80
FF000000007F80
FF000000007F80
FF000000007F80
FF000000007F80
FF000000007F80
FF000000007F80
FF000000007F80
FF000000007F80
FF000000007F80
FF000000007F80
FF000000007F80
FF000000007F80
FF000000007F80
FF000000007F80
FF000000007F80
FF000000007F80
7F000000007F00
7F800000007F00
7F80000000FF00
7F80000000FF00
3FC0000001FE00
3FE0000003FE00
3FFC00001FFE00
1FFFFFFFFFFC00
0FFFFFFFFFF800
07FFFFFFFFF800
03FFFFFFFFE000
01FFFFFFFFC000
007FFFFFFF0000
0007FFFFE00000
ENDCHAR
STARTCHAR 00D4
ENCODING 212
SWIDTH 593 0
DWIDTH 57 0
BBX 49 76 4 0
BITMAP
000000C0000000
000001E0000000
000003F0000000
000007F8000000
00001FFE000000
00003FFF000000
00007FFF800000
0000FF3FC00000
0003FE1FF00000
0007F807F80000
000FF003FC0000
001FE001FE0000
000F80007C0000
00070000380000
00020000100000
00000000000000
00000000000000
00000000000000
00000000000000
00000000000000
00000000000000
0003FFFFE00000
007FFFFFFE0000
01FFFFFFFFC000
03FFFFFFFFE000
07FFFFFFFFF000
0FFFFFFFFFF800
1FFFFFFFFFFC00
1FFC00001FFC00
3FE0000003FE00
3FC0000001FE00
7F80000000FF00
7F80000000FF00
7F800000007F00
7F000000007F00
FF000000007F80
FF000000007F80
FF000000007F80
FF000000007F80
FF000000007F80
FF000000007F80
FF000000007F80
FF000000007F80
FF000000007F80
FF000000007F80
FF000000007F80
FF000000007F80
FF000000007F80
FF000000007F80
FF000000007F80
FF000000007F80
FF000000007F80
FF000000007F80
FF000000007F80
FF000000007F80
FF000000007F80
FF000000007F80
FF000000007F80
FF000000007F80
FF000000007F80
FF000000007F80
FF000000007F80
7F000000007F00
7F800000007F00
7F80000000FF00
7F80000000FF00
3FC0000001FE00
3FE0000003FE00
3FFC00001FFE00
1FFFFFFFFFFC00
0FFFFFFFFFF800
07FFFFFFFFF800
03FFFFFFFFE000
01FFFFFFFFC000
007FFFFFFF0000
0007FFFFE00000
ENDCHAR
STARTCHAR 00D5
ENCODING 213
SWIDTH 593 0
DWIDTH 57 0
BBX 49 73 4 0
BITMAP
0000FC00000000
0003FF00180000
0007FFE03C0000
000FFFF87F0000
000FFFFFFE0000
001FFFFFFC0000
003F87FFFC0000
001F01FFF80000
000E003FF00000
0002000FC00000
00000000000000
00000000000000
00000000000000
00000000000000
00000000000000
00000000000000
00000000000000
00000000000000
0003FFFFE00000
007FFFFFFE0000
01FFFFFFFFC000
03FFFFFFFFE000
07FFFFFFFFF000
0FFFFFFFFFF800
1FFFFFFFFFFC00
1FFC00001FFC00
3FE0000003FE00
3FC0000001FE00
7F80000000FF00
7F80000000FF00
7F800000007F00
7F000000007F00
FF000000007F80
FF000000007F80
FF000000007F80
FF000000007F80
FF000000007F80
FF000000007F80
FF000000007F80
FF000000007F80
FF000000007F80
FF000000007F80
FF000000007F80
FF000000007F80
FF000000007F80
FF000000007F80
FF000000007F80
FF000000007F80
FF000000007F80
FF000000007F80
FF000000007F80
FF000000007F80
FF000000007F80
FF000000007F80
FF000000007F80
FF000000007F80
FF000000007F80
FF000000007F80
FF000000007F80
7F000000007F00
7F800000007F00
7F80000000FF00
7F80000000FF00
3FC0000001FE00
3FE0000003FE00
3FFC00001FFE00
1FFFFFFFFFFC00
0FFFFFFFFFF800
07FFFFFFFFF800
03FFFFFFFFE000
01FFFFFFFFC000
007FFFFFFF0000
0007FFFFE00000
ENDCHAR
STARTCHAR 00D6
ENCODING 214
SWIDTH 593 0
DWIDTH 57 0
BBX 49 71 4 0
BITMAP
001FF003FE0000
001FF003FE0000
001FF003FE0000
001FF003FE0000
001FF003FE0000
001FF003FE0000
001FF003FE0000
00000000000000
00000000000000
00000000000000
00000000000000
00000000000000
00000000000000
00000000000000
00000000000000
00000000000000
0003FFFFE00000
007FFFFFFE0000
01FFFFFFFFC000
03FFFFFFFFE000
07FFFFFFFFF000
0FFFFFFFFFF800
1FFFFFFFFFFC00
1FFC00001FFC00
3FE0000003FE00
3FC0000001FE00
7F80000000FF00
7F80000000FF00
7F800000007F00
7F000000007F00
FF000000007F80
FF000000007F80
FF000000007F80
FF000000007F80
FF000000007F80
FF000000007F80
FF000000007F80
FF000000007F80
FF000000007F80
FF000000007F80
FF000000007F80
FF000000007F80
FF000000007F80
FF000000007F80
FF000000007F80
FF000000007F80
FF000000007F80
FF000000007F80
FF000000007F80
FF000000007F80
FF000000007F80
FF000000007F80
FF000000007F80
FF000000007F80
FF000000007F80
FF000000007F80
FF000000007F80
7F000000007F00
7F800000007F00
7F80000000FF00
7F80000000FF00
3FC0000001FE00
3FE0000003FE00
3FFC00001FFE00
1FFFFFFFFFFC00
0FFFFFFFFFF800
07FFFFFFFFF800
03FFFFFFFFE000
01FFFFFFFFC000
007FFFFFFF0000
0007FFFFE00000
ENDCHAR
STARTCHAR 00D7
ENCODING 215
SWIDTH 531 0
DWIDTH 51 0
BBX 40 40 5 7
BITMAP
0800000018
1C0000003C
3E0000007E
7F000000FF
FF800001FF
7FC00003FE
3FE00007FC
1FF0000FF8
0FF8001FF0
07FC003FE0
03FE007FC0
01FF00FF80
00FF81FF00
007FC3FE00
003FE7FC00
001FFFF800
000FFFF000
0007FFE000
0003FFC000
0001FF8000
0001FF8000
0003FFC000
0007FFE000
000FFFF000
001FFFF800
003FE7FC00
007FC3FE00
00FF81FF00
01FF00FF80
03FE007FC0
07FC003FE0
0FF8001FF0
1FF0000FF8
3FE00007FC
7FC00003FE
FF800001FF
FF000000FF
7E0000007E
3C0000003C
1800000018
ENDCHAR
STARTCHAR 00D8
ENCODING 216
SWIDTH 541 0
DWIDTH 52 0
BBX 48 59 2 -3
BITMAP
000000000001
000FFFFFC003
007FFFFFFC07
01FFFFFFFF0F
07FFFFFFFFDF
0FFFFFFFFFFF
1FFFFFFFFFFF
1FFFFFFFFFFF
3FFC00001FFE
3FE0000007FE
7FC0000003FC
7F80000007FC
7F8000000FFE
FF0000001FFE
FF0000003FFE
FF0000003FFE
FE0000007FFF
FE000000FF7F
FE000001FE7F
FE000003FC7F
FE000007F87F
FE00000FF07F
FE00001FE07F
FE00003FC07F
FE00007F807F
FE0000FF007F
FE0001FE007F
FE0003FC007F
FE0007F8007F
FE000FF0007F
FE001FE0007F
FE003FC0007F
FE007F80007F
FE007F00007F
FE00FE00007F
FE01FC00007F
FE03FC00007F
FE07F800007F
FE0FF000007F
FE1FE000007F
FE3FC000007F
FE7F8000007F
FEFF0000007F
FFFE000000FF
7FFC000000FF
7FF8000000FF
7FF0000001FE
7FE0000001FE
3FC0000003FE
3FE0000007FC
7FF800003FFC
7FFFFFFFFFF8
FFFFFFFFFFF8
FFFFFFFFFFF0
FBFFFFFFFFE0
F1FFFFFFFF80
E07FFFFFFE00
C007FFFFF000
800000000000
ENDCHAR
STARTCHAR 00D9
ENCODING 217
SWIDTH 614 0
DWIDTH 59 0
BBX 45 76 7 1
BITMAP
000600000000
000F00000000
000FC0000000
001FE0000000
003FF0000000
001FFC000000
0007FE000000
0003FF000000
0000FFC00000
00007FE00000
00001FF00000
000007F00000
000003E00000
000000C00000
000000000000
000000000000
000000000000
000000000000
000000000000
000000000000
000000000000
FE00000003F8
FE00000003F8
FE00000003F8
FE00000003F8
FE00000003F8
FE00000003F8
FE00000003F8
FE00000003F8
FE00000003F8
FE00000003F8
FE00000003F8
FE00000003F8
FE00000003F8
FE00000003F8
FE00000003F8
FE00000003F8
FE00000003F8
FE00000003F8
FE00000003F8
FE00000003F8
FE00000003F8
FE00000003F8
FE00000003F8
FE00000003F8
FE00000003F8
FE00000003F8
FE00000003F8
FE00000003F8
FE00000003F8
FE00000003F8
FE00000003F8
FE00000003F8
FE00000003F8
FE00000003F8
FE00000003F8
FE00000003F8
FE00000003F8
FE00000003F8
FE00000003F8
FE00000003F8
FE00000003F8
FE00000003F8
FE00000003F8
FE00000007F8
FF00000007F8
7F00000007F0
7FC000001FF0
7FF00000FFF0
3FFFFFFFFFE0
3FFFFFFFFFE0
1FFFFFFFFFC0
0FFFFFFFFF80
03FFFFFFFE00
00FFFFFFF800
000FFFFF8000
ENDCHAR
STARTCHAR 00DA
ENCODING 218
SWIDTH 614 0
DWIDTH 59 0
BBX 45 76 7 1
BITMAP
000000060000
0000000F0000
0000003F0000
0000007F8000
000000FFC000
000003FF8000
000007FE0000
00000FFC0000
00003FF00000
00007FE00000
0000FF800000
0000FE000000
00007C000000
000030000000
000000000000
000000000000
000000000000
000000000000
000000000000
000000000000
000000000000
FE00000003F8
FE00000003F8
FE00000003F8
FE00000003F8
FE00000003F8
FE00000003F8
FE00000003F8
FE00000003F8
FE00000003F8
FE00000003F8
FE00000003F8
FE00000003F8
FE00000003F8
FE00000003F8
FE00000003F8
FE00000003F8
FE00000003F8
FE00000003F8
FE00000003F8
FE00000003F8
FE00000003F8
FE00000003F8
FE00000003F8
FE00000003F8
FE00000003F8
FE00000003F8
FE00000003F8
FE00000003F8
FE00000003F8
FE00000003F8
FE00000003F8
FE00000003F8
FE00000003F8
FE00000003F8
FE00000003F8
FE00000003F8
FE00000003F8
FE00000003F8
FE00000003F8
FE00000003F8
FE00000003F8
FE00000003F8
FE00000003F8
FE00000007F8
FF00000007F8
7F00000007F0
7FC000001FF0
7FF00000FFF0
3FFFFFFFFFE0
3FFFFFFFFFE0
1FFFFFFFFFC0
0FFFFFFFFF80
03FFFFFFFE00
00FFFFFFF800
000FFFFF8000
ENDCHAR
STARTCHAR 00DB
ENCODING 219
SWIDTH 614 0
DWIDTH 59 0
BBX 45 76 7 0
BITMAP
000006000000
00000F000000
00001F800000
00003FC00000
0000FFF00000
0001FFF80000
0003FFFC0000
0007F9FE0000
001FF0FF8000
003FC03FC000
007F801FE000
00FF000FF000
007C0003E000
00380001C000
001000008000
000000000000
000000000000
000000000000
000000000000
000000000000
000000000000
FE00000003F8
FE00000003F8
FE00000003F8
FE00000003F8
FE00000003F8
FE00000003F8
FE00000003F8
FE00000003F8
FE00000003F8
FE00000003F8
FE00000003F8
FE00000003F8
FE00000003F8
FE00000003F8
FE00000003F8
FE00000003F8
FE00000003F8
FE00000003F8
FE00000003F8
FE00000003F8
FE00000003F8
FE00000003F8
FE00000003F8
FE00000003F8
FE00000003F8
FE00000003F8
FE00000003F8
FE00000003F8
FE00000003F8
FE00000003F8
FE00000003F8
FE00000003F8
FE00000003F8
FE00000003F8
FE00000003F8
FE00000003F8
FE00000003F8
FE00000003F8
FE00000003F8
FE00000003F8
FE00000003F8
FE00000003F8
FE00000003F8
FE00000007F8
FF00000007F8
7F00000007F0
7FC000001FF0
7FF00000FFF0
3FFFFFFFFFE0
3FFFFFFFFFE0
1FFFFFFFFFC0
0FFFFFFFFF80
03FFFFFFFE00
00FFFFFFF800
000FFFFF8000
ENDCHAR
STARTCHAR 00DC
ENCODING 220
SWIDTH 614 0
DWIDTH 59 0
BBX 45 71 7 0
BITMAP
00FF801FF000
00FF801FF000
00FF801FF000
00FF801FF000
00FF801FF000
00FF801FF000
00FF801FF000
000000000000
000000000000
000000000000
000000000000
000000000000
000000000000
000000000000
000000000000
000000000000
FE00000003F8
FE00000003F8
FE00000003F8
FE00000003F8
FE00000003F8
FE00000003F8
FE00000003F8
FE00000003F8
FE00000003F8
FE00000003F8
FE00000003F8
FE00000003F8
FE00000003F8
FE00000003F8
FE00000003F8
FE00000003F8
FE00000003F8
FE00000003F8
FE00000003F8
FE00000003F8
FE00000003F8
FE00000003F8
FE00000003F8
FE00000003F8
FE00000003F8
FE00000003F8
FE00000003F8
FE00000003F8
FE00000003F8
FE00000003F8
FE00000003F8
FE00000003F8
FE00000003F8
FE00000003F8
FE00000003F8
FE00000003F8
FE00000003F8
FE00000003F8
FE00000003F8
FE00000003F8
FE00000003F8
FE00000003F8
FE00000003F8
FE00000007F8
FF00000007F8
7F00000007F0
7FC000001FF0
7FF00000FFF0
3FFFFFFFFFE0
3FFFFFFFFFE0
1FFFFFFFFFC0
0FFFFFFFFF80
03FFFFFFFE00
00FFFFFFF800
000FFFFF8000
ENDCHAR
STARTCHAR 00DD
ENCODING 221
SWIDTH 520 0
DWIDTH 50 0
BBX 49 76 0 1
BITMAP
00000000C00000
00000001E00000
00000007E00000
0000000FF00000
0000001FF80000
0000007FF00000
000000FFC00000
000001FF800000
000007FE000000
00000FFC000000
00001FF0000000
00001FC0000000
00000F80000000
00000600000000
00000000000000
00000000000000
00000000000000
00000000000000
00000000000000
00000000000000
00000000000000
FF80000000FF80
7FC0000000FF80
3FC0000001FF00
3FE0000003FE00
1FF0000003FE00
0FF0000007FC00
0FF800000FF800
07FC00000FF800
03FC00001FF000
03FE00003FE000
01FF00003FE000
00FF00007FC000
00FF8000FF8000
007FC000FF0000
007FC001FF0000
003FE003FE0000
001FF003FC0000
001FF007FC0000
000FF80FF80000
0007FC0FF00000
0007FC1FF00000
0003FE3FE00000
0001FF3FC00000
0001FF7FC00000
0000FFFF800000
00007FFF000000
00007FFF000000
00003FFE000000
00001FFC000000
00001FFC000000
00000FF8000000
000007F0000000
000007F0000000
000007F0000000
000007F0000000
000007F0000000
000007F0000000
000007F0000000
000007F0000000
000007F0000000
000007F0000000
000007F0000000
000007F0000000
000007F0000000
000007F0000000
000007F0000000
000007F0000000
000007F0000000
000007F0000000
000007F0000000
000007F0000000
000007F0000000
000007F0000000
000007F0000000
000007F0000000
ENDCHAR
STARTCHAR 00DE
ENCODING 222
SWIDTH 541 0
DWIDTH 52 0
BBX 42 55 7 0
BITMAP
FE0000000000
FE0000000000
FE0000000000
FE0000000000
FE0000000000
FE0000000000
FE0000000000
FE0000000000
FE0000000000
FE0000000000
FFFFFFFF8000
FFFFFFFFF000
FFFFFFFFFC00
FFFFFFFFFE00
FFFFFFFFFE00
FFFFFFFFFF00
FFFFFFFFFF00
FE000001FF80
FE0000007F80
FE0000003F80
FE0000003F80
FE0000001FC0
FE0000001FC0
FE0000001FC0
FE0000001FC0
FE0000001FC0
FE0000001FC0
FE0000001FC0
FE0000001FC0
FE0000001FC0
FE0000001FC0
FE0000001FC0
FE0000001FC0
FE0000001F80
FE0000003F80
FE0000007F80
FE000003FF80
FFFFFFFFFF00
FFFFFFFFFF00
FFFFFFFFFE00
FFFFFFFFFC00
FFFFFFFFF800
FFFFFFFFE000
FFFFFFFF8000
FE0000000000
FE0000000000
FE0000000000
FE0000000000
FE0000000000
FE0000000000
FE0000000000
FE0000000000
FE0000000000
FE0000000000
FE0000000000
ENDCHAR
STARTCHAR 00DF
ENCODING 223
SWIDTH 541 0
DWIDTH 52 0
BBX 41 60 5 -4
BITMAP
007FFFFC0000
03FFFFFFC000
07FFFFFFF000
1FFFFFFFF800
1FFFFFFFFC00
3FFFFFFFFE00
7FFFFFFFFF00
7FE00003FF00
7F800001FF00
7F000000FF00
FF000000FF80
FE0000007F80
FE0000007F80
FE0000007F80
FE0000007F80
FE0000007F80
FE0000007F80
FE0000007F80
FE0000007F80
FE0000007F00
FE000000FF00
FE000000FF00
FE000001FF00
FE000007FE00
FE01FFFFFE00
FE01FFFFFC00
FE01FFFFF000
FE01FFFFC000
FE01FFFFF800
FE01FFFFFC00
FE01FFFFFE00
FE000003FF00
FE000000FF00
FE0000007F00
FE0000007F00
FE0000003F80
FE0000003F80
FE0000003F80
FE0000003F80
FE0000003F80
FE0000003F80
FE0000003F80
FE0000003F80
FE0000003F80
FE0000003F80
FE0000007F80
FE0000007F00
FE0000007F00
FE000000FF00
FE000007FF00
FE01FFFFFE00
FE01FFFFFE00
FE01FFFFFC00
FE01FFFFF800
FE01FFFFE000
FE01FFFF8000
FE01FFF00000
FE0000000000
FE0000000000
FE0000000000
ENDCHAR
STARTCHAR 00E0
ENCODING 224
SWIDTH 552 0
DWIDTH 53 0
BBX 51 76 1 1
BITMAP
00006000000000
0000F000000000
0000FC00000000
0001FE00000000
0003FF00000000
0001FFC0000000
00007FE0000000
00003FF0000000
00000FFC000000
000007FE000000
000001FF000000
0000007F000000
0000003E000000
0000000C000000
00000000000000
00000000000000
00000000000000
00000000000000
00000000000000
00000000000000
00000000000000
000007FC000000
00000FFE000000
00000FFE000000
00001FFF000000
00001FFF000000
00001FFF000000
00003FFF800000
00003FFF800000
00003FBF800000
00007FBFC00000
00007FBFC00000
0000FF1FE00000
0000FF1FE00000
0000FF0FE00000
0001FE0FF00000
0001FE0FF00000
0003FE07F80000
0003FC07F80000
0003FC07F80000
0007F803FC0000
0007F803FC0000
0007F801FE0000
000FF001FE0000
000FF001FE0000
001FF000FF0000
001FE000FF0000
001FE000FF0000
003FC0007F8000
003FC0007F8000
003FC0003FC000
007F80003FC000
007F80003FC000
00FF80001FE000
00FF00001FE000
00FF00001FF000
01FF00000FF000
01FE00000FF000
01FE000007F800
03FFFFFFFFF800
03FFFFFFFFF800
07FFFFFFFFFC00
07FFFFFFFFFC00
07FFFFFFFFFE00
0FFFFFFFFFFE00
0FF0000001FE00
0FF0000000FF00
1FE0000000FF00
1FE00000007F80
3FC00000007F80
3FC00000007F80
3FC00000003FC0
7F800000003FC0
7F800000001FC0
FF000000001FE0
FF000000001FE0
ENDCHAR
STARTCHAR 00E1
ENCODING 225
SWIDTH 552 0
DWIDTH 53 0
BBX 51 76 1 1
BITMAP
00000000600000
00000000F00000
00000003F00000
00000007F80000
0000000FFC0000
0000003FF80000
0000007FE00000
000000FFC00000
000003FF000000
000007FE000000
00000FF8000000
00000FE0000000
000007C0000000
00000300000000
00000000000000
00000000000000
00000000000000
00000000000000
00000000000000
00000000000000
00000000000000
000007FC000000
00000FFE000000
00000FFE000000
00001FFF000000
00001FFF000000
00001FFF000000
00003FFF800000
00003FFF800000
00003FBF800000
00007FBFC00000
00007FBFC00000
0000FF1FE00000
0000FF1FE00000
0000FF0FE00000
0001FE0FF00000
0001FE0FF00000
0003FE07F80000
0003FC07F80000
0003FC07F80000
0007F803FC0000
0007F803FC0000
0007F801FE0000
000FF001FE0000
000FF001FE0000
001FF000FF0000
001FE000FF0000
001FE000FF0000
003FC0007F8000
003FC0007F8000
003FC0003FC000
007F80003FC000
007F80003FC000
00FF80001FE000
00FF00001FE000
00FF00001FF000
01FF00000FF000
01FE00000FF000
01FE000007F800
03FFFFFFFFF800
03FFFFFFFFF800
07FFFFFFFFFC00
07FFFFFFFFFC00
07FFFFFFFFFE00
0FFFFFFFFFFE00
0FF0000001FE00
0FF0000000FF00
1FE0000000FF00
1FE00000007F80
3FC00000007F80
3FC00000007F80
3FC00000003FC0
7F800000003FC0
7F800000001FC0
FF000000001FE0
FF000000001FE0
ENDCHAR
STARTCHAR 00E2
ENCODING 226
SWIDTH 552 0
DWIDTH 53 0
BBX 51 76 1 0
BITMAP
00000060000000
000000F0000000
000001F8000000
000003FC000000
00000FFF000000
00001FFF800000
00003FFFC00000
00007F9FE00000
0001FF0FF80000
0003FC03FC0000
0007F801FE0000
000FF000FF0000
0007C0003E0000
000380001C0000
00010000080000
00000000000000
00000000000000
00000000000000
00000000000000
00000000000000
00000000000000
000007FC000000
00000FFE000000
00000FFE000000
00001FFF000000
00001FFF000000
00001FFF000000
00003FFF800000
00003FFF800000
00003FBF800000
00007FBFC00000
00007FBFC00000
0000FF1FE00000
0000FF1FE00000
0000FF0FE00000
0001FE0FF00000
0001FE0FF00000
0003FE07F80000
0003FC07F80000
0003FC07F80000
0007F803FC0000
0007F803FC0000
0007F801FE0000
000FF001FE0000
000FF001FE0000
001FF000FF0000
001FE000FF0000
001FE000FF0000
003FC0007F8000
003FC0007F8000
003FC0003FC000
007F80003FC000
007F80003FC000
00FF80001FE000
00FF00001FE000
00FF00001FF000
01FF00000FF000
01FE00000FF000
01FE000007F800
03FFFFFFFFF800
03FFFFFFFFF800
07FFFFFFFFFC00
07FFFFFFFFFC00
07FFFFFFFFFE00
0FFFFFFFFFFE00
0FF0000001FE00
0FF0000000FF00
1FE0000000FF00
1FE00000007F80
3FC00000007F80
3FC00000007F80
3FC00000003FC0
7F800000003FC0
7F800000001FC0
FF000000001FE0
FF000000001FE0
ENDCHAR
STARTCHAR 00E3
ENCODING 227
SWIDTH 552 0
DWIDTH 53 0
BBX 51 73 1 0
BITMAP
00007E00000000
0001FF800C0000
0003FFF01E0000
0007FFFC3F8000
0007FFFFFF0000
000FFFFFFE0000
001FC3FFFE0000
000F80FFFC0000
0007001FF80000
00010007E00000
00000000000000
00000000000000
00000000000000
00000000000000
00000000000000
00000000000000
00000000000000
00000000000000
000007FC000000
00000FFE000000
00000FFE000000
00001FFF000000
00001FFF000000
00001FFF000000
00003FFF800000
00003FFF800000
00003FBF800000
00007FBFC00000
00007FBFC00000
0000FF1FE00000
0000FF1FE00000
0000FF0FE00000
0001FE0FF00000
0001FE0FF00000
0003FE07F80000
0003FC07F80000
0003FC07F80000
0007F803FC0000
0007F803FC0000
0007F801FE0000
000FF001FE0000
000FF001FE0000
001FF000FF0000
001FE000FF0000
001FE000FF0000
003FC0007F8000
003FC0007F8000
003FC0003FC000
007F80003FC000
007F80003FC000
00FF80001FE000
00FF00001FE000
00FF00001FF000
01FF00000FF000
01FE00000FF000
01FE000007F800
03FFFFFFFFF800
03FFFFFFFFF800
07FFFFFFFFFC00
07FFFFFFFFFC00
07FFFFFFFFFE00
0FFFFFFFFFFE00
0FF0000001FE00
0FF0000000FF00
1FE0000000FF00
1FE00000007F80
3FC00000007F80
3FC00000007F80
3FC00000003FC0
7F800000003FC0
7F800000001FC0
FF000000001FE0
FF000000001FE0
ENDCHAR
STARTCHAR 00E4
ENCODING 228
SWIDTH 552 0
DWIDTH 53 0
BBX 51 71 1 0
BITMAP
000FF801FF0000
000FF801FF0000
000FF801FF0000
000FF801FF0000
000FF801FF0000
000FF801FF0000
000FF801FF0000
00000000000000
00000000000000
00000000000000
00000000000000
00000000000000
00000000000000
00000000000000
00000000000000
00000000000000
000007FC000000
00000FFE000000
00000FFE000000
00001FFF000000
00001FFF000000
00001FFF000000
00003FFF800000
00003FFF800000
00003FBF800000
00007FBFC00000
00007FBFC00000
0000FF1FE00000
0000FF1FE00000
0000FF0FE00000
0001FE0FF00000
0001FE0FF00000
0003FE07F80000
0003FC07F80000
0003FC07F80000
0007F803FC0000
0007F803FC0000
0007F801FE0000
000FF001FE0000
000FF001FE0000
001FF000FF0000
001FE000FF0000
001FE000FF0000
003FC0007F8000
003FC0007F8000
003FC0003FC000
007F80003FC000
007F80003FC000
00FF80001FE000
00FF00001FE000
00FF00001FF000
01FF00000FF000
01FE00000FF000
01FE000007F800
03FFFFFFFFF800
03FFFFFFFFF800
07FFFFFFFFFC00
07FFFFFFFFFC00
07FFFFFFFFFE00
0FFFFFFFFFFE00
0FF0000001FE00
0FF0000000FF00
1FE0000000FF00
1FE00000007F80
3FC00000007F80
3FC00000007F80
3FC00000003FC0
7F800000003FC0
7F800000001FC0
FF000000001FE0
FF000000001FE0
ENDCHAR
STARTCHAR 00E5
ENCODING 229
SWIDTH 552 0
DWIDTH 53 0
BBX 51 77 1 0
BITMAP
000001F8000000
000007FE000000
00000FFF000000
00001FFF000000
00001F0F800000
00003E07800000
00003C03C00000
00003C03C00000
00003C03C00000
00003C03C00000
00003C03C00000
00003E07C00000
00001F0F800000
00001FFF800000
00000FFF000000
000007FE000000
000001F8000000
00000000000000
00000000000000
00000000000000
00000000000000
00000000000000
000007FC000000
00000FFE000000
00000FFE000000
00001FFF000000
00001FFF000000
00001FFF000000
00003FFF800000
00003FFF800000
00003FBF800000
00007FBFC00000
00007FBFC00000
0000FF1FE00000
0000FF1FE00000
0000FF0FE00000
0001FE0FF00000
0001FE0FF00000
0003FE07F80000
0003FC07F80000
0003FC07F80000
0007F803FC0000
0007F803FC0000
0007F801FE0000
000FF001FE0000
000FF001FE0000
001FF000FF0000
001FE000FF0000
001FE000FF0000
003FC0007F8000
003FC0007F8000
003FC0003FC000
007F80003FC000
007F80003FC000
00FF80001FE000
00FF00001FE000
00FF00001FF000
01FF00000FF000
01FE00000FF000
01FE000007F800
03FFFFFFFFF800
03FFFFFFFFF800
07FFFFFFFFFC00
07FFFFFFFFFC00
07FFFFFFFFFE00
0FFFFFFFFFFE00
0FF0000001FE00
0FF0000000FF00
1FE0000000FF00
1FE00000007F80
3FC00000007F80
3FC00000007F80
3FC00000003FC0
7F800000003FC0
7F800000001FC0
FF000000001FE0
FF000000001FE0
ENDCHAR
STARTCHAR 00E6
ENCODING 230
SWIDTH 843 0
DWIDTH 81 0
BBX 74 55 2 0
BITMAP
00000003FFFFFFFFFFC0
00000007FFFFFFFFFFC0
00000007FFFFFFFFFFC0
0000000FFFFFFFFFFFC0
0000000FFFFFFFFFFFC0
0000001FFFFFFFFFFFC0
0000001FFFFFFFFFFFC0
0000003FC1FC00000000
0000007FC1FC00000000
0000007F81FC00000000
000000FF81FC00000000
000000FF01FC00000000
000001FF01FC00000000
000001FE01FC00000000
000003FE01FC00000000
000003FC01FC00000000
000007F801FC00000000
00000FF801FC00000000
00000FF001FC00000000
00001FF001FC00000000
00001FE001FC00000000
00003FE001FC00000000
00003FC001FC00000000
00007FC001FC00000000
00007F8001FFFFFFFF80
0000FF0001FFFFFFFF80
0001FF0001FFFFFFFF80
0001FE0001FFFFFFFF80
0003FE0001FFFFFFFF80
0003FC0001FFFFFFFF80
0007FC0001FFFFFFFF80
0007F80001FC00000000
000FF80001FC00000000
000FF00001FC00000000
001FF00001FC00000000
003FE00001FC00000000
003FC00001FC00000000
007FFFFFFFFC00000000
007FFFFFFFFC00000000
00FFFFFFFFFC00000000
00FFFFFFFFFC00000000
01FFFFFFFFFC00000000
01FFFFFFFFFC00000000
03FFFFFFFFFC00000000
07FC000001FC00000000
07FC000001FC00000000
0FF8000001FC00000000
0FF8000001FC00000000
1FF0000001FFFFFFFFC0
1FF0000001FFFFFFFFC0
3FE0000001FFFFFFFFC0
3FC0000001FFFFFFFFC0
7FC0000001FFFFFFFFC0
FF80000001FFFFFFFFC0
FF80000001FFFFFFFFC0
ENDCHAR
STARTCHAR 00E7
ENCODING 231
SWIDTH 562 0
DWIDTH 54 0
BBX 46 75 4 -19
BITMAP
0007FFFFF000
003FFFFFFE00
00FFFFFFFF80
03FFFFFFFFC0
07FFFFFFFFE0
0FFFFFFFFFF0
1FFFFFFFFFF0
3FFFC0003FF8
3FF8000007F8
3FE0000003F8
7FC0000003F8
7F80000003FC
7F80000001FC
7F80000001FC
7F00000001FC
FF00000001FC
FF00000001FC
FF00000001FC
FF00000001FC
FF0000000000
FF0000000000
FF0000000000
FF0000000000
FF0000000000
FF0000000000
FF0000000000
FF0000000000
FF0000000000
FF0000000000
FF0000000000
FF0000000000
FF0000000000
FF0000000000
FF0000000000
FF0000000000
FF0000000000
FF0000000000
FF00000001FC
FF00000001FC
FF00000001FC
FF80000001FC
FF80000001FC
FF80000001FC
FF80000001FC
7F80000001FC
7F80000001FC
7FC0000003FC
7FC0000003F8
3FE0000007F8
3FFC00007FF8
1FFFFFFFFFF0
1FFFFFFFFFF0
0FFFFFFFFFE0
07FFFFFFFFC0
01FFFFFFFF80
007FFFFFFE00
000FFFFFE000
000000000000
0000007E0000
0000007E0000
0000007E0000
0000007E0000
0000007E0000
000000FE0000
000000FE0000
000000FE0000
000001FC0000
000007FC0000
0001FFFC0000
0001FFF80000
0001FFF80000
0001FFF00000
0001FFE00000
0001FF800000
0001FC000000
ENDCHAR
STARTCHAR 00E8
ENCODING 232
SWIDTH 510 0
DWIDTH 49 0
BBX 37 76 7 1
BITMAP
0060000000
00F0000000
00FC000000
01FE000000
03FF000000
01FFC00000
007FE00000
003FF00000
000FFC0000
0007FE0000
0001FF0000
00007F0000
00003E0000
00000C0000
0000000000
0000000000
0000000000
0000000000
0000000000
0000000000
0000000000
FFFFFFFFF8
FFFFFFFFF8
FFFFFFFFF8
FFFFFFFFF8
FFFFFFFFF8
FFFFFFFFF8
FFFFFFFFF8
FE00000000
FE00000000
FE00000000
FE00000000
FE00000000
FE00000000
FE00000000
FE00000000
FE00000000
FE00000000
FE00000000
FE00000000
FE00000000
FE00000000
FE00000000
FE00000000
FFFFFFFFF0
FFFFFFFFF0
FFFFFFFFF0
FFFFFFFFF0
FFFFFFFFF0
FFFFFFFFF0
FFFFFFFFF0
FE00000000
FE00000000
FE00000000
FE00000000
FE00000000
FE00000000
FE00000000
FE00000000
FE00000000
FE00000000
FE00000000
FE00000000
FE00000000
FE00000000
FE00000000
FE00000000
FE00000000
FE00000000
FFFFFFFFF8
FFFFFFFFF8
FFFFFFFFF8
FFFFFFFFF8
FFFFFFFFF8
FFFFFFFFF8
FFFFFFFFF8
ENDCHAR
STARTCHAR 00E9
ENCODING 233
SWIDTH 510 0
DWIDTH 49 0
BBX 37 76 7 1
BITMAP
0000006000
000000F000
000003F000
000007F800
00000FFC00
00003FF800
00007FE000
0000FFC000
0003FF0000
0007FE0000
000FF80000
000FE00000
0007C00000
0003000000
0000000000
0000000000
0000000000
0000000000
0000000000
0000000000
0000000000
FFFFFFFFF8
FFFFFFFFF8
FFFFFFFFF8
FFFFFFFFF8
FFFFFFFFF8
FFFFFFFFF8
FFFFFFFFF8
FE00000000
FE00000000
FE00000000
FE00000000
FE00000000
FE00000000
FE00000000
FE00000000
FE00000000
FE00000000
FE00000000
FE00000000
FE00000000
FE00000000
FE00000000
FE00000000
FFFFFFFFF0
FFFFFFFFF0
FFFFFFFFF0
FFFFFFFFF0
FFFFFFFFF0
FFFFFFFFF0
FFFFFFFFF0
FE00000000
FE00000000
FE00000000
FE00000000
FE00000000
FE00000000
FE00000000
FE00000000
FE00000000
FE00000000
FE00000000
FE00000000
FE00000000
FE00000000
FE00000000
FE00000000
FE00000000
FE00000000
FFFFFFFFF8
FFFFFFFFF8
FFFFFFFFF8
FFFFFFFFF8
FFFFFFFFF8
FFFFFFFFF8
FFFFFFFFF8
ENDCHAR
STARTCHAR 00EA
ENCODING 234
SWIDTH 510 0
DWIDTH 49 0
BBX 37 76 7 0
BITMAP
0000600000
0000F00000
0001F80000
0003FC0000
000FFF0000
001FFF8000
003FFFC000
007F9FE000
01FF0FF800
03FC03FC00
07F801FE00
0FF000FF00
07C0003E00
0380001C00
0100000800
0000000000
0000000000
0000000000
0000000000
0000000000
0000000000
FFFFFFFFF8
FFFFFFFFF8
FFFFFFFFF8
FFFFFFFFF8
FFFFFFFFF8
FFFFFFFFF8
FFFFFFFFF8
FE00000000
FE00000000
FE00000000
FE00000000
FE00000000
FE00000000
FE00000000
FE00000000
FE00000000
FE00000000
FE00000000
FE00000000
FE00000000
FE00000000
FE00000000
FE00000000
FFFFFFFFF0
FFFFFFFFF0
FFFFFFFFF0
FFFFFFFFF0
FFFFFFFFF0
FFFFFFFFF0
FFFFFFFFF0
FE00000000
FE00000000
FE00000000
FE00000000
FE00000000
FE00000000
FE00000000
FE00000000
FE00000000
FE00000000
FE00000000
FE00000000
FE00000000
FE00000000
FE00000000
FE00000000
FE00000000
FE00000000
FFFFFFFFF8
FFFFFFFFF8
FFFFFFFFF8
FFFFFFFFF8
FFFFFFFFF8
FFFFFFFFF8
FFFFFFFFF8
ENDCHAR
STARTCHAR 00EB
ENCODING 235
SWIDTH 510 0
DWIDTH 49 0
BBX 37 71 7 0
BITMAP
0FF801FF00
0FF801FF00
0FF801FF00
0FF801FF00
0FF801FF00
0FF801FF00
0FF801FF00
0000000000
0000000000
0000000000
0000000000
0000000000
0000000000
0000000000
0000000000
0000000000
FFFFFFFFF8
FFFFFFFFF8
FFFFFFFFF8
FFFFFFFFF8
FFFFFFFFF8
FFFFFFFFF8
FFFFFFFFF8
FE00000000
FE00000000
FE00000000
FE00000000
FE00000000
FE00000000
FE00000000
FE00000000
FE00000000
FE00000000
FE00000000
FE00000000
FE00000000
FE00000000
FE00000000
FE00000000
FFFFFFFFF0
FFFFFFFFF0
FFFFFFFFF0
FFFFFFFFF0
FFFFFFFFF0
FFFFFFFFF0
FFFFFFFFF0
FE00000000
FE00000000
FE00000000
FE00000000
FE00000000
FE00000000
FE00000000
FE00000000
FE00000000
FE00000000
FE00000000
FE00000000
FE00000000
FE00000000
FE00000000
FE00000000
FE00000000
FE00000000
FFFFFFFFF8
FFFFFFFFF8
FFFFFFFFF8
FFFFFFFFF8
FFFFFFFFF8
FFFFFFFFF8
FFFFFFFFF8
ENDCHAR
STARTCHAR 00EC
ENCODING 236
SWIDTH 218 0
DWIDTH 21 0
BBX 18 76 -1 1
BITMAP
180000
3C0000
3F0000
7F8000
FFC000
7FF000
1FF800
0FFC00
03FF00
01FF80
007FC0
001FC0
000F80
000300
000000
000000
000000
000000
000000
000000
000000
00FE00
00FE00
00FE00
00FE00
00FE00
00FE00
00FE00
00FE00
00FE00
00FE00
00FE00
00FE00
00FE00
00FE00
00FE00
00FE00
00FE00
00FE00
00FE00
00FE00
00FE00
00FE00
00FE00
00FE00
00FE00
00FE00
00FE00
00FE00
00FE00
00FE00
00FE00
00FE00
00FE00
00FE00
00FE00
00FE00
00FE00
00FE00
00FE00
00FE00
00FE00
00FE00
00FE00
00FE00
00FE00
00FE00
00FE00
00FE00
00FE00
00FE00
00FE00
00FE00
00FE00
00FE00
00FE00
ENDCHAR
STARTCHAR 00ED
ENCODING 237
SWIDTH 218 0
DWIDTH 21 0
BBX 18 76 5 1
BITMAP
000600
000F00
003F00
007F80
00FFC0
03FF80
07FE00
0FFC00
3FF000
7FE000
FF8000
FE0000
7C0000
300000
000000
000000
000000
000000
000000
000000
000000
3F8000
3F8000
3F8000
3F8000
3F8000
3F8000
3F8000
3F8000
3F8000
3F8000
3F8000
3F8000
3F8000
3F8000
3F8000
3F8000
3F8000
3F8000
3F8000
3F8000
3F8000
3F8000
3F8000
3F8000
3F8000
3F8000
3F8000
3F8000
3F8000
3F8000
3F8000
3F8000
3F8000
3F8000
3F8000
3F8000
3F8000
3F8000
3F8000
3F8000
3F8000
3F8000
3F8000
3F8000
3F8000
3F8000
3F8000
3F8000
3F8000
3F8000
3F8000
3F8000
3F8000
3F8000
3F8000
ENDCHAR
STARTCHAR 00EE
ENCODING 238
SWIDTH 218 0
DWIDTH 21 0
BBX 27 76 -3 0
BITMAP
00040000
000E0000
003F8000
007FC000
00FFE000
01FFF000
07FFFC00
0FFBFE00
1FE0FF00
3FC07F80
FF803FE0
FE000FE0
FC0007E0
780003C0
20000080
00000000
00000000
00000000
00000000
00000000
00000000
003F8000
003F8000
003F8000
003F8000
003F8000
003F8000
003F8000
003F8000
003F8000
003F8000
003F8000
003F8000
003F8000
003F8000
003F8000
003F8000
003F8000
003F8000
003F8000
003F8000
003F8000
003F8000
003F8000
003F8000
003F8000
003F8000
003F8000
003F8000
003F8000
003F8000
003F8000
003F8000
003F8000
003F8000
003F8000
003F8000
003F8000
003F8000
003F8000
003F8000
003F8000
003F8000
003F8000
003F8000
003F8000
003F8000
003F8000
003F8000
003F8000
003F8000
003F8000
003F8000
003F8000
003F8000
003F8000
ENDCHAR
STARTCHAR 00EF
ENCODING 239
SWIDTH 218 0
DWIDTH 21 0
BBX 22 71 0 0
BITMAP
FF87FC
FF87FC
FF87FC
FF87FC
FF87FC
FF87FC
FF87FC
000000
000000
000000
000000
000000
000000
000000
000000
000000
01FC00
01FC00
01FC00
01FC00
01FC00
01FC00
01FC00
01FC00
01FC00
01FC00
01FC00
01FC00
01FC00
01FC00
01FC00
01FC00
01FC00
01FC00
01FC00
01FC00
01FC00
01FC00
01FC00
01FC00
01FC00
01FC00
01FC00
01FC00
01FC00
01FC00
01FC00
01FC00
01FC00
01FC00
01FC00
01FC00
01FC00
01FC00
01FC00
01FC00
01FC00
01FC00
01FC00
01FC00
01FC00
01FC00
01FC00
01FC00
01FC00
01FC00
01FC00
01FC00
01FC00
01FC00
01FC00
ENDCHAR
STARTCHAR 00F0
ENCODING 240
SWIDTH 614 0
DWIDTH 59 0
BBX 53 55 2 0
BITMAP
03FFFFFFFE0000
03FFFFFFFFE000
03FFFFFFFFF800
03FFFFFFFFFE00
03FFFFFFFFFF00
03FFFFFFFFFF80
03FFFFFFFFFF80
03F8000003FFC0
03F80000007FC0
03F80000003FE0
03F80000001FE0
03F80000000FF0
03F800000007F0
03F800000007F0
03F800000007F0
03F800000007F0
03F800000003F8
03F800000003F8
03F800000003F8
03F800000003F8
03F800000003F8
03F800000003F8
03F800000003F8
03F800000003F8
03F800000003F8
FFFFFFE00003F8
FFFFFFE00003F8
FFFFFFE00003F8
FFFFFFE00003F8
FFFFFFE00003F8
03F800000003F8
03F800000003F8
03F800000003F8
03F800000003F8
03F800000003F8
03F800000003F8
03F800000003F8
03F800000003F8
03F800000007F8
03F800000007F0
03F800000007F0
03F800000007F0
03F80000000FF0
03F80000000FF0
03F80000001FE0
03F80000003FE0
03F80000007FC0
03F8000007FFC0
03FFFFFFFFFF80
03FFFFFFFFFF80
03FFFFFFFFFF00
03FFFFFFFFFC00
03FFFFFFFFF800
03FFFFFFFFE000
03FFFFFFFC0000
ENDCHAR
STARTCHAR 00F1
ENCODING 241
SWIDTH 645 0
DWIDTH 62 0
BBX 48 73 7 0
BITMAP
0001F8000000
0007FE003000
000FFFC07800
001FFFF0FE00
001FFFFFFC00
003FFFFFF800
007F0FFFF800
003E03FFF000
001C007FE000
0004001F8000
000000000000
000000000000
000000000000
000000000000
000000000000
000000000000
000000000000
000000000000
FFE00000007F
FFE00000007F
FFF00000007F
FFF80000007F
FFF80000007F
FFFC0000007F
FFFE0000007F
FFFE0000007F
FEFF0000007F
FE7F8000007F
FE7F8000007F
FE3FC000007F
FE1FC000007F
FE1FE000007F
FE0FF000007F
FE0FF000007F
FE07F800007F
FE03FC00007F
FE03FC00007F
FE01FE00007F
FE00FF00007F
FE00FF00007F
FE007F80007F
FE007F80007F
FE003FC0007F
FE001FE0007F
FE001FE0007F
FE000FF0007F
FE0007F8007F
FE0007F8007F
FE0003FC007F
FE0001FC007F
FE0001FE007F
FE0000FF007F
FE0000FF007F
FE00007F807F
FE00003FC07F
FE00003FC07F
FE00001FE07F
FE00000FF07F
FE00000FF07F
FE000007F87F
FE000003F87F
FE000003FC7F
FE000001FE7F
FE000001FE7F
FE000000FF7F
FE0000007FFF
FE0000007FFF
FE0000003FFF
FE0000001FFF
FE0000001FFF
FE0000000FFF
FE0000000FFF
FE00000007FF
ENDCHAR
STARTCHAR 00F2
ENCODING 242
SWIDTH 593 0
DWIDTH 57 0
BBX 49 76 4 1
BITMAP
0000C000000000
0001E000000000
0001F800000000
0003FC00000000
0007FE00000000
0003FF80000000
0000FFC0000000
00007FE0000000
00001FF8000000
00000FFC000000
000003FE000000
000000FE000000
0000007C000000
00000018000000
00000000000000
00000000000000
00000000000000
00000000000000
00000000000000
00000000000000
00000000000000
0003FFFFE00000
007FFFFFFE0000
01FFFFFFFFC000
03FFFFFFFFE000
07FFFFFFFFF000
0FFFFFFFFFF800
1FFFFFFFFFFC00
1FFC00001FFC00
3FE0000003FE00
3FC0000001FE00
7F80000000FF00
7F80000000FF00
7F800000007F00
7F000000007F00
FF000000007F80
FF000000007F80
FF000000007F80
FF000000007F80
FF000000007F80
FF000000007F80
FF000000007F80
FF000000007F80
FF000000007F80
FF000000007F80
FF000000007F80
FF000000007F80
FF000000007F80
FF000000007F80
FF000000007F80
FF000000007F80
FF000000007F80
FF000000007F80
FF000000007F80
FF000000007F80
FF000000007F80
FF000000007F80
FF000000007F80
FF000000007F80
FF000000007F80
FF000000007F80
FF000000007F80
7F000000007F00
7F800000007F00
7F80000000FF00
7F80000000FF00
3FC0000001FE00
3FE0000003FE00
3FFC00001FFE00
1FFFFFFFFFFC00
0FFFFFFFFFF800
07FFFFFFFFF800
03FFFFFFFFE000
01FFFFFFFFC000
007FFFFFFF0000
0007FFFFE00000
ENDCHAR
STARTCHAR 00F3
ENCODING 243
SWIDTH 593 0
DWIDTH 57 0
BBX 49 76 4 1
BITMAP
00000000C00000
00000001E00000
00000007E00000
0000000FF00000
0000001FF80000
0000007FF00000
000000FFC00000
000001FF800000
000007FE000000
00000FFC000000
00001FF0000000
00001FC0000000
00000F80000000
00000600000000
00000000000000
00000000000000
00000000000000
00000000000000
00000000000000
00000000000000
00000000000000
0003FFFFE00000
007FFFFFFE0000
01FFFFFFFFC000
03FFFFFFFFE000
07FFFFFFFFF000
0FFFFFFFFFF800
1FFFFFFFFFFC00
1FFC00001FFC00
3FE0000003FE00
3FC0000001FE00
7F80000000FF00
7F80000000FF00
7F800000007F00
7F000000007F00
FF000000007F80
FF000000007F80
FF000000007F80
FF000000007F80
FF000000007F80
FF000000007F80
FF000000007F80
FF000000007F80
FF000000007F80
FF000000007F80
FF000000007F80
FF000000007F80
FF000000007F80
FF000000007F80
FF000000007F80
FF000000007F80
FF000000007F80
FF000000007F80
FF000000007F80
FF000000007F80
FF000000007F80
FF000000007F80
FF000000007F80
FF000000007F80
FF000000007F80
FF000000007F80
FF000000007F80
7F000000007F00
7F800000007F00
7F80000000FF00
7F80000000FF00
3FC0000001FE00
3FE0000003FE00
3FFC00001FFE00
1FFFFFFFFFFC00
0FFFFFFFFFF800
07FFFFFFFFF800
03FFFFFFFFE000
01FFFFFFFFC000
007FFFFFFF0000
0007FFFFE00000
ENDCHAR
STARTCHAR 00F4
ENCODING 244
SWIDTH 593 0
DWIDTH 57 0
BBX 49 76 4 0
BITMAP
000000C0000000
000001E0000000
000003F0000000
000007F8000000
00001FFE000000
00003FFF000000
00007FFF800000
0000FF3FC00000
0003FE1FF00000
0007F807F80000
000FF003FC0000
001FE001FE0000
000F80007C0000
00070000380000
00020000100000
00000000000000
00000000000000
00000000000000
00000000000000
00000000000000
00000000000000
0003FFFFE00000
007FFFFFFE0000
01FFFFFFFFC000
03FFFFFFFFE000
07FFFFFFFFF000
0FFFFFFFFFF800
1FFFFFFFFFFC00
1FFC00001FFC00
3FE0000003FE00
3FC0000001FE00
7F80000000FF00
7F80000000FF00
7F800000007F00
7F000000007F00
FF000000007F80
FF000000007F80
FF000000007F80
FF000000007F80
FF000000007F80
FF000000007F80
FF000000007F80
FF000000007F80
FF000000007F80
FF000000007F80
FF000000007F80
FF000000007F80
FF000000007F80
FF000000007F80
FF000000007F80
FF000000007F80
FF000000007F80
FF000000007F80
FF000000007F80
FF000000007F80
FF000000007F80
FF000000007F80
FF000000007F80
FF000000007F80
FF000000007F80
FF000000007F80
FF000000007F80
7F000000007F00
7F800000007F00
7F80000000FF00
7F80000000FF00
3FC0000001FE00
3FE0000003FE00
3FFC00001FFE00
1FFFFFFFFFFC00
0FFFFFFFFFF800
07FFFFFFFFF800
03FFFFFFFFE000
01FFFFFFFFC000
007FFFFFFF0000
0007FFFFE00000
ENDCHAR
STARTCHAR 00F5
ENCODING 245
SWIDTH 593 0
DWIDTH 57 0
BBX 49 73 4 0
BITMAP
0000FC00000000
0003FF00180000
0007FFE03C0000
000FFFF87F0000
000FFFFFFE0000
001FFFFFFC0000
003F87FFFC0000
001F01FFF80000
000E003FF00000
0002000FC00000
00000000000000
00000000000000
00000000000000
00000000000000
00000000000000
00000000000000
00000000000000
00000000000000
0003FFFFE00000
007FFFFFFE0000
01FFFFFFFFC000
03FFFFFFFFE000
07FFFFFFFFF000
0FFFFFFFFFF800
1FFFFFFFFFFC00
1FFC00001FFC00
3FE0000003FE00
3FC0000001FE00
7F80000000FF00
7F80000000FF00
7F800000007F00
7F000000007F00
FF000000007F80
FF000000007F80
FF000000007F80
FF000000007F80
FF000000007F80
FF000000007F80
FF000000007F80
FF000000007F80
FF000000007F80
FF000000007F80
FF000000007F80
FF000000007F80
FF000000007F80
FF000000007F80
FF000000007F80
FF000000007F80
FF000000007F80
FF000000007F80
FF000000007F80
FF000000007F80
FF000000007F80
FF000000007F80
FF000000007F80
FF000000007F80
FF000000007F80
FF000000007F80
FF000000007F80
7F000000007F00
7F800000007F00
7F80000000FF00
7F80000000FF00
3FC0000001FE00
3FE0000003FE00
3FFC00001FFE00
1FFFFFFFFFFC00
0FFFFFFFFFF800
07FFFFFFFFF800
03FFFFFFFFE000
01FFFFFFFFC000
007FFFFFFF0000
0007FFFFE00000
ENDCHAR
STARTCHAR 00F6
ENCODING 246
SWIDTH 593 0
DWIDTH 57 0
BBX 49 71 4 0
BITMAP
001FF003FE0000
001FF003FE0000
001FF003FE0000
001FF003FE0000
001FF003FE0000
001FF003FE0000
001FF003FE0000
00000000000000
00000000000000
00000000000000
00000000000000
00000000000000
00000000000000
00000000000000
00000000000000
00000000000000
0003FFFFE00000
007FFFFFFE0000
01FFFFFFFFC000
03FFFFFFFFE000
07FFFFFFFFF000
0FFFFFFFFFF800
1FFFFFFFFFFC00
1FFC00001FFC00
3FE0000003FE00
3FC0000001FE00
7F80000000FF00
7F80000000FF00
7F800000007F00
7F000000007F00
FF000000007F80
FF000000007F80
FF000000007F80
FF000000007F80
FF000000007F80
FF000000007F80
FF000000007F80
FF000000007F80
FF000000007F80
FF000000007F80
FF000000007F80
FF000000007F80
FF000000007F80
FF000000007F80
FF000000007F80
FF000000007F80
FF000000007F80
FF000000007F80
FF000000007F80
FF000000007F80
FF000000007F80
FF000000007F80
FF000000007F80
FF000000007F80
FF000000007F80
FF000000007F80
FF000000007F80
7F000000007F00
7F800000007F00
7F80000000FF00
7F80000000FF00
3FC0000001FE00
3FE0000003FE00
3FFC00001FFE00
1FFFFFFFFFFC00
0FFFFFFFFFF800
07FFFFFFFFF800
03FFFFFFFFE000
01FFFFFFFFC000
007FFFFFFF0000
0007FFFFE00000
ENDCHAR
STARTCHAR 00F7
ENCODING 247
SWIDTH 531 0
DWIDTH 51 0
BBX 44 40 3 7
BITMAP
00000F800000
00001FC00000
00003FC00000
00003FE00000
00003FE00000
00003FE00000
00003FE00000
00001FC00000
00000F800000
000000000000
000000000000
000000000000
000000000000
000000000000
000000000000
000000000000
000000000000
FFFFFFFFFFF0
FFFFFFFFFFF0
FFFFFFFFFFF0
FFFFFFFFFFF0
FFFFFFFFFFF0
FFFFFFFFFFF0
000000000000
000000000000
000000000000
000000000000
000000000000
000000000000
000000000000
000000000000
00000F800000
00001FC00000
00003FE00000
00003FE00000
00003FE00000
00003FE00000
00003FE00000
00001FC00000
00000F800000
ENDCHAR
STARTCHAR 00F8
ENCODING 248
SWIDTH 552 0
DWIDTH 53 0
BBX 49 59 2 -2
BITMAP
00000000000080
00000000000180
0003FFFFF00380
007FFFFFFF0780
01FFFFFFFFCF80
03FFFFFFFFFF80
07FFFFFFFFFF80
0FFFFFFFFFFF80
1FFFFFFFFFFF00
1FFC00000FFE00
3FF0000001FE00
3FC0000003FE00
7FC0000007FF00
7F8000000FFF00
7F8000001FFF00
7F8000003FFF00
FF0000007F7F80
FF000000FE7F80
FF000001FC7F80
FF000003F87F80
FF000007F87F80
FF00000FF07F80
FF00001FE07F80
FF00003FC07F80
FF00003F807F80
FF00007F007F80
FF0000FE007F80
FF0001FC007F80
FF0003F8007F80
FF0007F0007F80
FF000FE0007F80
FF001FC0007F80
FF003F80007F80
FF007F00007F80
FF00FE00007F80
FF01FE00007F80
FF03FC00007F80
FF07F800007F80
FF0FF000007F80
FF0FE000007F80
FF1FC000007F80
FF3F8000007F80
FF7F0000007F80
7FFE0000007F00
7FFC000000FF00
7FF8000000FF00
7FF0000000FF00
3FE0000001FE00
3FC0000003FE00
3FF800001FFE00
7FFFFFFFFFFC00
FFFFFFFFFFF800
FFFFFFFFFFF800
FFFFFFFFFFE000
F9FFFFFFFFC000
F07FFFFFFF0000
E007FFFFF00000
C0000000000000
80000000000000
ENDCHAR
STARTCHAR 00F9
ENCODING 249
SWIDTH 614 0
DWIDTH 59 0
BBX 45 76 7 1
BITMAP
000600000000
000F00000000
000FC0000000
001FE0000000
003FF0000000
001FFC000000
0007FE000000
0003FF000000
0000FFC00000
00007FE00000
00001FF00000
000007F00000
000003E00000
000000C00000
000000000000
000000000000
000000000000
000000000000
000000000000
000000000000
000000000000
FE00000003F8
FE00000003F8
FE00000003F8
FE00000003F8
FE00000003F8
FE00000003F8
FE00000003F8
FE00000003F8
FE00000003F8
FE00000003F8
FE00000003F8
FE00000003F8
FE00000003F8
FE00000003F8
FE00000003F8
FE00000003F8
FE00000003F8
FE00000003F8
FE00000003F8
FE00000003F8
FE00000003F8
FE00000003F8
FE00000003F8
FE00000003F8
FE00000003F8
FE00000003F8
FE00000003F8
FE00000003F8
FE00000003F8
FE00000003F8
FE00000003F8
FE00000003F8
FE00000003F8
FE00000003F8
FE00000003F8
FE00000003F8
FE00000003F8
FE00000003F8
FE00000003F8
FE00000003F8
FE00000003F8
FE00000003F8
FE00000003F8
FE00000007F8
FF00000007F8
7F00000007F0
7FC000001FF0
7FF00000FFF0
3FFFFFFFFFE0
3FFFFFFFFFE0
1FFFFFFFFFC0
0FFFFFFFFF80
03FFFFFFFE00
00FFFFFFF800
000FFFFF8000
ENDCHAR
STARTCHAR 00FA
ENCODING 250
SWIDTH 614 0
DWIDTH 59 0
BBX 45 76 7 1
BITMAP
000000060000
0000000F0000
0000003F0000
0000007F8000
000000FFC000
000003FF8000
000007FE0000
00000FFC0000
00003FF00000
00007FE00000
0000FF800000
0000FE000000
00007C000000
000030000000
000000000000
000000000000
000000000000
000000000000
000000000000
000000000000
000000000000
FE00000003F8
FE00000003F8
FE00000003F8
FE00000003F8
FE00000003F8
FE00000003F8
FE00000003F8
FE00000003F8
FE00000003F8
FE00000003F8
FE00000003F8
FE00000003F8
FE00000003F8
FE00000003F8
FE00000003F8
FE00000003F8
FE00000003F8
FE00000003F8
FE00000003F8
FE00000003F8
FE00000003F8
FE00000003F8
FE00000003F8
FE00000003F8
FE00000003F8
FE00000003F8
FE00000003F8
FE00000003F8
FE00000003F8
FE00000003F8
FE00000003F8
FE00000003F8
FE00000003F8
FE00000003F8
FE00000003F8
FE00000003F8
FE00000003F8
FE00000003F8
FE00000003F8
FE00000003F8
FE00000003F8
FE00000003F8
FE00000003F8
FE00000007F8
FF00000007F8
7F00000007F0
7FC000001FF0
7FF00000FFF0
3FFFFFFFFFE0
3FFFFFFFFFE0
1FFFFFFFFFC0
0FFFFFFFFF80
03FFFFFFFE00
00FFFFFFF800
000FFFFF8000
ENDCHAR
STARTCHAR 00FB
ENCODING 251
SWIDTH 614 0
DWIDTH 59 0
BBX 45 76 7 0
BITMAP
000006000000
00000F000000
00001F800000
00003FC00000
0000FFF00000
0001FFF80000
0003FFFC0000
0007F9FE0000
001FF0FF8000
003FC03FC000
007F801FE000
00FF000FF000
007C0003E000
00380001C000
001000008000
000000000000
000000000000
000000000000
000000000000
000000000000
000000000000
FE00000003F8
FE00000003F8
FE00000003F8
FE00000003F8
FE00000003F8
FE00000003F8
FE00000003F8
FE00000003F8
FE00000003F8
FE00000003F8
FE00000003F8
FE00000003F8
FE00000003F8
FE00000003F8
FE00000003F8
FE00000003F8
FE00000003F8
FE00000003F8
FE00000003F8
FE00000003F8
FE00000003F8
FE00000003F8
FE00000003F8
FE00000003F8
FE00000003F8
FE00000003F8
FE00000003F8
FE00000003F8
FE00000003F8
FE00000003F8
FE00000003F8
FE00000003F8
FE00000003F8
FE00000003F8
FE00000003F8
FE00000003F8
FE00000003F8
FE00000003F8
FE00000003F8
FE00000003F8
FE00000003F8
FE00000003F8
FE00000003F8
FE00000007F8
FF00000007F8
7F00000007F0
7FC000001FF0
7FF00000FFF0
3FFFFFFFFFE0
3FFFFFFFFFE0
1FFFFFFFFFC0
0FFFFFFFFF80
03FFFFFFFE00
00FFFFFFF800
000FFFFF8000
ENDCHAR
STARTCHAR 00FC
ENCODING 252
SWIDTH 614 0
DWIDTH 59 0
BBX 45 71 7 0
BITMAP
00FF801FF000
00FF801FF000
00FF801FF000
00FF801FF000
00FF801FF000
00FF801FF000
00FF801FF000
000000000000
000000000000
000000000000
000000000000
000000000000
000000000000
000000000000
000000000000
000000000000
FE00000003F8
FE00000003F8
FE00000003F8
FE00000003F8
FE00000003F8
FE00000003F8
FE00000003F8
FE00000003F8
FE00000003F8
FE00000003F8
FE00000003F8
FE00000003F8
FE00000003F8
FE00000003F8
FE00000003F8
FE00000003F8
FE00000003F8
FE00000003F8
FE00000003F8
FE00000003F8
FE00000003F8
FE00000003F8
FE00000003F8
FE00000003F8
FE00000003F8
FE00000003F8
FE00000003F8
FE00000003F8
FE00000003F8
FE00000003F8
FE00000003F8
FE00000003F8
FE00000003F8
FE00000003F8
FE00000003F8
FE00000003F8
FE00000003F8
FE00000003F8
FE00000003F8
FE00000003F8
FE00000003F8
FE00000003F8
FE00000003F8
FE00000007F8
FF00000007F8
7F00000007F0
7FC000001FF0
7FF00000FFF0
3FFFFFFFFFE0
3FFFFFFFFFE0
1FFFFFFFFFC0
0FFFFFFFFF80
03FFFFFFFE00
00FFFFFFF800
000FFFFF8000
ENDCHAR
STARTCHAR 00FD
ENCODING 253
SWIDTH 520 0
DWIDTH 50 0
BBX 49 76 0 1
BITMAP
00000000C00000
00000001E00000
00000007E00000
0000000FF00000
0000001FF80000
0000007FF00000
000000FFC00000
000001FF800000
000007FE000000
00000FFC000000
00001FF0000000
00001FC0000000
00000F80000000
00000600000000
00000000000000
00000000000000
00000000000000
00000000000000
00000000000000
00000000000000
00000000000000
FF80000000FF80
7FC0000000FF80
3FC0000001FF00
3FE0000003FE00
1FF0000003FE00
0FF0000007FC00
0FF800000FF800
07FC00000FF800
03FC00001FF000
03FE00003FE000
01FF00003FE000
00FF00007FC000
00FF8000FF8000
007FC000FF0000
007FC001FF0000
003FE003FE0000
001FF003FC0000
001FF007FC0000
000FF80FF80000
0007FC0FF00000
0007FC1FF00000
0003FE3FE00000
0001FF3FC00000
0001FF7FC00000
0000FFFF800000
00007FFF000000
00007FFF000000
00003FFE000000
00001FFC000000
00001FFC000000
00000FF8000000
000007F0000000
000007F0000000
000007F0000000
000007F0000000
000007F0000000
000007F0000000
000007F0000000
000007F0000000
000007F0000000
000007F0000000
000007F0000000
000007F0000000
000007F0000000
000007F0000000
000007F0000000
000007F0000000
000007F0000000
000007F0000000
000007F0000000
000007F0000000
000007F0000000
000007F0000000
000007F0000000
000007F0000000
ENDCHAR
STARTCHAR 00FE
ENCODING 254
SWIDTH 552 0
DWIDTH 53 0
BBX 42 55 7 0
BITMAP
FE0000000000
FE0000000000
FE0000000000
FE0000000000
FE0000000000
FE0000000000
FE0000000000
FE0000000000
FE0000000000
FE0000000000
FFFFFFFF8000
FFFFFFFFF000
FFFFFFFFF800
FFFFFFFFFC00
FFFFFFFFFE00
FFFFFFFFFF00
FFFFFFFFFF00
FE000001FF80
FE0000007F80
FE0000003F80
FE0000003F80
FE0000001FC0
FE0000001FC0
FE0000001FC0
FE0000001FC0
FE0000001FC0
FE0000001FC0
FE0000001FC0
FE0000001FC0
FE0000001FC0
FE0000001FC0
FE0000001FC0
FE0000001FC0
FE0000003F80
FE0000003F80
FE0000007F80
FE000003FF80
FFFFFFFFFF00
FFFFFFFFFF00
FFFFFFFFFE00
FFFFFFFFFC00
FFFFFFFFF800
FFFFFFFFF000
FFFFFFFF8000
FE0000000000
FE0000000000
FE0000000000
FE0000000000
FE0000000000
FE0000000000
FE0000000000
FE0000000000
FE0000000000
FE0000000000
FE0000000000
ENDCHAR
STARTCHAR 00FF
ENCODING 255
SWIDTH 520 0
DWIDTH 50 0
BBX 49 71 0 0
BITMAP
001FF003FE0000
001FF003FE0000
001FF003FE0000
001FF003FE0000
001FF003FE0000
001FF003FE0000
001FF003FE0000
00000000000000
00000000000000
00000000000000
00000000000000
00000000000000
00000000000000
00000000000000
00000000000000
00000000000000
FF80000000FF80
7FC0000000FF80
3FC0000001FF00
3FE0000003FE00
1FF0000003FE00
0FF0000007FC00
0FF800000FF800
07FC00000FF800
03FC00001FF000
03FE00003FE000
01FF00003FE000
00FF00007FC000
00FF8000FF8000
007FC000FF0000
007FC001FF0000
003FE003FE0000
001FF003FC0000
001FF007FC0000
000FF80FF80000
0007FC0FF00000
0007FC1FF00000
0003FE3FE00000
0001FF3FC00000
0001FF7FC00000
0000FFFF800000
00007FFF000000
00007FFF000000
00003FFE000000
00001FFC000000
00001FFC000000
00000FF8000000
000007F0000000
000007F0000000
000007F0000000
000007F0000000
000007F0000000
000007F0000000
000007F0000000
000007F0000000
000007F0000000
000007F0000000
000007F0000000
000007F0000000
000007F0000000
000007F0000000
000007F0000000
000007F0000000
000007F0000000
000007F0000000
000007F0000000
000007F0000000
000007F0000000
000007F0000000
000007F0000000
000007F0000000
ENDCHAR
STARTCHAR 0106
ENCODING 262
SWIDTH 562 0
DWIDTH 54 0
BBX 46 76 4 1
BITMAP
000000018000
00000003C000
0000000FC000
0000001FE000
0000003FF000
000000FFE000
000001FF8000
000003FF0000
00000FFC0000
00001FF80000
00003FE00000
00003F800000
00001F000000
00000C000000
000000000000
000000000000
000000000000
000000000000
000000000000
000000000000
000000000000
0003FFFFF000
003FFFFFFE00
01FFFFFFFF80
03FFFFFFFFC0
07FFFFFFFFE0
0FFFFFFFFFF0
1FFFFFFFFFF0
3FFE00003FF8
3FE0000007F8
7FC0000007F8
7F80000003FC
7F80000003FC
7F80000003FC
FF00000001FC
FF00000001FC
FF00000001FC
FF00000001FC
FF00000001FC
FF0000000000
FF0000000000
FF0000000000
FF0000000000
FF0000000000
FF0000000000
FF0000000000
FF0000000000
FF0000000000
FF0000000000
FF0000000000
FF0000000000
FF0000000000
FF0000000000
FF0000000000
FF0000000000
FF0000000000
FF0000000000
FF00000001FC
FF00000001FC
FF00000001FC
FF80000001FC
7F80000001FC
7F80000001FC
7F80000001FC
7F80000001FC
7FC0000003FC
3FC0000003FC
3FF0000007FC
3FFC00003FF8
1FFFFFFFFFF8
0FFFFFFFFFF8
07FFFFFFFFF0
03FFFFFFFFE0
01FFFFFFFFC0
007FFFFFFF00
000FFFFFF000
ENDCHAR
STARTCHAR 0107
ENCODING 263
SWIDTH 562 0
DWIDTH 54 0
BBX 46 76 4 1
BITMAP
000000018000
00000003C000
0000000FC000
0000001FE000
0000003FF000
000000FFE000
000001FF8000
000003FF0000
00000FFC0000
00001FF80000
00003FE00000
00003F800000
00001F000000
00000C000000
000000000000
000000000000
000000000000
000000000000
000000000000
000000000000
000000000000
0003FFFFF000
003FFFFFFE00
01FFFFFFFF80
03FFFFFFFFC0
07FFFFFFFFE0
0FFFFFFFFFF0
1FFFFFFFFFF0
3FFE00003FF8
3FE0000007F8
7FC0000007F8
7F80000003FC
7F80000003FC
7F80000003FC
FF00000001FC
FF00000001FC
FF00000001FC
FF00000001FC
FF00000001FC
FF0000000000
FF0000000000
FF0000000000
FF0000000000
FF0000000000
FF0000000000
FF0000000000
FF0000000000
FF0000000000
FF0000000000
FF0000000000
FF0000000000
FF0000000000
FF0000000000
FF0000000000
FF0000000000
FF0000000000
FF0000000000
FF00000001FC
FF00000001FC
FF00000001FC
FF80000001FC
7F80000001FC
7F80000001FC
7F80000001FC
7F80000001FC
7FC0000003FC
3FC0000003FC
3FF0000007FC
3FFC00003FF8
1FFFFFFFFFF8
0FFFFFFFFFF8
07FFFFFFFFF0
03FFFFFFFFE0
01FFFFFFFFC0
007FFFFFFF00
000FFFFFF000
ENDCHAR
STARTCHAR 010C
ENCODING 268
SWIDTH 562 0
DWIDTH 54 0
BBX 46 76 4 0
BITMAP
000800004000
001C0000E000
003E0001F000
007F8007F800
003FC00FF000
001FE01FE000
000FF87FC000
0003FCFF0000
0001FFFE0000
0000FFFC0000
00007FF80000
00001FE00000
00000FC00000
000007800000
000003000000
000000000000
000000000000
000000000000
000000000000
000000000000
000000000000
0003FFFFF000
003FFFFFFE00
01FFFFFFFF80
03FFFFFFFFC0
07FFFFFFFFE0
0FFFFFFFFFF0
1FFFFFFFFFF0
3FFE00003FF8
3FE0000007F8
7FC0000007F8
7F80000003FC
7F80000003FC
7F80000003FC
FF00000001FC
FF00000001FC
FF00000001FC
FF00000001FC
FF00000001FC
FF0000000000
FF0000000000
FF0000000000
FF0000000000
FF0000000000
FF0000000000
FF0000000000
FF0000000000
FF0000000000
FF0000000000
FF0000000000
FF0000000000
FF0000000000
FF0000000000
FF0000000000
FF0000000000
FF0000000000
FF0000000000
FF00000001FC
FF00000001FC
FF00000001FC
FF80000001FC
7F80000001FC
7F80000001FC
7F80000001FC
7F80000001FC
7FC0000003FC
3FC0000003FC
3FF0000007FC
3FFC00003FF8
1FFFFFFFFFF8
0FFFFFFFFFF8
07FFFFFFFFF0
03FFFFFFFFE0
01FFFFFFFFC0
007FFFFFFF00
000FFFFFF000
ENDCHAR
STARTCHAR 010D
ENCODING 269
SWIDTH 562 0
DWIDTH 54 0
BBX 46 76 4 0
BITMAP
000800004000
001C0000E000
003E0001F000
007F8007F800
003FC00FF000
001FE01FE000
000FF87FC000
0003FCFF0000
0001FFFE0000
0000FFFC0000
00007FF80000
00001FE00000
00000FC00000
000007800000
000003000000
000000000000
000000000000
000000000000
000000000000
000000000000
000000000000
0003FFFFF000
003FFFFFFE00
01FFFFFFFF80
03FFFFFFFFC0
07FFFFFFFFE0
0FFFFFFFFFF0
1FFFFFFFFFF0
3FFE00003FF8
3FE0000007F8
7FC0000007F8
7F80000003FC
7F80000003FC
7F80000003FC
FF00000001FC
FF00000001FC
FF00000001FC
FF00000001FC
FF00000001FC
FF0000000000
FF0000000000
FF0000000000
FF0000000000
FF0000000000
FF0000000000
FF0000000000
FF0000000000
FF0000000000
FF0000000000
FF0000000000
FF0000000000
FF0000000000
FF0000000000
FF0000000000
FF0000000000
FF0000000000
FF0000000000
FF00000001FC
FF00000001FC
FF00000001FC
FF80000001FC
7F80000001FC
7F80000001FC
7F80000001FC
7F80000001FC
7FC0000003FC
3FC0000003FC
3FF0000007FC
3FFC00003FF8
1FFFFFFFFFF8
0FFFFFFFFFF8
07FFFFFFFFF0
03FFFFFFFFE0
01FFFFFFFFC0
007FFFFFFF00
000FFFFFF000
ENDCHAR
STARTCHAR 0111
ENCODING 273
SWIDTH 614 0
DWIDTH 59 0
BBX 53 55 2 0
BITMAP
07FFFFFFFE0000
07FFFFFFFFE000
07FFFFFFFFF800
07FFFFFFFFFE00
07FFFFFFFFFF00
07FFFFFFFFFF80
07FFFFFFFFFF80
07F0000003FFC0
07F00000007FC0
07F00000003FE0
07F00000001FE0
07F00000000FF0
07F000000007F0
07F000000007F0
07F000000007F0
07F000000007F0
07F000000003F8
07F000000003F8
07F000000003F8
07F000000003F8
07F000000003F8
07F000000003F8
07F000000003F8
07F000000003F8
07F000000003F8
FFFFFFE00003F8
FFFFFFE00003F8
FFFFFFE00003F8
FFFFFFE00003F8
FFFFFFE00003F8
07F000000003F8
07F000000003F8
07F000000003F8
07F000000003F8
07F000000003F8
07F000000003F8
07F000000003F8
07F000000003F8
07F000000007F8
07F000000007F0
07F000000007F0
07F000000007F0
07F00000000FF0
07F00000000FF0
07F00000001FE0
07F00000003FE0
07F00000007FC0
07F0000007FFC0
07FFFFFFFFFF80
07FFFFFFFFFF80
07FFFFFFFFFF00
07FFFFFFFFFC00
07FFFFFFFFF800
07FFFFFFFFE000
07FFFFFFFC0000
ENDCHAR
STARTCHAR 011E
ENCODING 286
SWIDTH 583 0
DWIDTH 56 0
BBX 48 75 4 0
BITMAP
001F00003E00
001F00003E00
001F80007E00
000FC000FC00
000FE001FC00
0007F003FC00
0007FC0FF800
0003FFFFF000
0001FFFFE000
0000FFFFC000
00007FFF8000
00001FFE0000
000007F80000
000000000000
000000000000
000000000000
000000000000
000000000000
000000000000
000000000000
000FFFFFF800
007FFFFFFF00
01FFFFFFFFC0
07FFFFFFFFF0
0FFFFFFFFFF8
0FFFFFFFFFF8
1FFFFFFFFFFC
3FFC00001FFC
3FC0000003FE
3F80000001FE
7F80000001FE
7F00000000FE
7F00000000FE
7F00000000FE
FE00000000FE
FE00000000FE
FE00000000FE
FE0000000000
FE0000000000
FE0000000000
FE0000000000
FE0000000000
FE0000000000
FE0000000000
FE0000000000
FE0000000000
FE0000000000
FE0001FFFFFE
FE0001FFFFFF
FE0001FFFFFF
FE0001FFFFFF
FE0001FFFFFF
FE0001FFFFFF
FE0001FFFFFF
FE00000000FF
FE000000007F
FE000000007F
FE000000007F
FE000000007F
FE000000007F
FE000000007F
FE000000007F
FF000000007F
7F00000000FF
7F80000000FE
7F80000000FE
3FE0000001FE
3FFC00001FFE
1FFFFFFFFFFC
1FFFFFFFFFF8
0FFFFFFFFFF8
03FFFFFFFFF0
01FFFFFFFFC0
007FFFFFFF00
0003FFFFF000
ENDCHAR
STARTCHAR 011F
ENCODING 287
SWIDTH 583 0
DWIDTH 56 0
BBX 48 75 4 0
BITMAP
001F00003E00
001F00003E00
001F80007E00
000FC000FC00
000FE001FC00
0007F003FC00
0007FC0FF800
0003FFFFF000
0001FFFFE000
0000FFFFC000
00007FFF8000
00001FFE0000
000007F80000
000000000000
000000000000
000000000000
000000000000
000000000000
000000000000
000000000000
000FFFFFF800
007FFFFFFF00
01FFFFFFFFC0
07FFFFFFFFF0
0FFFFFFFFFF8
0FFFFFFFFFF8
1FFFFFFFFFFC
3FFC00001FFC
3FC0000003FE
3F80000001FE
7F80000001FE
7F00000000FE
7F00000000FE
7F00000000FE
FE00000000FE
FE00000000FE
FE00000000FE
FE0000000000
FE0000000000
FE0000000000
FE0000000000
FE0000000000
FE0000000000
FE0000000000
FE0000000000
FE0000000000
FE0000000000
FE0001FFFFFE
FE0001FFFFFF
FE0001FFFFFF
FE0001FFFFFF
FE0001FFFFFF
FE0001FFFFFF
FE0001FFFFFF
FE00000000FF
FE000000007F
FE000000007F
FE000000007F
FE000000007F
FE000000007F
FE000000007F
FE000000007F
FF000000007F
7F00000000FF
7F80000000FE
7F80000000FE
3FE0000001FE
3FFC00001FFE
1FFFFFFFFFFC
1FFFFFFFFFF8
0FFFFFFFFFF8
03FFFFFFFFF0
01FFFFFFFFC0
007FFFFFFF00
0003FFFFF000
ENDCHAR
STARTCHAR 0130
ENCODING 304
SWIDTH 239 0
DWIDTH 23 0
BBX 8 69 8 1
BITMAP
FF
FF
FF
FF
FF
FF
FF
00
00
00
00
00
00
00
FE
FE
FE
FE
FE
FE
FE
FE
FE
FE
FE
FE
FE
FE
FE
FE
FE
FE
FE
FE
FE
FE
FE
FE
FE
FE
FE
FE
FE
FE
FE
FE
FE
FE
FE
FE
FE
FE
FE
FE
FE
FE
FE
FE
FE
FE
FE
FE
FE
FE
FE
FE
FE
FE
FE
ENDCHAR
STARTCHAR 0131
ENCODING 305
SWIDTH 218 0
DWIDTH 21 0
BBX 7 55 7 0
BITMAP
FE
FE
FE
FE
FE
FE
FE
FE
FE
FE
FE
FE
FE
FE
FE
FE
FE
FE
FE
FE
FE
FE
FE
FE
FE
FE
FE
FE
FE
FE
FE
FE
FE
FE
FE
FE
FE
FE
FE
FE
FE
FE
FE
FE
FE
FE
FE
FE
FE
FE
FE
FE
FE
FE
FE
ENDCHAR
STARTCHAR 0141
ENCODING 321
SWIDTH 489 0
DWIDTH 47 0
BBX 43 55 2 0
BITMAP
01FC00000000
01FC00000000
01FC00000000
01FC00000000
01FC00000000
01FC00000000
01FC00000000
01FC00000000
01FC00000000
01FC00000000
01FC00000000
01FC00000000
01FC00000000
01FC00000000
01FC00000000
01FC08000000
01FC18000000
01FC38000000
01FC78000000
01FCF8000000
01FDF8000000
01FFF8000000
01FFF0000000
01FFE0000000
01FFC0000000
01FF80000000
01FF00000000
01FC00000000
03FC00000000
07FC00000000
0FFC00000000
3FFC00000000
7FFC00000000
FFFC00000000
FFFC00000000
FDFC00000000
F9FC00000000
F1FC00000000
C1FC00000000
81FC00000000
01FC00000000
01FC00000000
01FC00000000
01FC00000000
01FC00000000
01FC00000000
01FC00000000
01FC00000000
01FFFFFFFFE0
01FFFFFFFFE0
01FFFFFFFFE0
01FFFFFFFFE0
01FFFFFFFFE0
01FFFFFFFFE0
01FFFFFFFFE0
ENDCHAR
STARTCHAR 0142
ENCODING 322
SWIDTH 489 0
DWIDTH 47 0
BBX 43 55 2 0
BITMAP
01FC00000000
01FC00000000
01FC00000000
01FC00000000
01FC00000000
01FC00000000
01FC00000000
01FC00000000
01FC00000000
01FC00000000
01FC00000000
01FC00000000
01FC00000000
01FC00000000
01FC00000000
01FC08000000
01FC18000000
01FC38000000
01FC78000000
01FCF8000000
01FDF8000000
01FFF8000000
01FFF0000000
01FFE0000000
01FFC0000000
01FF80000000
01FF00000000
01FC00000000
03FC00000000
07FC00000000
0FFC00000000
3FFC00000000
7FFC00000000
FFFC00000000
FFFC00000000
FDFC00000000
F9FC00000000
F1FC00000000
C1FC00000000
81FC00000000
01FC00000000
01FC00000000
01FC00000000
01FC00000000
01FC00000000
01FC00000000
01FC00000000
01FC00000000
01FFFFFFFFE0
01FFFFFFFFE0
01FFFFFFFFE0
01FFFFFFFFE0
01FFFFFFFFE0
01FFFFFFFFE0
01FFFFFFFFE0
ENDCHAR
STARTCHAR 0152
ENCODING 338
SWIDTH 885 0
DWIDTH 85 0
BBX 77 57 4 -1
BITMAP
0001FFFE000000000000
001FFFFFE0FFFFFFFFF8
00FFFFFFF8FFFFFFFFF8
01FFFFFFFCFFFFFFFFF8
07FFFFFFFEFFFFFFFFF8
0FFFFFFFFFFFFFFFFFF8
1FFFFFFFFFFFFFFFFFF8
1FFFFFFFFFFFFFFFFFF8
3FF000001FFF00000000
3FC0000007FF00000000
7F80000003FF00000000
7F80000001FF00000000
7F00000001FF00000000
7F00000001FF00000000
FF00000000FF00000000
FE00000000FF00000000
FE00000000FF00000000
FE00000000FF00000000
FE00000000FF00000000
FE00000000FF00000000
FE00000000FF00000000
FE00000000FF00000000
FE00000000FF00000000
FE00000000FF00000000
FE00000000FFFFFFFFF0
FE00000000FFFFFFFFF0
FE00000000FFFFFFFFF0
FE00000000FFFFFFFFF0
FE00000000FFFFFFFFF0
FE00000000FFFFFFFFF0
FE00000000FFFFFFFFF0
FE00000000FF00000000
FE00000000FF00000000
FE00000000FF00000000
FE00000000FF00000000
FE00000000FF00000000
FE00000000FF00000000
FE00000000FF00000000
FE00000000FF00000000
FE00000000FF00000000
FE00000000FF00000000
FE00000000FF00000000
7F00000000FF00000000
7F00000001FF00000000
7F00000001FF00000000
7F80000001FF00000000
3F80000003FF00000000
3FC0000007FF00000000
3FF800001FFF00000000
1FFFFFFFFFFFFFFFFFF8
0FFFFFFFFFFFFFFFFFF8
0FFFFFFFFFFFFFFFFFF8
07FFFFFFFFFFFFFFFFF8
01FFFFFFFEFFFFFFFFF8
00FFFFFFF8FFFFFFFFF8
003FFFFFF0FFFFFFFFF8
0001FFFF800000000000
ENDCHAR
STARTCHAR 0153
ENCODING 339
SWIDTH 885 0
DWIDTH 85 0
BBX 77 55 4 0
BITMAP
0003FFFF807FFFFFFFF8
003FFFFFF87FFFFFFFF8
00FFFFFFFE7FFFFFFFF8
03FFFFFFFF7FFFFFFFF8
07FFFFFFFFFFFFFFFFF8
0FFFFFFFFFFFFFFFFFF8
1FFFFFFFFFFFFFFFFFF8
3FFC00007FFF00000000
3FE0000007FF00000000
3F80000003FF00000000
7F80000001FF00000000
7F00000001FF00000000
7F00000001FF00000000
7F00000000FF00000000
FF00000000FF00000000
FE00000000FF00000000
FE00000000FF00000000
FE00000000FF00000000
FE00000000FF00000000
FE00000000FF00000000
FE00000000FF00000000
FE00000000FF00000000
FE00000000FF00000000
FE00000000FFFFFFFFF0
FE00000000FFFFFFFFF0
FE00000000FFFFFFFFF0
FE00000000FFFFFFFFF0
FE00000000FFFFFFFFF0
FE00000000FFFFFFFFF0
FE00000000FFFFFFFFF0
FE00000000FF00000000
FE00000000FF00000000
FE00000000FF00000000
FE00000000FF00000000
FE00000000FF00000000
FE00000000FF00000000
FE00000000FF00000000
FE00000000FF00000000
FE00000000FF00000000
FE00000000FF00000000
FE00000000FF00000000
FF00000000FF00000000
7F00000001FF00000000
7F00000001FF00000000
7F80000001FF00000000
7F80000003FF00000000
3FE000000FFF00000000
3FFC00007FFF00000000
1FFFFFFFFFFFFFFFFFF8
0FFFFFFFFFFFFFFFFFF8
07FFFFFFFFFFFFFFFFF8
03FFFFFFFF7FFFFFFFF8
01FFFFFFFE7FFFFFFFF8
007FFFFFF87FFFFFFFF8
000FFFFF807FFFFFFFF8
ENDCHAR
STARTCHAR 015E
ENCODING 350
SWIDTH 531 0
DWIDTH 51 0
BBX 43 74 4 -19
BITMAP
001FFFFE0000
01FFFFFFF000
07FFFFFFF800
0FFFFFFFFE00
1FFFFFFFFF00
3FFFFFFFFF00
3FFFFFFFFF80
7FF00001FF80
7FC000007FC0
7F8000003FC0
FF0000003FC0
FE0000001FC0
FE0000001FC0
FE0000001FC0
FE0000001FC0
FE0000001FC0
FE0000000000
FE0000000000
FE0000000000
FE0000000000
FF0000000000
7F0000000000
7FC000000000
7FF800000000
3FFFFFFE0000
1FFFFFFFF000
0FFFFFFFFC00
07FFFFFFFE00
01FFFFFFFF00
001FFFFFFF80
0000000FFFC0
000000003FC0
000000001FC0
000000001FE0
000000000FE0
000000000FE0
000000000FE0
FF0000000FE0
FF0000000FE0
FF0000000FE0
FF0000000FE0
FF0000000FE0
FF0000000FE0
FF0000000FE0
7F0000001FE0
7F8000001FC0
7FC000003FC0
7FF00001FFC0
3FFFFFFFFFC0
3FFFFFFFFF80
1FFFFFFFFF00
0FFFFFFFFE00
07FFFFFFFC00
01FFFFFFF000
003FFFFF0000
000000000000
000000000000
000000FC0000
000000FC0000
000000FC0000
000000FC0000
000000FC0000
000000FC0000
000001FC0000
000001FC0000
000003F80000
00000FF80000
0003FFF80000
0003FFF00000
0003FFF00000
0003FFE00000
0003FFC00000
0003FF000000
0003F8000000
ENDCHAR
STARTCHAR 015F
ENCODING 351
SWIDTH 531 0
DWIDTH 51 0
BBX 43 74 4 -19
BITMAP
001FFFFE0000
01FFFFFFF000
07FFFFFFF800
0FFFFFFFFE00
1FFFFFFFFF00
3FFFFFFFFF00
3FFFFFFFFF80
7FF00001FF80
7FC000007FC0
7F8000003FC0
FF0000003FC0
FE0000001FC0
FE0000001FC0
FE0000001FC0
FE0000001FC0
FE0000001FC0
FE0000000000
FE0000000000
FE0000000000
FE0000000000
FF0000000000
7F0000000000
7FC000000000
7FF800000000
3FFFFFFE0000
1FFFFFFFF000
0FFFFFFFFC00
07FFFFFFFE00
01FFFFFFFF00
001FFFFFFF80
0000000FFFC0
000000003FC0
000000001FC0
000000001FE0
000000000FE0
000000000FE0
000000000FE0
FF0000000FE0
FF0000000FE0
FF0000000FE0
FF0000000FE0
FF0000000FE0
FF0000000FE0
FF0000000FE0
7F0000001FE0
7F8000001FC0
7FC000003FC0
7FF00001FFC0
3FFFFFFFFFC0
3FFFFFFFFF80
1FFFFFFFFF00
0FFFFFFFFE00
07FFFFFFFC00
01FFFFFFF000
003FFFFF0000
000000000000
000000000000
000000FC0000
000000FC0000
000000FC0000
000000FC0000
000000FC0000
000000FC0000
000001FC0000
000001FC0000
000003F80000
00000FF80000
0003FFF80000
0003FFF00000
0003FFF00000
0003FFE00000
0003FFC00000
0003FF000000
0003F8000000
ENDCHAR
STARTCHAR 0160
ENCODING 352
SWIDTH 531 0
DWIDTH 51 0
BBX 43 76 4 0
BITMAP
002000008000
00780001C000
007C0007E000
00FE000FF000
007F801FE000
003FC07FC000
001FF0FF0000
000FF9FE0000
0003FFFC0000
0001FFF80000
0000FFE00000
00007FC00000
00001F800000
00000F000000
000004000000
000000000000
000000000000
000000000000
000000000000
000000000000
000000000000
001FFFFE0000
01FFFFFFF000
07FFFFFFF800
0FFFFFFFFE00
1FFFFFFFFF00
3FFFFFFFFF00
3FFFFFFFFF80
7FF00001FF80
7FC000007FC0
7F8000003FC0
FF0000003FC0
FE0000001FC0
FE0000001FC0
FE0000001FC0
FE0000001FC0
FE0000001FC0
FE0000000000
FE0000000000
FE0000000000
FE0000000000
FF0000000000
7F0000000000
7FC000000000
7FF800000000
3FFFFFFE0000
1FFFFFFFF000
0FFFFFFFFC00
07FFFFFFFE00
01FFFFFFFF00
001FFFFFFF80
0000000FFFC0
000000003FC0
000000001FC0
000000001FE0
000000000FE0
000000000FE0
000000000FE0
FF0000000FE0
FF0000000FE0
FF0000000FE0
FF0000000FE0
FF0000000FE0
FF0000000FE0
FF0000000FE0
7F0000001FE0
7F8000001FC0
7FC000003FC0
7FF00001FFC0
3FFFFFFFFFC0
3FFFFFFFFF80
1FFFFFFFFF00
0FFFFFFFFE00
07FFFFFFFC00
01FFFFFFF000
003FFFFF0000
ENDCHAR
STARTCHAR 0161
ENCODING 353
SWIDTH 531 0
DWIDTH 51 0
BBX 43 76 4 0
BITMAP
002000008000
00780001C000
007C0007E000
00FE000FF000
007F801FE000
003FC07FC000
001FF0FF0000
000FF9FE0000
0003FFFC0000
0001FFF80000
0000FFE00000
00007FC00000
00001F800000
00000F000000
000004000000
000000000000
000000000000
000000000000
000000000000
000000000000
000000000000
001FFFFE0000
01FFFFFFF000
07FFFFFFF800
0FFFFFFFFE00
1FFFFFFFFF00
3FFFFFFFFF00
3FFFFFFFFF80
7FF00001FF80
7FC000007FC0
7F8000003FC0
FF0000003FC0
FE0000001FC0
FE0000001FC0
FE0000001FC0
FE0000001FC0
FE0000001FC0
FE0000000000
FE0000000000
FE0000000000
FE0000000000
FF0000000000
7F0000000000
7FC000000000
7FF800000000
3FFFFFFE0000
1FFFFFFFF000
0FFFFFFFFC00
07FFFFFFFE00
01FFFFFFFF00
001FFFFFFF80
0000000FFFC0
000000003FC0
000000001FC0
000000001FE0
000000000FE0
000000000FE0
000000000FE0
FF0000000FE0
FF0000000FE0
FF0000000FE0
FF0000000FE0
FF0000000FE0
FF0000000FE0
FF0000000FE0
7F0000001FE0
7F8000001FC0
7FC000003FC0
7FF00001FFC0
3FFFFFFFFFC0
3FFFFFFFFF80
1FFFFFFFFF00
0FFFFFFFFE00
07FFFFFFFC00
01FFFFFFF000
003FFFFF0000
ENDCHAR
STARTCHAR 0178
ENCODING 376
SWIDTH 520 0
DWIDTH 50 0
BBX 49 71 0 0
BITMAP
001FF003FE0000
001FF003FE0000
001FF003FE0000
001FF003FE0000
001FF003FE0000
001FF003FE0000
001FF003FE0000
00000000000000
00000000000000
00000000000000
00000000000000
00000000000000
00000000000000
00000000000000
00000000000000
00000000000000
FF80000000FF80
7FC0000000FF80
3FC0000001FF00
3FE0000003FE00
1FF0000003FE00
0FF0000007FC00
0FF800000FF800
07FC00000FF800
03FC00001FF000
03FE00003FE000
01FF00003FE000
00FF00007FC000
00FF8000FF8000
007FC000FF0000
007FC001FF0000
003FE003FE0000
001FF003FC0000
001FF007FC0000
000FF80FF80000
0007FC0FF00000
0007FC1FF00000
0003FE3FE00000
0001FF3FC00000
0001FF7FC00000
0000FFFF800000
00007FFF000000
00007FFF000000
00003FFE000000
00001FFC000000
00001FFC000000
00000FF8000000
000007F0000000
000007F0000000
000007F0000000
000007F0000000
000007F0000000
000007F0000000
000007F0000000
000007F0000000
000007F0000000
000007F0000000
000007F0000000
000007F0000000
000007F0000000
000007F0000000
000007F0000000
000007F0000000
000007F0000000
000007F0000000
000007F0000000
000007F0000000
000007F0000000
000007F0000000
000007F0000000
000007F0000000
ENDCHAR
STARTCHAR 017D
ENCODING 381
SWIDTH 520 0
DWIDTH 50 0
BBX 45 76 3 0
BITMAP
001000004000
00380001C000
007E0003E000
00FF000FF000
007F801FE000
003FE03FC000
000FF0FF8000
0007F9FF0000
0003FFFC0000
0001FFF80000
00007FF00000
00003FE00000
00001F800000
00000F000000
000002000000
000000000000
000000000000
000000000000
000000000000
000000000000
000000000000
7FFFFFFFFFF0
7FFFFFFFFFF0
7FFFFFFFFFF0
7FFFFFFFFFF0
7FFFFFFFFFF0
7FFFFFFFFFF0
7FFFFFFFFFF0
000000003FE0
000000007FC0
00000000FFC0
00000000FF80
00000001FF00
00000003FE00
00000007FC00
0000000FF800
0000001FF800
0000001FF000
0000003FE000
0000007FC000
000000FF8000
000001FF0000
000003FF0000
000003FE0000
000007FC0000
00000FF80000
00001FF00000
00003FE00000
00007FE00000
00007FC00000
0000FF800000
0001FF000000
0003FE000000
0007FC000000
000FFC000000
000FF8000000
001FF0000000
003FE0000000
007FC0000000
00FF80000000
01FF80000000
01FF00000000
03FE00000000
07FC00000000
0FF800000000
1FF000000000
3FF000000000
3FE000000000
7FC000000000
FFFFFFFFFFF8
FFFFFFFFFFF8
FFFFFFFFFFF8
FFFFFFFFFFF8
FFFFFFFFFFF8
FFFFFFFFFFF8
FFFFFFFFFFF8
ENDCHAR
STARTCHAR 017E
ENCODING 382
SWIDTH 520 0
DWIDTH 50 0
BBX 45 76 3 0
BITMAP
001000004000
00380001C000
007E0003E000
00FF000FF000
007F801FE000
003FE03FC000
000FF0FF8000
0007F9FF0000
0003FFFC0000
0001FFF80000
00007FF00000
00003FE00000
00001F800000
00000F000000
000002000000
000000000000
000000000000
000000000000
000000000000
000000000000
000000000000
7FFFFFFFFFF0
7FFFFFFFFFF0
7FFFFFFFFFF0
7FFFFFFFFFF0
7FFFFFFFFFF0
7FFFFFFFFFF0
7FFFFFFFFFF0
000000003FE0
000000007FC0
00000000FFC0
00000000FF80
00000001FF00
00000003FE00
00000007FC00
0000000FF800
0000001FF800
0000001FF000
0000003FE000
0000007FC000
000000FF8000
000001FF0000
000003FF0000
000003FE0000
000007FC0000
00000FF80000
00001FF00000
00003FE00000
00007FE00000
00007FC00000
0000FF800000
0001FF000000
0003FE000000
0007FC000000
000FFC000000
000FF8000000
001FF0000000
003FE0000000
007FC0000000
00FF80000000
01FF80000000
01FF00000000
03FE00000000
07FC00000000
0FF800000000
1FF000000000
3FF000000000
3FE000000000
7FC000000000
FFFFFFFFFFF8
FFFFFFFFFFF8
FFFFFFFFFFF8
FFFFFFFFFFF8
FFFFFFFFFFF8
FFFFFFFFFFF8
FFFFFFFFFFF8
ENDCHAR
STARTCHAR 0192
ENCODING 402
SWIDTH 375 0
DWIDTH 36 0
BBX 40 73 -4 -11
BITMAP
00000003FF
0000001FFF
0000007FFF
000000FFFF
000001FFFE
000001FFFE
000003FE00
000003F800
000003F800
000007F000
000007F000
000007F000
000007F000
000007F000
00000FF000
00000FE000
00000FE000
00000FE000
00000FE000
00000FE000
000FFFFFF8
000FFFFFF0
000FFFFFF0
001FFFFFF0
001FFFFFF0
001FFFFFF0
00003F8000
00003F8000
00003F8000
00003F8000
00003F8000
00007F8000
00007F0000
00007F0000
00007F0000
00007F0000
00007F0000
0000FF0000
0000FE0000
0000FE0000
0000FE0000
0000FE0000
0001FE0000
0001FC0000
0001FC0000
0001FC0000
0001FC0000
0001FC0000
0003FC0000
0003F80000
0003F80000
0003F80000
0003F80000
0003F80000
0007F00000
0007F00000
0007F00000
0007F00000
0007F00000
000FF00000
000FE00000
000FE00000
000FE00000
000FE00000
001FE00000
001FC00000
007FC00000
7FFFC00000
7FFF800000
7FFF000000
7FFE000000
FFFC000000
FFE0000000
ENDCHAR
STARTCHAR 02C6
ENCODING 710
SWIDTH 500 0
DWIDTH 48 0
BBX 28 15 10 61
BITMAP
00060000
000F0000
001F8000
003FC000
00FFF000
01FFF800
03FFFC00
07F9FE00
1FF0FF80
3FC03FC0
7F801FE0
FF000FF0
7C0003E0
380001C0
10000080
ENDCHAR
STARTCHAR 02C7
ENCODING 711
SWIDTH 500 0
DWIDTH 48 0
BBX 28 15 10 61
BITMAP
10000080
380001C0
7C0003E0
FF000FF0
7F801FE0
3FC03FC0
1FF0FF80
07F9FE00
03FFFC00
01FFF800
00FFF000
003FC000
001F8000
000F0000
00060000
ENDCHAR
STARTCHAR 02C9
ENCODING 713
SWIDTH 500 0
DWIDTH 48 0
BBX 27 6 11 65
BITMAP
FFFFFFE0
FFFFFFE0
FFFFFFE0
FFFFFFE0
FFFFFFE0
FFFFFFE0
ENDCHAR
STARTCHAR 02D8
ENCODING 728
SWIDTH 500 0
DWIDTH 48 0
BBX 28 13 10 62
BITMAP
F80001F0
F80001F0
FC0003F0
7E0007E0
7F000FE0
3F801FE0
3FE07FC0
1FFFFF80
0FFFFF00
07FFFE00
03FFFC00
00FFF000
003FC000
ENDCHAR
STARTCHAR 02D9
ENCODING 729
SWIDTH 500 0
DWIDTH 48 0
BBX 9 7 20 64
BITMAP
FF80
FF80
FF80
FF80
FF80
FF80
FF80
ENDCHAR
STARTCHAR 02DA
ENCODING 730
SWIDTH 500 0
DWIDTH 48 0
BBX 16 17 16 60
BITMAP
07E0
1FF8
3FFC
7FFC
7C3E
F81E
F00F
F00F
F00F
F00F
F00F
F81F
7C3E
7FFE
3FFC
1FF8
07E0
ENDCHAR
STARTCHAR 02DB
ENCODING 731
SWIDTH 500 0
DWIDTH 48 0
BBX 15 19 30 -19
BITMAP
03F0
07C0
0F80
1F00
3E00
7C00
7C00
F800
F800
F800
F800
FC00
FE00
7F02
7FFE
3FFE
1FFE
0FFE
03F8
ENDCHAR
STARTCHAR 02DC
ENCODING 732
SWIDTH 500 0
DWIDTH 48 0
BBX 30 10 9 63
BITMAP
03F00000
0FFC0060
1FFF80F0
3FFFE1FC
3FFFFFF8
7FFFFFF0
FE1FFFF0
7C07FFE0
3800FFC0
08003F00
ENDCHAR
STARTCHAR 02DD
ENCODING 733
SWIDTH 500 0
DWIDTH 48 0
BBX 31 15 12 62
BITMAP
00080030
001C0078
003E00FC
007F01FC
01FF03FE
03FE07F8
07FC0FF0
0FF01FE0
1FE03FC0
3FC0FF00
7F81FE00
FE01FC00
7C00F000
3800E000
00004000
ENDCHAR
STARTCHAR 03C0
ENCODING 960
SWIDTH 552 0
DWIDTH 53 0
BBX 49 46 2 0
BITMAP
FFFFFFFFFFFF80
FFFFFFFFFFFF80
FFFFFFFFFFFF80
FFFFFFFFFFFF80
FFFFFFFFFFFF80
FFFFFFFFFFFF80
01FC00001FC000
01FC00001FC000
01FC00001FC000
01FC00001FC000
01FC00001FC000
01FC00001FC000
01FC00001FC000
01FC00001FC000
01FC00001FC000
01FC00001FC000
01FC00001FC000
01FC00001FC000
01FC00001FC000
01FC00001FC000
01FC00001FC000
01FC00001FC000
01FC00001FC000
01FC00001FC000
01FC00001FC000
01FC00001FC000
01FC00001FC000
01FC00001FC000
01FC00001FC000
01FC00001FC000
01FC00001FC000
01FC00001FC000
01FC00001FC000
01FC00001FC000
01FC00001FC000
01FC00001FC000
01FC00001FC000
01FC00001FC000
01FC00001FC000
01FC00001FC000
01FC00001FC000
01FC00001FC000
01FC00001FC000
01FC00001FC000
01FC00001FC000
01FC00001FC000
ENDCHAR
STARTCHAR 2013
ENCODING 8211
SWIDTH 541 0
DWIDTH 52 0
BBX 43 7 5 23
BITMAP
FFFFFFFFFFE0
FFFFFFFFFFE0
FFFFFFFFFFE0
FFFFFFFFFFE0
FFFFFFFFFFE0
FFFFFFFFFFE0
FFFFFFFFFFE0
ENDCHAR
STARTCHAR 2014
ENCODING 8212
SWIDTH 802 0
DWIDTH 77 0
BBX 76 7 1 23
BITMAP
7FFFFFFFFFFFFFFFFFF0
FFFFFFFFFFFFFFFFFFF0
FFFFFFFFFFFFFFFFFFF0
FFFFFFFFFFFFFFFFFFF0
FFFFFFFFFFFFFFFFFFF0
FFFFFFFFFFFFFFFFFFF0
FFFFFFFFFFFFFFFFFFF0
ENDCHAR
STARTCHAR 2018
ENCODING 8216
SWIDTH 218 0
DWIDTH 21 0
BBX 10 20 6 46
BITMAP
0FC0
3FC0
7FC0
7FC0
FC00
FC00
F800
F800
F800
F800
FF00
FF00
FF00
FF00
FF00
FF00
FF00
FF00
FF00
FF00
ENDCHAR
STARTCHAR 2019
ENCODING 8217
SWIDTH 218 0
DWIDTH 21 0
BBX 10 21 6 43
BITMAP
7FC0
7FC0
7FC0
7FC0
7FC0
7FC0
7FC0
7FC0
7FC0
7FC0
07C0
07C0
07C0
07C0
07C0
0FC0
FF80
FF80
FF00
FE00
FC00
ENDCHAR
STARTCHAR 201A
ENCODING 8218
SWIDTH 218 0
DWIDTH 21 0
BBX 10 21 6 -11
BITMAP
7FC0
7FC0
7FC0
7FC0
7FC0
7FC0
7FC0
7FC0
7FC0
7FC0
07C0
07C0
07C0
07C0
07C0
0FC0
FF80
FF80
FF00
FE00
FC00
ENDCHAR
STARTCHAR 201C
ENCODING 8220
SWIDTH 385 0
DWIDTH 37 0
BBX 25 20 6 46
BITMAP
0FC01F80
3FC07F80
7FC0FF80
7FC0FF80
FC01F800
FC01F800
F801F000
F801F000
F801F000
F801F000
FF01FF00
FF01FF00
FF01FF00
FF01FF00
FF01FF00
FF01FF00
FF01FF00
FF01FF00
FF01FF00
FF01FF00
ENDCHAR
STARTCHAR 201D
ENCODING 8221
SWIDTH 385 0
DWIDTH 37 0
BBX 25 21 6 43
BITMAP
7FC0FF80
7FC0FF80
7FC0FF80
7FC0FF80
7FC0FF80
7FC0FF80
7FC0FF80
7FC0FF80
7FC0FF80
7FC0FF80
07C00F80
07C00F80
07C00F80
07C00F80
07C00F80
0FC01F80
FF81FF00
FF81FF00
FF01FE00
FE01FC00
FC01F800
ENDCHAR
STARTCHAR 201E
ENCODING 8222
SWIDTH 385 0
DWIDTH 37 0
BBX 25 21 6 -11
BITMAP
7FC0FF80
7FC0FF80
7FC0FF80
7FC0FF80
7FC0FF80
7FC0FF80
7FC0FF80
7FC0FF80
7FC0FF80
7FC0FF80
07C00F80
07C00F80
07C00F80
07C00F80
07C00F80
0FC01F80
FF81FF00
FF81FF00
FF01FE00
FE01FC00
FC01F800
ENDCHAR
STARTCHAR 2020
ENCODING 8224
SWIDTH 447 0
DWIDTH 43 0
BBX 35 73 4 -9
BITMAP
0003F80000
0003F80000
0003F80000
0003F80000
0003F80000
0003F80000
0003F80000
0003F80000
0003F80000
0003F80000
0003F80000
0003F80000
0003F80000
0003F80000
FFFFFFFFE0
FFFFFFFFE0
FFFFFFFFE0
FFFFFFFFE0
FFFFFFFFE0
FFFFFFFFE0
0003F80000
0003F80000
0003F80000
0003F80000
0003F80000
0003F80000
0003F80000
0003F80000
0003F80000
0003F80000
0003F80000
0003F80000
0003F80000
0003F80000
0003F80000
0003F80000
0003F80000
0003F80000
0003F80000
0003F80000
0003F80000
0003F80000
0003F80000
0003F80000
0003F80000
0003F80000
0003F80000
0003F80000
0003F80000
0003F80000
0003F80000
0003F80000
0003F80000
0003F80000
0003F80000
0003F80000
0003F80000
0003F80000
0003F80000
0003F80000
0003F80000
0003F80000
0003F80000
0003F80000
0003F80000
0003F80000
0003F80000
0003F80000
0003F80000
0003F80000
0003F80000
0003F80000
0003F80000
ENDCHAR
STARTCHAR 2021
ENCODING 8225
SWIDTH 447 0
DWIDTH 43 0
BBX 35 73 4 -9
BITMAP
0003F80000
0003F80000
0003F80000
0003F80000
0003F80000
0003F80000
0003F80000
0003F80000
0003F80000
0003F80000
0003F80000
0003F80000
0003F80000
0003F80000
FFFFFFFFE0
FFFFFFFFE0
FFFFFFFFE0
FFFFFFFFE0
FFFFFFFFE0
FFFFFFFFE0
0003F80000
0003F80000
0003F80000
0003F80000
0003F80000
0003F80000
0003F80000
0003F80000
0003F80000
0003F80000
0003F80000
0003F80000
0003F80000
0003F80000
0003F80000
0003F80000
0003F80000
0003F80000
0003F80000
0003F80000
0003F80000
0003F80000
0003F80000
0003F80000
0003F80000
0003F80000
0003F80000
0003F80000
0003F80000
0003F80000
0003F80000
0003F80000
0003F80000
FFFFFFFFE0
FFFFFFFFE0
FFFFFFFFE0
FFFFFFFFE0
FFFFFFFFE0
FFFFFFFFE0
0003F80000
0003F80000
0003F80000
0003F80000
0003F80000
0003F80000
0003F80000
0003F80000
0003F80000
0003F80000
0003F80000
0003F80000
0003F80000
0003F80000
ENDCHAR
STARTCHAR 2022
ENCODING 8226
SWIDTH 666 0
DWIDTH 64 0
BBX 27 27 19 13
BITMAP
003F8000
01FFF000
03FFF800
0FFFFC00
1FFFFF00
1FFFFF00
3FFFFF80
7FFFFFC0
7FFFFFC0
7FFFFFC0
FFFFFFE0
FFFFFFE0
FFFFFFE0
FFFFFFE0
FFFFFFE0
FFFFFFE0
FFFFFFE0
7FFFFFC0
7FFFFFC0
7FFFFFC0
3FFFFF80
1FFFFF00
1FFFFF00
0FFFFE00
03FFF800
01FFF000
003F8000
ENDCHAR
STARTCHAR 2026
ENCODING 8230
SWIDTH 635 0
DWIDTH 61 0
BBX 49 10 6 0
BITMAP
FF800FF800FF80
FF800FF800FF80
FF800FF800FF80
FF800FF800FF80
FF800FF800FF80
FF800FF800FF80
FF800FF800FF80
FF800FF800FF80
FF800FF800FF80
FF800FF800FF80
ENDCHAR
STARTCHAR 2030
ENCODING 8240
SWIDTH 1281 0
DWIDTH 123 0
BBX 117 56 3 0
BITMAP
00FFFFC000001FC000000000000000
07FFFFF800001F8000000000000000
1FFFFFFE00003F8000000000000000
3FFFFFFF00003F0000000000000000
7FFFFFFF80007E0000000000000000
7FFFFFFF80007E0000000000000000
7F80007F8000FC0000000000000000
FE00001FC001FC0000000000000000
FE00001FC001F80000000000000000
FC00000FC003F80000000000000000
FC00000FC003F00000000000000000
FC00000FC007F00000000000000000
FC00000FC007E00000000000000000
FC00000FC00FE00000000000000000
FC00000FC00FC00000000000000000
FC00000FC01F800000000000000000
FC00000FC01F800000000000000000
FC00000FC03F000000000000000000
FC00000FC07F000000000000000000
FC00000FC07E000000000000000000
FC00000FC0FE000000000000000000
FC00000FC0FC000000000000000000
FC00000FC1FC07FFFE00000FFFF800
FC00000FC1F83FFFFFC0007FFFFF00
FC00000FC3F0FFFFFFF001FFFFFFC0
FE00001FC3F1FFFFFFF803FFFFFFE0
FE00001FC7E3FFFFFFFC07FFFFFFF0
7F80007F87E3FFFFFFFC07FFFFFFF0
7FFFFFFF8FC3FC0003FC07F8000FF0
7FFFFFFF9FC7F00000FE0FE00003F8
3FFFFFFF1F87F00000FE0FE00003F8
1FFFFFFE3F87E000007E0FC00001F8
07FFFFF83F07E000007E0FC00001F8
00FFFFC07F07E000007E0FC00001F8
000000007E07E000007E0FC00001F8
00000000FC07E000007E0FC00001F8
00000000FC07E000007E0FC00001F8
00000001F807E000007E0FC00001F8
00000001F807E000007E0FC00001F8
00000003F007E000007E0FC00001F8
00000007F007E000007E0FC00001F8
00000007E007E000007E0FC00001F8
0000000FE007E000007E0FC00001F8
0000000FC007E000007E0FC00001F8
0000001FC007E000007E0FC00001F8
0000001F8007E000007E0FC00001F8
0000003F0007E000007E0FC00001F8
0000003F0007F00000FE0FE00003F8
0000007E0007F00000FE0FE00003F8
0000007E0003FC0003FC07F8000FF0
000000FC0003FFFFFFFC07FFFFFFF0
000000FC0003FFFFFFFC07FFFFFFF0
000001F80001FFFFFFF803FFFFFFE0
000003F80000FFFFFFF001FFFFFFC0
000003F000003FFFFFC0007FFFFF00
000007F0000007FFFE00000FFFF800
ENDCHAR
STARTCHAR 2039
ENCODING 8249
SWIDTH 291 0
DWIDTH 28 0
BBX 17 44 5 6
BITMAP
003000
003800
007E00
007F00
00FF00
00FE00
01FE00
01FC00
03FC00
03F800
07F800
07F000
07F000
0FE000
0FE000
1FC000
1FC000
3F8000
3F8000
7F8000
7F0000
FF0000
FF0000
7F0000
7F8000
3F8000
1FC000
1FC000
0FE000
0FE000
07F000
07F000
03F800
03F800
01FC00
01FC00
00FE00
00FE00
007F00
007F00
003F80
003F00
001E00
001800
ENDCHAR
STARTCHAR 203A
ENCODING 8250
SWIDTH 291 0
DWIDTH 28 0
BBX 17 44 6 5
BITMAP
060000
0E0000
3F0000
7F0000
7F8000
3F8000
3FC000
1FC000
1FC000
0FE000
0FE000
07F000
07F000
03F800
03F800
01FC00
01FC00
01FE00
00FE00
00FF00
007F00
007F80
007F80
007F00
00FF00
00FE00
01FE00
01FC00
03F800
03F800
07F000
07F000
0FE000
0FE000
1FC000
1FC000
3F8000
3F8000
7F0000
FF0000
FE0000
7E0000
3C0000
0C0000
ENDCHAR
STARTCHAR 20A3
ENCODING 8355
SWIDTH 645 0
DWIDTH 62 0
BBX 53 56 7 0
BITMAP
FFFFFFF8000000
FFFFFFF8000000
FFFFFFF8000000
FFFFFFF8000000
FFFFFFF8000000
FFFFFFF8000000
FFFFFFF8000000
FE000000000000
FE000000000000
FE000000000000
FE000000000000
FE000000000000
FE000000000000
FE000000000000
FE000000000000
FE000000000000
FE000000000000
FE000000000000
FE000000000000
FE000000000000
FE000000000000
FE00000001FE00
FE00001FC7FF80
FE00001FDFFFC0
FE00001FFFFFE0
FFFFFC1FFFFFF0
FFFFFC1FFFFFF0
FFFFFC1FFC0FF0
FFFFFC1FF007F8
FFFFFC1FE003F8
FFFFFC1FE003F8
FE00001FE003F8
FE00001FC003F8
FE00001FC003F8
FE00001FC003F8
FE00001FC003F8
FE00001FC00000
FE00001FC00000
FE00001FC00000
FE00001FC00000
FE00001FC00000
FE00001FC00000
FE00001FC00000
FE00001FC00000
FE00001FC00000
FE00001FC00000
FE00001FC00000
FE00001FC00000
FE00001FC00000
FE00001FC00000
FE00001FC00000
FE00001FC00000
FE00001FC00000
FE00001FC00000
FE00001FC00000
FE00001FC00000
ENDCHAR
STARTCHAR 20AC
ENCODING 8364
SWIDTH 489 0
DWIDTH 47 0
BBX 38 61 5 -3
BITMAP
00001FF000
0001FFFF80
0007FFFFF0
001FFFFFE0
003FFFFFE0
007FFFFFC0
007FF01FC0
00FF800080
01FF000000
01FE000000
01FE000000
03FC000000
03FC000000
03FC000000
03FC000000
07F8000000
07F8000000
07F8000000
07F8000000
07F8000000
07F8000000
07F8000000
07F8000000
7FFFFFFE00
7FFFFFFE00
7FFFFFFE00
FFFFFFFC00
FFFFFFFC00
07F8000000
07F8000000
07F8000000
07F8000000
07F8000000
7FFFFFF000
7FFFFFE000
FFFFFFE000
FFFFFFE000
FFFFFFC000
07F8000000
07F8000000
07F8000000
07F8000000
07F8000000
03F8000000
03F8000000
03FC000000
03FC000000
03FC000000
01FC000000
01FE000000
01FE000000
01FF000000
00FF000000
00FF800060
007FE003F0
007FFFFFF0
003FFFFFF8
001FFFFFFC
000FFFFFF8
0003FFFFE0
00007FFF00
ENDCHAR
STARTCHAR 2122
ENCODING 8482
SWIDTH 864 0
DWIDTH 83 0
BBX 72 36 5 28
BITMAP
FFFFFFE03FC00000FF
FFFFFFE03FE00001FF
FFFFFFE03FE00001FF
FFFFFFE03FE00003FF
FFFFFFE03FF00003FF
001F80003FF00003FF
001F80003FF00007FF
001F80003FF80007FF
001F80003FF8000FFF
001F80003FFC000FFF
001F80003F7C000FBF
001F80003F7C001FBF
001F80003F3E001F3F
001F80003F3E003F3F
001F80003F3E003F3F
001F80003F1F003E3F
001F80003F1F007E3F
001F80003F1F807E3F
001F80003F0F807C3F
001F80003F0F80FC3F
001F80003F07C0F83F
001F80003F07C1F83F
001F80003F07E1F83F
001F80003F03E1F03F
001F80003F03E3F03F
001F80003F03F3F03F
001F80003F01F7E03F
001F80003F01F7E03F
001F80003F00FFC03F
001F80003F00FFC03F
001F80003F00FFC03F
001F80003F007F803F
001F80003F007F803F
001F80003F007F803F
001F80003F003F003F
001F80003F003F003F
ENDCHAR
STARTCHAR 2126
ENCODING 8486
SWIDTH 666 0
DWIDTH 64 0
BBX 58 65 3 0
BITMAP
000001FFC0000000
00000FFFFC000000
00007FFFFF800000
0001FFFFFFE00000
0003FFFFFFF00000
000FFFFFFFFC0000
001FFF803FFE0000
003FF80007FF0000
007FE00001FF8000
00FFC00000FFC000
01FF0000003FE000
03FE0000001FF000
07FC0000000FF800
07F800000007F800
0FF000000007FC00
0FF000000003FC00
1FE000000001FE00
1FC000000000FE00
3FC000000000FF00
3F80000000007F00
7F80000000007F00
7F80000000007F80
7F00000000003F80
7F00000000003F80
FF00000000003F80
FF00000000003FC0
FE00000000001FC0
FE00000000001FC0
FE00000000001FC0
FE00000000001FC0
FE00000000001FC0
FE00000000001FC0
FE00000000001FC0
FE00000000001FC0
FE00000000001FC0
FE00000000001FC0
FE00000000001F80
7F00000000003F80
7F00000000003F80
7F00000000003F80
7F00000000003F80
3F80000000007F00
3F80000000007F00
1F80000000007E00
1FC000000000FE00
0FC000000000FC00
0FE000000001FC00
07F000000003F800
07F000000003F000
03F800000007F000
01FC0000000FE000
00FE0000001FC000
007F0000003F8000
003F8000007F0000
001FC00000FE0000
000FE00001FC0000
0003F00003F00000
0001FC000FE00000
00007E001F800000
FFFFFF807FFFFFC0
FFFFFF807FFFFFC0
FFFFFF807FFFFFC0
FFFFFF807FFFFFC0
FFFFFF807FFFFFC0
FFFFFF807FFFFFC0
ENDCHAR
STARTCHAR 2202
ENCODING 8706
SWIDTH 500 0
DWIDTH 48 0
BBX 42 65 3 0
BITMAP
03E000000000
03FE00000000
03FFC0000000
03FFF0000000
07FFFC000000
07FFFF000000
003FFFC00000
0007FFE00000
0000FFF00000
00003FF80000
00000FFC0000
000007FE0000
000001FF0000
000000FF8000
0000007FC000
0000003FE000
0000001FE000
0000000FF000
00000007F800
00000003F800
00000003FC00
00000001FC00
0000FF81FC00
0007FFF0FE00
003FFFF8FE00
007FFFFE7F00
01FFFFFF7F00
03FFFFFF7F00
07FFC07FBF00
07FE000FFF80
0FF80007FF80
1FF00003FF80
1FE00001FF80
3FC00000FF80
3FC000007FC0
7F8000007FC0
7F8000003FC0
7F0000003FC0
FF0000003FC0
FE0000001FC0
FE0000001FC0
FE0000001FC0
FE0000001FC0
FE0000001FC0
FE0000001FC0
FE0000001FC0
FE0000001FC0
FE0000001F80
7F0000003F80
7F0000003F80
7F0000003F80
3F8000007F00
3FC000007F00
3FC00000FE00
1FE00001FE00
0FF00003FC00
0FF80007FC00
07FE001FF800
03FFC07FF000
01FFFFFFE000
00FFFFFFC000
007FFFFF8000
001FFFFE0000
0007FFF80000
0000FF800000
ENDCHAR
STARTCHAR 2206
ENCODING 8710
SWIDTH 625 0
DWIDTH 60 0
BBX 58 64 1 0
BITMAP
0000007F80000000
0000007F80000000
000000FFC0000000
000000FFC0000000
000001FFC0000000
000001FFE0000000
000001FFE0000000
000003FFF0000000
000003FFF0000000
000007F3F0000000
000007F3F8000000
000007E3F8000000
00000FE1FC000000
00000FE1FC000000
00001FC1FC000000
00001FC0FE000000
00001F80FE000000
00003F807F000000
00003F807F000000
00007F007F000000
00007F003F800000
00007E003F800000
0000FE001FC00000
0000FE001FC00000
0001FC001FC00000
0001FC000FE00000
0001FC000FE00000
0003F80007F00000
0003F80007F00000
0007F00007F00000
0007F00003F80000
0007F00003F80000
000FE00001FC0000
000FE00001FC0000
001FC00001FC0000
001FC00000FE0000
001FC00000FE0000
003F8000007F0000
003F8000007F0000
007F0000007F0000
007F0000003F8000
007F0000003F8000
00FE0000003FC000
00FE0000001FC000
01FC0000001FC000
01FC0000000FE000
01FC0000000FE000
03F80000000FF000
03F800000007F000
07F000000007F000
07F000000003F800
07F000000003F800
0FE000000003FC00
0FE000000001FC00
1FC000000001FC00
1FC000000000FE00
1FC000000000FE00
3F8000000000FF00
3FFFFFFFFFFFFF00
7FFFFFFFFFFFFF00
7FFFFFFFFFFFFF80
7FFFFFFFFFFFFF80
FFFFFFFFFFFFFFC0
FFFFFFFFFFFFFFC0
ENDCHAR
STARTCHAR 220F
ENCODING 8719
SWIDTH 666 0
DWIDTH 64 0
BBX 58 96 3 -24
BITMAP
FFFFFFFFFFFFFFC0
FFFFFFFFFFFFFFC0
FFFFFFFFFFFFFFC0
FFFFFFFFFFFFFFC0
FFFFFFFFFFFFFFC0
FFFFFFFFFFFFFFC0
01F800000007E000
01F800000007E000
01F800000007E000
01F800000007E000
01F800000007E000
01F800000007E000
01F800000007E000
01F800000007E000
01F800000007E000
01F800000007E000
01F800000007E000
01F800000007E000
01F800000007E000
01F800000007E000
01F800000007E000
01F800000007E000
01F800000007E000
01F800000007E000
01F800000007E000
01F800000007E000
01F800000007E000
01F800000007E000
01F800000007E000
01F800000007E000
01F800000007E000
01F800000007E000
01F800000007E000
01F800000007E000
01F800000007E000
01F800000007E000
01F800000007E000
01F800000007E000
01F800000007E000
01F800000007E000
01F800000007E000
01F800000007E000
01F800000007E000
01F800000007E000
01F800000007E000
01F800000007E000
01F800000007E000
01F800000007E000
01F800000007E000
01F800000007E000
01F800000007E000
01F800000007E000
01F800000007E000
01F800000007E000
01F800000007E000
01F800000007E000
01F800000007E000
01F800000007E000
01F800000007E000
01F800000007E000
01F800000007E000
01F800000007E000
01F800000007E000
01F800000007E000
01F800000007E000
01F800000007E000
01F800000007E000
01F800000007E000
01F800000007E000
01F800000007E000
01F800000007E000
01F800000007E000
01F800000007E000
01F800000007E000
01F800000007E000
01F800000007E000
01F800000007E000
01F800000007E000
01F800000007E000
01F800000007E000
01F800000007E000
01F800000007E000
01F800000007E000
01F800000007E000
01F800000007E000
01F800000007E000
01F800000007E000
01F800000007E000
01F800000007E000
01F800000007E000
FFFFF00007FFFFC0
FFFFF00007FFFFC0
FFFFF00007FFFFC0
FFFFF00007FFFFC0
FFFFF00007FFFFC0
FFFFF00007FFFFC0
ENDCHAR
STARTCHAR 2211
ENCODING 8721
SWIDTH 666 0
DWIDTH 64 0
BBX 55 96 3 -24
BITMAP
FFFFFFFFFFFFFC
FFFFFFFFFFFFFC
FFFFFFFFFFFFFC
FFFFFFFFFFFFFC
FFFFFFFFFFFFFC
FFFFFFFFFFFFFC
FFFFFFFFFFFFFC
FF0000000001FC
FF8000000001FC
7FC000000001FC
3FC000000001FC
3FE000000001FC
1FE000000001FC
1FF000000001FC
0FF800000001FC
07F800000001FC
07FC00000001FC
03FC00000001FC
01FE00000001FC
01FF00000001FC
00FF00000001FC
00FF80000001FC
007FC000000000
003FC000000000
003FE000000000
001FE000000000
001FF000000000
000FF800000000
0007F800000000
0007FC00000000
0003FC00000000
0003FE00000000
0001FF00000000
0000FF00000000
0000FF80000000
00007F80000000
00003FC0000000
00003FE0000000
00001FE0000000
00001FF0000000
00000FF8000000
000007F8000000
000007FC000000
000003FC000000
000003FE000000
000001FF000000
000001FF000000
000001FE000000
000003FE000000
000003FC000000
000007FC000000
00000FF8000000
00000FF0000000
00001FF0000000
00001FE0000000
00003FE0000000
00003FC0000000
00007FC0000000
0000FF80000000
0000FF80000000
0001FF00000000
0001FE00000000
0003FE00000000
0003FC00000000
0007FC00000000
0007F800000000
000FF800000000
001FF000000000
001FF000000000
003FE000000000
003FC000000000
007FC000000000
007F8000000000
00FF8000000000
00FF00000000FE
01FF00000000FE
03FE00000000FE
03FE00000000FE
07FC00000000FE
07F800000000FE
0FF800000000FE
0FF000000000FE
1FF000000000FE
3FE000000000FE
3FE000000000FE
7FC000000000FE
7FC000000000FE
FF8000000000FE
FF0000000000FE
FFFFFFFFFFFFFE
FFFFFFFFFFFFFE
FFFFFFFFFFFFFE
FFFFFFFFFFFFFE
FFFFFFFFFFFFFE
FFFFFFFFFFFFFE
FFFFFFFFFFFFFE
ENDCHAR
STARTCHAR 2212
ENCODING 8722
SWIDTH 531 0
DWIDTH 51 0
BBX 44 6 3 24
BITMAP
FFFFFFFFFFF0
FFFFFFFFFFF0
FFFFFFFFFFF0
FFFFFFFFFFF0
FFFFFFFFFFF0
FFFFFFFFFFF0
ENDCHAR
STARTCHAR 2215
ENCODING 8725
SWIDTH 156 0
DWIDTH 15 0
BBX 37 56 -11 0
BITMAP
00000003F8
00000003F0
00000007F0
00000007E0
0000000FC0
0000000FC0
0000001F80
0000003F80
0000003F00
0000007F00
0000007E00
000000FE00
000000FC00
000001FC00
000001F800
000003F000
000003F000
000007E000
00000FE000
00000FC000
00001FC000
00001F8000
00003F8000
00003F0000
00007F0000
00007E0000
0000FC0000
0000FC0000
0001F80000
0003F80000
0003F00000
0007F00000
0007E00000
000FE00000
000FC00000
001F800000
001F800000
003F000000
003F000000
007E000000
007E000000
00FC000000
01FC000000
01F8000000
03F8000000
03F0000000
07E0000000
07E0000000
0FC0000000
0FC0000000
1F80000000
1F80000000
3F00000000
7F00000000
7E00000000
FE00000000
ENDCHAR
STARTCHAR 2219
ENCODING 8729
SWIDTH 208 0
DWIDTH 20 0
BBX 9 10 6 22
BITMAP
FF80
FF80
FF80
FF80
FF80
FF80
FF80
FF80
FF80
FF80
ENDCHAR
STARTCHAR 221A
ENCODING 8730
SWIDTH 666 0
DWIDTH 64 0
BBX 64 79 0 0
BITMAP
0000000000FFFFFF
0000000000FFFFFF
0000000001FFFFFF
0000000001FFFFFF
0000000001FFFFFF
0000000003FFFFFF
0000000003F80000
0000000003F80000
0000000003F80000
0000000007F00000
0000000007F00000
0000000007F00000
000000000FF00000
000000000FE00000
000000000FE00000
000000000FE00000
000000001FC00000
000000001FC00000
000000001FC00000
000000003F800000
000000003F800000
000000003F800000
000000003F800000
000000007F000000
000000007F000000
000000007F000000
00000000FE000000
00000000FE000000
00000000FE000000
00000001FE000000
00000001FC000000
00000001FC000000
00000001FC000000
00000003F8000000
00000003F8000000
00000003F8000000
00000007F0000000
00000007F0000000
00000007F0000000
00000007F0000000
0000000FE0000000
0000000FE0000000
0000000FE0000000
0000001FC0000000
0000001FC0000000
FFF0001FC0000000
FFF8003F80000000
FFF8003F80000000
FFF8003F80000000
FFFC003F80000000
FFFC007F00000000
00FC007F00000000
00FC007F00000000
00FE00FE00000000
007E00FE00000000
007E00FE00000000
007F00FC00000000
003F01FC00000000
003F01FC00000000
003F01FC00000000
003F83F800000000
001F83F800000000
001F83F800000000
001FC7F000000000
000FC7F000000000
000FC7F000000000
000FE7E000000000
000FEFE000000000
0007EFE000000000
0007EFE000000000
0007FFC000000000
0003FFC000000000
0003FFC000000000
0003FF8000000000
0001FF8000000000
0001FF8000000000
0001FF0000000000
0001FF0000000000
0000FF0000000000
ENDCHAR
STARTCHAR 221E
ENCODING 8734
SWIDTH 666 0
DWIDTH 64 0
BBX 60 29 2 12
BITMAP
003FC000003FC000
01FFF00001FFF800
03FFFC0003FFFC00
07FFFF000FFFFE00
1FFFFF801FFFFF00
1FE07FC03FE07F80
3F800FE07F001FC0
7F0007F0FE000FC0
7E0003F1FC0007E0
7C0001F9F80003E0
FC0000FFF00003F0
F800007FE00001F0
F800003FC00001F0
F800001F800001F0
F800001F800001F0
F800001F800001F0
F800003FC00001F0
F800007FE00001F0
FC0000FDF00003F0
7C0001F9F80003E0
7E0003F0FC0007E0
7F0007E07E000FE0
3F800FE03F001FC0
1FE03FC03FE07F80
0FFFFF801FFFFF80
0FFFFF0007FFFF00
03FFFC0003FFFC00
01FFF80000FFF800
003FC000003FC000
ENDCHAR
STARTCHAR 222B
ENCODING 8747
SWIDTH 500 0
DWIDTH 48 0
BBX 30 96 9 -24
BITMAP
00001FE0
00007FFC
0001FFF8
0003FFF8
0007FFF8
0007FFF8
000FFFF8
000FFC10
000FF000
001FF000
001FE000
001FE000
001FE000
001FE000
001FE000
001FE000
001FE000
001FE000
001FE000
001FE000
001FE000
001FE000
001FE000
001FE000
001FE000
001FE000
001FE000
001FE000
001FE000
001FE000
001FE000
001FE000
001FE000
001FE000
001FE000
001FE000
001FE000
001FE000
001FE000
001FE000
001FE000
001FE000
001FE000
001FE000
001FE000
001FE000
001FE000
001FE000
001FE000
001FE000
001FE000
001FE000
001FE000
001FE000
001FE000
001FE000
001FE000
001FE000
001FE000
001FE000
001FE000
001FE000
001FE000
001FE000
001FE000
001FE000
001FE000
001FE000
001FE000
001FE000
001FE000
001FE000
001FE000
001FE000
001FE000
001FE000
001FE000
001FE000
001FE000
001FE000
001FE000
001FE000
001FE000
001FE000
001FE000
001FE000
003FE000
003FC000
20FFC000
7FFFC000
7FFF8000
7FFF8000
7FFF0000
7FFC0000
FFF00000
3F800000
ENDCHAR
STARTCHAR 2248
ENCODING 8776
SWIDTH 500 0
DWIDTH 48 0
BBX 46 30 1 12
BITMAP
003F00000000
01FFE0000070
03FFF80000F8
07FFFF0000FC
0FFFFFC001F8
1FFFFFF003F8
3FFFFFFC0FF0
3FC1FFFFFFF0
7F003FFFFFE0
7E0007FFFFC0
FC0001FFFF80
7C00007FFF00
1800001FFE00
00000003F000
000000000000
000000000000
003F00000000
00FFE0000060
03FFF8000078
07FFFE0000FC
0FFFFFC001F8
1FFFFFF003F8
1FFFFFFC0FF0
3FC0FFFFFFF0
7F001FFFFFE0
7E0007FFFFC0
FC0001FFFF80
FC00007FFF00
3800001FFE00
10000003F000
ENDCHAR
STARTCHAR 2260
ENCODING 8800
SWIDTH 531 0
DWIDTH 51 0
BBX 44 40 3 7
BITMAP
000000008000
00000001C000
00000003E000
00000003F800
00000007F000
0000000FF000
0000000FE000
0000001FC000
0000003FC000
FFFFFFFFFFF0
FFFFFFFFFFF0
FFFFFFFFFFF0
FFFFFFFFFFF0
FFFFFFFFFFF0
FFFFFFFFFFF0
000007F80000
000007F00000
00000FE00000
00001FE00000
00001FC00000
00003F800000
00007F800000
00007F000000
0000FE000000
0001FE000000
FFFFFFFFFFF0
FFFFFFFFFFF0
FFFFFFFFFFF0
FFFFFFFFFFF0
FFFFFFFFFFF0
FFFFFFFFFFF0
003FC0000000
003F80000000
007F00000000
00FF00000000
00FE00000000
01FC00000000
007C00000000
003800000000
001000000000
ENDCHAR
STARTCHAR 2264
ENCODING 8804
SWIDTH 500 0
DWIDTH 48 0
BBX 42 50 3 3
BITMAP
0000000000C0
0000000003C0
000000001FC0
000000007FC0
00000003FFC0
0000000FFFC0
0000007FFFC0
000001FFFF80
000007FFFC00
00003FFFF000
0000FFFF8000
0007FFFE0000
001FFFF00000
00FFFF800000
03FFFE000000
1FFFF0000000
7FFFC0000000
FFFE00000000
FFF800000000
FFC000000000
FFC000000000
FFF000000000
FFFE00000000
FFFF80000000
1FFFF0000000
07FFFC000000
00FFFF800000
003FFFF00000
0007FFFC0000
0001FFFF8000
00003FFFE000
00000FFFFC00
000001FFFF80
0000007FFFC0
0000000FFFC0
00000003FFC0
000000007FC0
000000001FC0
0000000003C0
0000000000C0
000000000000
000000000000
000000000000
FFFFFFFFFFC0
FFFFFFFFFFC0
FFFFFFFFFFC0
FFFFFFFFFFC0
FFFFFFFFFFC0
FFFFFFFFFFC0
FFFFFFFFFFC0
ENDCHAR
STARTCHAR 2265
ENCODING 8805
SWIDTH 500 0
DWIDTH 48 0
BBX 42 50 3 3
BITMAP
C00000000000
F00000000000
FE0000000000
FF8000000000
FFF000000000
FFFC00000000
FFFF00000000
7FFFE0000000
0FFFF8000000
03FFFF000000
007FFFC00000
001FFFF80000
0003FFFE0000
00007FFFC000
00001FFFF000
000003FFFE00
000000FFFF80
0000001FFFC0
00000003FFC0
00000000FFC0
00000000FFC0
00000003FFC0
0000001FFFC0
0000007FFFC0
000003FFFE00
00001FFFF800
00007FFFC000
0003FFFF0000
000FFFF80000
007FFFE00000
01FFFF000000
0FFFFC000000
7FFFE0000000
FFFF80000000
FFFC00000000
FFF000000000
FF8000000000
FE0000000000
F00000000000
C00000000000
000000000000
000000000000
000000000000
FFFFFFFFFFC0
FFFFFFFFFFC0
FFFFFFFFFFC0
FFFFFFFFFFC0
FFFFFFFFFFC0
FFFFFFFFFFC0
FFFFFFFFFFC0
ENDCHAR
ENDFONT
